<?xml version="1.0" standalone="no"?><!DOCTYPE svg PUBLIC "-//W3C//DTD SVG 1.1//EN" "http://www.w3.org/Graphics/SVG/1.1/DTD/svg11.dtd" ><svg xmlns="http://www.w3.org/2000/svg"><metadata></metadata><defs><font id="Kaiti SC Bold; 8.0d1e2; 2012-06-20" horiz-adv-x="1000"><font-face font-family="Kaiti SC" font-weight="400" font-stretch="normal" units-per-em="1000" panose-1="2 1 8 0 4 1 1 1 1 1" ascent="1060" descent="-340" x-height="1" bbox="30 -131 1040 804" underline-thickness="20" underline-position="-133" unicode-range="U+4e00-9ed1" /><missing-glyph horiz-adv-x="1000"  /><glyph glyph-name="" unicode="&#x5427;" d="M460 595 q74 19 144 46 q70 27 86 43 q17 15 36 15 q19 0 74.5 -31.5 q55.5 -31.5 55.5 -48 q0 -16.5 -23.5 -36 q-23.5 -19.5 -46 -55.5 q-22.5 -36 -38.5 -79 q36 -16 36 -35.5 q0 -19.5 -30 -24.5 q-89 -14 -144.5 -29.5 q-55.5 -15.5 -142.5 -31.5 q-1 -64 4.5 -108 q5.5 -44 15 -66 q9.5 -22 24.5 -38.5 q15 -16.5 70.5 -31.5 q55.5 -15 110.5 -15 q55 0 109 12 q54 12 71.5 41.5 q17.5 29.5 29.5 89 q12 59.5 24.5 59.5 q12.5 0 15.5 -48 q7 -113 21 -125.5 q14 -12.5 14 -28.5 q0 -41 -89 -65 q-89 -24 -182 -24 q-93 0 -164.5 26 q-71.5 26 -104 83.5 q-32.5 57.5 -32.5 177.5 q0 43 4 99 q4 56 4 96 q0 77 -15 105 q-15 28 -15 37 q0 9 11 9 q11 0 36.5 -8.5 q25.5 -8.5 29.5 -9.5 ZM598 406 q51 14 68.5 23.5 q17.5 9.5 26 29 q8.5 19.5 14.5 58.5 q6 39 6 77 q0 24 -14 24 q-6 0 -103 -25 q42 -25 42 -35 q0 -10 -7 -23 q-19 -32 -33 -129 ZM545 577 q-14 -4 -62 -20 q-10 -83 -15 -182 q24 3 79 18 q8 86 8 123 q0 37 -10 61 ZM151 551 q69 7 106 33 q19 14 35.5 14 q16.5 0 63 -31 q46.5 -31 46.5 -49 q0 -9 -14.5 -23 q-14.5 -14 -32 -53.5 q-17.5 -39.5 -29.5 -92.5 q30 -8 30 -28 q0 -15 -19 -23 q-19 -8 -145 -27 q0 -39 -8.5 -62.5 q-8.5 -23.5 -20.5 -23.5 q-12 0 -25 26 q-13 26 -13 51 q0 76 -12 156.5 q-12 80.5 -25 100.5 q-13 20 -13 31 q0 11 19 11 q19 0 57 -10 ZM192 321 q34 6 54 15 q12 9 21.5 76.5 q9.5 67.5 9.5 89 q0 21.5 -17 21.5 q-7 0 -29.5 -5 q-22.5 -5 -49.5 -9 q8 -79 11 -188 Z" /><glyph glyph-name="" unicode="&#x516b;" d="M1016 66 q0 -7 -17.5 -11 q-17.5 -4 -95 -4 q-77.5 0 -111 6 q-33.5 6 -51 25 q-17.5 19 -48.5 81 q-31 62 -109 204 q-78 142 -106 174.5 q-28 32.5 -69 50.5 q-20 8 -20 20 q0 20 51 20 q51 0 71 -12.5 q20 -12.5 43 -61.5 q37 -78 91 -160.5 q54 -82.5 110 -143 q56 -60.5 92.5 -87.5 q36.5 -27 102.5 -57 q66 -30 66 -44 ZM448 364 q0 -16 -19 -31 q-19 -15 -57 -74 q-78 -122 -174.5 -175.5 q-96.5 -53.5 -122.5 -53.5 q-7 0 -7 4 q0 11 42 43 q93 70 156.5 167.5 q63.5 97.5 63.5 146.5 q0 7 -3 17 q-3 10 -3 20 q0 21 19 21 q19 0 62 -31.5 q43 -31.5 43 -53.5 Z" /><glyph glyph-name="" unicode="&#x5df4;" d="M280 596 q99 13 201.5 41 q102.5 28 124.5 43.5 q22 15.5 43.5 15.5 q21.5 0 73.5 -29.5 q52 -29.5 52 -44.5 q0 -11 -33 -36 q-43 -33 -81 -129 q35 -22 35 -39 q0 -7 -6 -12.5 q-6 -5.5 -14 -8 q-8 -2.5 -67 -12.5 l-135 -23 q-77 -14 -116 -18 q-39 -4 -88 -4 q-1 -35 -1 -54 q0 -114 30 -157 q30 -43 97.5 -59.5 q67.5 -16.5 148.5 -16.5 q81 0 154 14.5 q73 14.5 99.5 30 q26.5 15.5 43.5 49.5 q17 34 33 104 q11 47 23.5 47 q12.5 0 15.5 -54.5 q3 -54.5 7.5 -88 q4.5 -33.5 16.5 -44.5 q12 -11 12 -25 q0 -43 -124 -78.5 q-124 -35.5 -246 -35.5 q-122 0 -217 29 q-95 29 -133 87 q-38 58 -38 173 q0 46 8.5 130.5 q8.5 84.5 8.5 126.5 q0 42 -9.5 58.5 q-9.5 16.5 -9.5 29 q0 12.5 20.5 12.5 q20.5 0 69.5 -22 ZM466 414 q115 23 126 42 q25 83 25 134 q0 18 -6 21 q-6 3 -18 1 l-132 -24 q45 -16 45 -36 q0 -7 -6 -18 q-13 -25 -34 -120 ZM403 578 q-67 -12 -104 -20 q-18 -63 -26 -175 q74 8 133 19 q9 58 9 99.5 q0 41.5 -12 76.5 Z" /><glyph glyph-name="" unicode="&#x628a;" d="M301 447 q-53 -17 -86 -17 q-33 0 -56 6.5 q-23 6.5 -23 14.5 q0 13 50.5 23.5 q50.5 10.5 114.5 35.5 q-1 143 -8.5 173 q-7.5 30 -21.5 46 q-14 16 -14 28.5 q0 12.5 17.5 12.5 q17.5 0 59.5 -15.5 q42 -15.5 50 -21 q8 -5.5 8 -16 q0 -10.5 -13 -42 q-13 -31.5 -18 -141.5 q27 9 42 9 q15 0 32.5 -7.5 q17.5 -7.5 17.5 -18.5 q0 -11 -16.5 -20 q-16.5 -9 -75.5 -31 l0 -85 q43 32 59 32 q7 0 7 -6 q0 -15 -67 -75 l0 -199 l1 -66 q0 -65 -24 -97 q-24 -32 -43.5 -32 q-19.5 0 -25.5 17 q-18 48 -44 77 q-26 29 -26 37.5 q0 8.5 10 8.5 q10 0 31 -6.5 q21 -6.5 30 -6.5 q17 0 20.5 22 q3.5 22 8.5 190 q-36 -32 -74 -71.5 q-38 -39.5 -50 -57.5 q-12 -18 -26.5 -18 q-14.5 0 -53.5 21 q-39 21 -39 38 q0 17 36.5 21.5 q36.5 4.5 75.5 30 q39 25.5 133 95.5 q1 44 1 111 ZM537 527 q70 18 131.5 42.5 q61.5 24.5 77.5 38.5 q16 14 34.5 14 q18.5 0 70 -31 q51.5 -31 51.5 -47 q0 -11 -26 -32 q-42 -34 -76 -121 q25 -13 25 -32.5 q0 -19.5 -29 -24.5 q-87 -14 -149.5 -30.5 q-62.5 -16.5 -110.5 -23.5 q-1 -37 4 -86 q5 -49 22 -75.5 q17 -26.5 32.5 -34.5 q15.5 -8 58 -16 q42.5 -8 79.5 -8 q37 0 82.5 10 q45.5 10 64 37.5 q18.5 27.5 30 81 q11.5 53.5 21.5 53.5 q10 0 13.5 -55 q3.5 -55 8 -78 q4.5 -23 14.5 -31.5 q10 -8.5 10 -22.5 q0 -37 -90 -56 q-90 -19 -164 -19 q-116 0 -180 50 q-64 50 -64 196 q0 36 3 77 q3 41 3 74 q0 98 -11 118.5 q-11 20.5 -11 33.5 q0 13 18.5 13 q18.5 0 56.5 -15 ZM663 355 q39 12 55.5 19.5 q16.5 7.5 21.5 16 q5 8.5 14 58 q9 49.5 9 74 q0 24.5 -13.5 24.5 q-13.5 0 -89.5 -24 q40 -21 40 -36 q0 -6 -7 -17 q-18 -29 -30 -115 ZM610 508 q-19 -5 -59 -17 q-9 -68 -14 -168 q32 6 75 17 q8 70 8 107.5 q0 37.5 -10 60.5 Z" /><glyph glyph-name="" unicode="&#x7238;" d="M592 761 q25 0 91.5 -14.5 q66.5 -14.5 90 -39 q23.5 -24.5 23.5 -52 q0 -27.5 -10 -40 q-10 -12.5 -24 -12.5 q-11 0 -31.5 14.5 q-20.5 14.5 -78 62.5 q-57.5 48 -67.5 58.5 q-10 10.5 -10 16.5 q0 6 16 6 ZM438 682 q0 -10 -18 -17.5 q-18 -7.5 -45 -24 q-27 -16.5 -41 -27.5 q-43 -34 -94 -56.5 q-51 -22.5 -67 -22.5 q-10 0 -10 7 q0 7 21 21 q61 42 102.5 88 q41.5 46 42.5 62 q2 45 17 45 q15 0 53.5 -31 q38.5 -31 38.5 -44 ZM507 510 q-113 -100 -243.5 -156 q-130.5 -56 -193.5 -56 q-16 0 -16 6 q0 6 28 18 q229 94 366 224 q-42 24 -84 30 q-42 6 -42 15.5 q0 9.5 23.5 20 q23.5 10.5 40.5 10.5 q17 0 36.5 -8.5 q19.5 -8.5 59.5 -34.5 q46 52 46 87 q0 35 15.5 35 q15.5 0 53.5 -29 q38 -29 38 -41.5 q0 -12.5 -20 -24.5 q-20 -12 -72 -63 q115 -66 213.5 -106.5 q98.5 -40.5 217.5 -60.5 q37 -6 37 -17 q0 -15 -87 -30.5 q-87 -15.5 -107.5 -15.5 q-20.5 0 -33 4.5 q-12.5 4.5 -28.5 16.5 q-194 143 -248 176 ZM364 351 q64 5 125 17.5 q61 12.5 80.5 23 q19.5 10.5 33 10.5 q13.5 0 65 -26.5 q51.5 -26.5 51.5 -39 q0 -12.5 -17 -24.5 q-37 -27 -55 -81 q27 -21 27 -39.5 q0 -18.5 -31 -18.5 q-24 0 -92 -6.5 q-68 -6.5 -98.5 -12 q-30.5 -5.5 -51.5 -5.5 q-21 0 -38 3 q0 -58 15 -81.5 q15 -23.5 59 -38.5 q44 -15 105 -15 q61 0 112.5 10.5 q51.5 10.5 74 23.5 q22.5 13 34 37 q11.5 24 21 71.5 q9.5 47.5 21.5 47.5 q12 0 15.5 -52 q3.5 -52 7.5 -74.5 q4 -22.5 15 -36 q11 -13.5 11 -26.5 q0 -34 -96 -52.5 q-96 -18.5 -182 -18.5 q-113 0 -194.5 31.5 q-81.5 31.5 -81.5 163.5 l6 124 q0 43 -9 57 q-9 14 -9 24 q0 14 21 14 q21 0 55 -10 ZM502 206 q46 8 56.5 11.5 q10.5 3.5 17.5 8 q7 4.5 12.5 40.5 q5.5 36 5.5 51 q0 15 -3.5 18 q-3.5 3 -12.5 3 q-9 0 -69 -8 q21 -15 21 -25 q0 -10 -5 -18 q-15 -24 -23 -81 ZM441 320 q-21 -2 -62 -9 q1 -23 -5 -42 q-7 -31 -9 -78 q36 3 83 8 q4 31 4 59.5 q0 28.5 -11 61.5 Z" /><glyph glyph-name="" unicode="&#x767d;" d="M309 481 q119 160 119 227 q0 8 -5 21 q-5 13 -5 26 q0 23 24 23 q24 0 81 -31.5 q57 -31.5 57 -45.5 q0 -14 -27 -30 q-27 -16 -62.5 -51.5 q-35.5 -35.5 -124.5 -132.5 q273 33 325 63 q23 14 37.5 14 q14.5 0 59 -26.5 q44.5 -26.5 64 -41.5 q19.5 -15 19.5 -26 q0 -11 -19.5 -33 q-19.5 -22 -32.5 -73.5 q-13 -51.5 -24 -145.5 q-16 -123 -48.5 -181 q-32.5 -58 -56 -58 q-23.5 0 -42.5 77 q-5 21 -14.5 28.5 q-9.5 7.5 -32.5 7.5 q-23 0 -67 -5 q-131 -15 -217 -14 q0 -31 -7.5 -46.5 q-7.5 -15.5 -20 -15.5 q-12.5 0 -25.5 22.5 q-13 22.5 -18 58.5 q-32 221 -43 274.5 q-11 53.5 -33 83.5 q-9 13 -9 22 q0 15 23.5 15 q23.5 0 61.5 -12 l63 6 ZM296 301 q104 11 163.5 30 q59.5 19 91 19 q31.5 0 59 -11.5 q27.5 -11.5 27.5 -23.5 q0 -12 -16.5 -20.5 q-16.5 -8.5 -116.5 -21.5 q-100 -13 -204 -12 l15 -144 q220 34 258 34 q38 0 51.5 -6 q13.5 -6 27 -19.5 q13.5 -13.5 18.5 -13.5 q15 0 33 94.5 q18 94.5 18 183.5 q0 55 -9 70.5 q-9 15.5 -41.5 15.5 q-32.5 0 -115.5 -11 q-215 -28 -275 -32 l16 -132 Z" /><glyph glyph-name="" unicode="&#x534a;" d="M495 403 q-101 -12 -134.5 -12 q-33.5 0 -63 8.5 q-29.5 8.5 -29.5 17 q0 8.5 41 13.5 q71 7 186 29 q0 32 -2 107 q-2 75 -7 114 q-5 39 -25 62.5 q-20 23.5 -20 34.5 q0 11 20 11 q20 0 75 -19 q55 -19 55 -45 q0 -8 -6.5 -26 q-6.5 -18 -9.5 -63.5 q-3 -45.5 -3 -158.5 q78 24 111 24 q33 0 58 -11.5 q25 -11.5 25 -21.5 q0 -10 -13.5 -17 q-13.5 -7 -70.5 -18.5 q-57 -11.5 -110 -18.5 l2 -98 q127 17 189 30 q62 13 94 13 q32 0 72 -27 q40 -27 40 -43 q0 -21 -54 -21 q-13 0 -28 1 q-56 5 -140 5 q-84 0 -173 -7 q3 -217 -13.5 -302.5 q-16.5 -85.5 -32.5 -85.5 q-9 0 -17.5 34.5 q-8.5 34.5 -12 91.5 q-3.5 57 -3.5 255 q-161 -17 -259 -43 q-40 -11 -57.5 -11 q-17.5 0 -52 17.5 q-34.5 17.5 -34.5 28.5 q0 11 35 12 q76 3 368 41 l0 99 ZM716 727 q18 0 66.5 -29.5 q48.5 -29.5 48.5 -42.5 q0 -13 -23 -21 q-48 -17 -74 -34 q-40 -26 -78 -42 q-38 -16 -46.5 -16 q-8.5 0 -8.5 4 q0 7 26.5 33.5 q26.5 26.5 43 46 q16.5 19.5 23 33.5 q6.5 14 6.5 24 l-1 18 q0 26 17 26 ZM306 627 q18 0 56.5 -9 q38.5 -9 53 -24 q14.5 -15 14.5 -42.5 q0 -27.5 -8.5 -38.5 q-8.5 -11 -22.5 -11 q-14 0 -27.5 10 q-13.5 10 -34 31 q-20.5 21 -37 42.5 q-16.5 21.5 -16.5 31.5 q0 10 22 10 Z" /><glyph glyph-name="" unicode="&#x529e;" d="M534 510 q-38 -201 -113 -321 q-75 -120 -168.5 -177 q-93.5 -57 -120.5 -57 q-9 0 -9 6 q0 10 26 28 q130 94 202.5 214.5 q72.5 120.5 105.5 292.5 q-40 -8 -74 -18 q-34 -10 -54 -10 q-20 0 -53.5 19 q-33.5 19 -33.5 29 q0 5 7 8.5 q7 3.5 43 3.5 q67 0 174 15 q11 67 11 118.5 q0 51.5 -16.5 74.5 q-16.5 23 -16.5 37.5 q0 14.5 18 14.5 q18 0 77 -28 q59 -28 59 -44 q0 -8 -13.5 -25.5 q-13.5 -17.5 -22 -44 q-8.5 -26.5 -20.5 -90.5 q73 13 95 27 q22 14 39 14 q17 0 62 -31 q45 -31 45 -46 q0 -8 -16.5 -26 q-16.5 -18 -22 -41 q-5.5 -23 -10.5 -68 q-16 -170 -34 -257 q-18 -87 -66 -137 q-48 -50 -77 -50 q-23 0 -26 26 q-3 26 -16.5 50.5 q-13.5 24.5 -38.5 53 q-25 28.5 -25 37.5 q0 9 10 9 q10 0 47 -15.5 q37 -15.5 54.5 -15.5 q17.5 0 29 15 q11.5 15 28 66 q16.5 51 29.5 136.5 q13 85.5 13 172.5 q0 28 -7.5 36.5 q-7.5 8.5 -26 8.5 q-18.5 0 -94.5 -11 ZM273 423 q10 0 16.5 -19 q6.5 -19 6.5 -44 q0 -65 -40.5 -123.5 q-40.5 -58.5 -71.5 -58.5 q-19 0 -26 24 q-7 24 -7 44.5 q0 20.5 6 32 q6 11.5 27 24.5 q21 13 36.5 33.5 q15.5 20.5 27.5 53.5 q12 33 25 33 ZM754 376 q21 0 96.5 -28 q75.5 -28 95.5 -54 q20 -26 20 -71 q0 -21 -8 -33 q-8 -12 -24 -12 q-16 0 -37 23 q-54 61 -133 138 q-22 21 -22 29 q0 8 12 8 Z" /><glyph glyph-name="" unicode="&#x5305;" d="M311 523 q-41 -38 -87 -66 q-46 -28 -61 -28 q-5 0 -5 4 q0 11 31 38 q53 46 112 132 q59 86 59 131 q0 6 -2 15.5 q-2 9.5 -2 18.5 q0 20 16 20 q16 0 60.5 -33.5 q44.5 -33.5 44.5 -48.5 q0 -10 -22 -25 q-29 -20 -61 -63 q-32 -43 -55 -67 q60 -2 153 18 q93 20 139 44 q15 8 33 8 q18 0 65.5 -27 q47.5 -27 47.5 -42 q0 -9 -14.5 -26.5 q-14.5 -17.5 -21 -36.5 q-6.5 -19 -10.5 -54 q-16 -149 -54 -213.5 q-38 -64.5 -64 -64.5 q-17 0 -27.5 30 q-10.5 30 -43.5 68 q-14 16 -14 25 q0 9 11.5 9 q11.5 0 33.5 -8.5 q22 -8.5 32.5 -8.5 q10.5 0 18.5 17 q8 17 18 70 q10 53 10 92 q0 39 -1 59.5 q-1 20.5 -9 27 q-8 6.5 -28 6.5 q-20 0 -80 -10 q-60 -10 -136 -29 q-18 -5 -36 -5 q-18 0 -51 23 ZM292 408 q85 0 143 33 q14 8 29 8 q15 0 49 -18.5 q34 -18.5 34 -28 q0 -9.5 -22 -24.5 q-42 -28 -60 -76 q26 -19 26 -34.5 q0 -15.5 -21 -18.5 q-52 -8 -98 -16.5 q-46 -8.5 -58 -8.5 q-12 0 -22 1 q-3 -93 17.5 -127 q20.5 -34 89.5 -51.5 q69 -17.5 160 -17.5 q109 0 181.5 17 q72.5 17 93 44 q20.5 27 43.5 123 q11 44 22 44 q11 0 13.5 -57.5 q2.5 -57.5 7 -83 q4.5 -25.5 20.5 -45.5 q16 -20 16 -33 q0 -32 -108 -61.5 q-108 -29.5 -258 -29.5 q-150 0 -227 27.5 q-77 27.5 -104.5 80.5 q-27.5 53 -27.5 171 l2 76 q0 52 -11 78 q-11 26 -11 35.5 q0 9.5 16.5 9.5 q16.5 0 64.5 -17 ZM294 263 q59 8 100 26 q13 15 20 40.5 q7 25.5 7 41 q0 15.5 -16 15.5 q-25 0 -65 -12 q-19 -5 -36 -4 q-1 -24 -4.5 -40 q-3.5 -16 -5.5 -67 Z" /><glyph glyph-name="" unicode="&#x5317;" d="M622 358 q46 34 77.5 70 q31.5 36 35.5 54 q8 44 23.5 44 q15.5 0 56 -35 q40.5 -35 40.5 -48.5 q0 -13.5 -37 -25.5 q-63 -21 -196 -101 q-2 -113 3.5 -167.5 q5.5 -54.5 50 -66 q44.5 -11.5 77.5 -11.5 q33 0 65 8.5 q32 8.5 43 25.5 q11 17 23 68 q12 51 21 51 q9 0 16.5 -44.5 q7.5 -44.5 12 -61.5 q4.5 -17 9.5 -22 q20 -22 20 -37 q0 -25 -57 -46.5 q-57 -21.5 -131.5 -21.5 q-74.5 0 -128.5 21.5 q-54 21.5 -72 67 q-18 45.5 -18 146.5 q0 7 2.5 123.5 q2.5 116.5 2.5 192.5 q0 129 -20.5 156 q-20.5 27 -20.5 39.5 q0 12.5 17.5 12.5 q17.5 0 56.5 -15.5 q39 -15.5 55 -26.5 q16 -11 16 -25 q0 -14 -12.5 -38.5 q-12.5 -24.5 -20.5 -99 q-8 -74.5 -10 -187.5 ZM381 381 q-29 -9 -72 -27 q-43 -18 -63 -18 q-20 0 -51 14 q-31 14 -31 24.5 q0 10.5 33 13.5 q33 3 59 10 q26 7 76 29 q10 4 22.5 4 q12.5 0 25.5 -2 q0 159 -35 206 q-16 22 -16 34 q0 12 17.5 12 q17.5 0 54.5 -14.5 q37 -14.5 50 -23.5 q13 -9 13 -20.5 q0 -11.5 -7 -30.5 q-7 -19 -10.5 -92 q-3.5 -73 -3.5 -203.5 q0 -130.5 -1 -193 q-1 -62.5 -3.5 -85.5 q-2.5 -23 -12 -41.5 q-9.5 -18.5 -22.5 -18.5 q-13 0 -31 27.5 q-18 27.5 -18 56.5 q0 29 14 71 q5 16 6 50 q-105 -66 -152 -116 q-16 -17 -29 -17 q-13 0 -50 36 q-37 36 -37 48.5 q0 12.5 39 12.5 q78 0 232 81 q4 101 3 173 Z" /><glyph glyph-name="" unicode="&#x8d1d;" d="M390 664 q117 16 197 33 q80 17 99 28 q19 11 38 11 q19 0 67 -31 q48 -31 48 -51 q0 -14 -21 -38.5 q-21 -24.5 -21 -143.5 l5 -167 q0 -83 -14 -115 q-14 -32 -30 -32 q-13 0 -32.5 23 q-19.5 23 -19.5 54 q0 24 7 64 q11 62 11 157.5 q0 95.5 -4 142.5 q-4 47 -7.5 55 q-3.5 8 -16 8 q-12.5 0 -86.5 -6.5 q-74 -6.5 -200 -28.5 q0 -333 -10 -395.5 q-10 -62.5 -32 -62.5 q-15 0 -36.5 29.5 q-21.5 29.5 -21.5 48.5 q0 19 12 43 q19 40 19 173.5 q0 133.5 -21 165.5 q-16 25 -16 37 q0 12 19.5 12 q19.5 0 66.5 -14 ZM620 521 q0 -8 -11 -34 q-11 -26 -21 -130 q-10 -104 -38.5 -173 q-28.5 -69 -84.5 -119 q-56 -50 -138.5 -83 q-82.5 -33 -117.5 -33 q-10 0 -10 4 q0 10 43 32 q114 58 177.5 125 q63.5 67 81.5 168.5 q18 101.5 18 163 q0 61.5 -10 77.5 q-19 28 -19 41 q0 13 16.5 13 q16.5 0 65 -17 q48.5 -17 48.5 -35 ZM598 166 q23 0 116 -38 q93 -38 119 -66.5 q26 -28.5 26 -81 q0 -52.5 -27 -52.5 q-17 0 -43 22 q-26 22 -89.5 85 q-63.5 63 -87.5 89.5 q-24 26.5 -24 34 q0 7.5 10 7.5 Z" /><glyph glyph-name="" unicode="&#x672c;" d="M439 490 q-76 -16 -112.5 -16 q-36.5 0 -65 10 q-28.5 10 -28.5 17 q0 7 55.5 12 q55.5 5 193.5 33 q-2 147 -9.5 174 q-7.5 27 -20.5 41 q-13 14 -13 26 q0 12 19.5 12 q19.5 0 56.5 -14.5 q37 -14.5 50.5 -23.5 q13.5 -9 13.5 -19 q0 -10 -12.5 -33 q-12.5 -23 -18.5 -148 q30 7 46 12 q81 26 108.5 26 q27.5 0 55.5 -16.5 q28 -16.5 28 -27.5 q0 -17 -68.5 -24.5 q-68.5 -7.5 -170.5 -22.5 l-1 -26 q134 -154 217.5 -219 q83.5 -65 198.5 -106 q41 -14 41 -25 q0 -5 -9.5 -9 q-9.5 -4 -66.5 -6.5 q-57 -2.5 -91 -2.5 q-34 0 -55.5 7.5 q-21.5 7.5 -37 25.5 q-15.5 18 -76 100.5 q-60.5 82.5 -122.5 172.5 q-2 -111 0 -249 q43 12 71 12 q28 0 53.5 -13.5 q25.5 -13.5 25.5 -24.5 q0 -18 -62 -22 l-87 -6 q0 -92 -6 -143 q-6 -51 -14 -66.5 q-8 -15.5 -23.5 -15.5 q-15.5 0 -42 33.5 q-26.5 33.5 -26.5 54.5 q0 21 21 64 q8 15 14 67 q-34 -4 -72.5 -4 q-38.5 0 -61 10 q-22.5 10 -22.5 18 q0 8 39 8 q39 0 122 14 q9 105 9 272 q-54 -110 -138.5 -196 q-84.5 -86 -158.5 -127.5 q-74 -41.5 -93 -41.5 q-5 0 -5 3 q0 8 24 26 q220 168 327 397 Z" /><glyph glyph-name="" unicode="&#x6bd4;" d="M608 424 q120 78 126 104 q13 47 30.5 47 q17.5 0 54.5 -43.5 q37 -43.5 37 -56.5 q0 -12 -36 -20 q-61 -15 -100.5 -28.5 q-39.5 -13.5 -113.5 -46.5 q-4 -86 -4 -136 q0 -50 7.5 -74.5 q7.5 -24.5 28.5 -40.5 q21 -16 67 -20.5 q46 -4.5 74.5 -4.5 q28.5 0 50.5 4.5 q22 4.5 30.5 11.5 q8.5 7 16.5 27.5 q8 20.5 21 68.5 q13 48 25 48 q9 0 10 -22 q4 -76 9.5 -104 q5.5 -28 15.5 -43 q10 -15 10 -28 q0 -30 -47.5 -42.5 q-47.5 -12.5 -102.5 -12.5 q-55 0 -111 8 q-56 8 -86.5 22 q-30.5 14 -50.5 38 q-20 24 -26.5 63 q-6.5 39 -6.5 137 q0 98 3.5 186 q3.5 88 3.5 126 q0 38 -5 66 q-5 28 -23.5 52.5 q-18.5 24.5 -18.5 39 q0 14.5 19 14.5 q19 0 61 -17.5 q42 -17.5 58 -28 q16 -10.5 16 -22.5 q0 -12 -15 -39.5 q-15 -27.5 -28 -232.5 ZM284 443 q121 35 145.5 35 q24.5 0 43.5 -9.5 q19 -9.5 19 -20.5 q-1 -19 -67 -30.5 q-66 -11.5 -95 -11.5 q-29 0 -48 1 q-7 -87 -10 -255 q116 78 152.5 97.5 q36.5 19.5 46.5 19.5 q8 0 8 -8 q0 -8 -23 -30 q-171 -161 -192.5 -199 q-21.5 -38 -38 -38 q-16.5 0 -43 40.5 q-26.5 40.5 -26.5 55.5 q0 14 25 30 q20 13 27.5 67.5 q7.5 54.5 7.5 205.5 q0 97 -5 126.5 q-5 29.5 -23 51 q-18 21.5 -18 36 q0 14.5 23 14.5 q23 0 67 -16.5 q44 -16.5 44 -42.5 q0 -12 -10 -35 q-3 -8 -10 -84 Z" /><glyph glyph-name="" unicode="&#x7b14;" d="M656 669 q44 0 100 19 q26 9 44.5 9 q18.5 0 39 -8.5 q20.5 -8.5 20.5 -18.5 q0 -18 -59 -28 q-59 -10 -96.5 -10 q-37.5 0 -67.5 10 q-39 -53 -86.5 -88.5 q-47.5 -35.5 -62.5 -35.5 q-5 0 -5 6 q0 6 17 25 q47 54 75 105 q28 51 28 78 q0 8 -7 19 q-7 11 -7 22 q0 11 16.5 11 q16.5 0 58.5 -16.5 q42 -16.5 42 -31.5 q0 -8 -14.5 -22 q-14.5 -14 -35.5 -45 ZM357 645 q24 1 62.5 12.5 q38.5 11.5 51.5 11.5 q13 0 29.5 -8.5 q16.5 -8.5 16.5 -18 q0 -9.5 -8 -16 q-8 -6.5 -47.5 -12.5 q-39.5 -6 -72 -6 q-32.5 0 -51.5 7 q-53 -76 -105.5 -112 q-52.5 -36 -71.5 -36 q-4 0 -4 3 q0 8 23 31 q52 52 86 113 q34 61 34 90 q0 7 -7 19.5 q-7 12.5 -7 23.5 q0 11 17.5 11 q17.5 0 60.5 -14.5 q43 -14.5 43 -33.5 q0 -10 -15 -22.5 q-15 -12.5 -35 -42.5 ZM619 584 q0 9 34 9 q90 0 90 -60 q0 -29 -25.5 -29 q-25.5 0 -62 34 q-36.5 34 -36.5 46 ZM335 575 q22 0 56.5 -13 q34.5 -13 34.5 -46 q0 -14 -9 -23 q-9 -9 -22 -9 q-26 0 -50 36 q-24 36 -24 45.5 q0 9.5 14 9.5 ZM412 399 q-66 -13 -103 -13 q-51 0 -51 8.5 q0 8.5 39 17.5 q109 25 177 53 q68 28 70 44 q4 25 20 25 q16 0 50.5 -24 q34.5 -24 34.5 -37.5 q0 -13.5 -33 -19.5 q-9 -1 -45.5 -12 q-36.5 -11 -99.5 -28 q37 -14 37 -27 q0 -5 -4.5 -14 q-4.5 -9 -9.5 -21 q22 7 49.5 17.5 q27.5 10.5 47.5 10.5 q20 0 44 -9.5 q24 -9.5 24 -21.5 q0 -12 -33.5 -16.5 q-33.5 -4.5 -141.5 -25.5 q-4 -43 -3 -77 q115 24 170 45 q22 8 41.5 8 q19.5 0 47 -14 q27.5 -14 27.5 -28 q0 -23 -89.5 -28.5 q-89.5 -5.5 -196.5 -25.5 q2 -99 46.5 -119.5 q44.5 -20.5 114.5 -20.5 q70 0 121 11.5 q51 11.5 73.5 25 q22.5 13.5 33 40 q10.5 26.5 23 85.5 q12.5 59 23.5 59 q11 0 14 -52 q7 -117 20.5 -133 q13.5 -16 13.5 -31 q0 -37 -90 -65 q-90 -28 -205 -28 q-67 0 -132.5 18 q-65.5 18 -92.5 63.5 q-27 45.5 -28 133.5 q-85 -16 -190 -46 q-29 -9 -46 -9 q-17 0 -51.5 22 q-34.5 22 -34.5 31 q0 9 45 11 q113 7 277 35 q1 56 2 75 q-87 -20 -101.5 -20 q-14.5 0 -41.5 11 q-27 11 -27 20.5 q0 9.5 42 10.5 q42 1 131 19 q2 42 -9 66 Z" /><glyph glyph-name="" unicode="&#x8fb9;" d="M640 504 q-28 -136 -74.5 -214.5 q-46.5 -78.5 -109.5 -121 q-63 -42.5 -83 -42.5 q-7 0 -7 6.5 q0 6.5 18 23.5 q77 74 116.5 148.5 q39.5 74.5 62.5 179.5 q-47 -13 -71.5 -21 q-24.5 -8 -37 -8 q-12.5 0 -36.5 18 q-24 18 -24 24.5 q0 6.5 10 9.5 q10 3 50.5 3 q40.5 0 117.5 17 q12 63 12 113.5 q0 50.5 -18 74.5 q-18 24 -18 36.5 q0 12.5 18.5 12.5 q18.5 0 76.5 -24.5 q58 -24.5 58 -42.5 q0 -9 -12.5 -25.5 q-12.5 -16.5 -20 -39 q-7.5 -22.5 -20.5 -87.5 q62 16 80 32 q13 12 29.5 12 q16.5 0 61.5 -27 q45 -27 45 -44 q0 -10 -18 -30 q-18 -20 -24 -71 q-12 -114 -24 -176 q-12 -62 -47.5 -97 q-35.5 -35 -57.5 -35 q-22 0 -27 33 q-3 19 -20 43 q-17 24 -35 36.5 q-18 12.5 -18 20.5 q0 8 11.5 8 q11.5 0 36.5 -6 q25 -6 39 -6 q14 0 22 10 q8 10 18.5 39.5 q10.5 29.5 18.5 83 q8 53.5 8 91 q0 37.5 -3.5 47.5 q-3.5 10 -17.5 10 q-20 0 -86 -15 ZM226 679 q77 0 108 -20 q31 -20 31 -69 q0 -21 -8.5 -33 q-8.5 -12 -22.5 -12 q-25 0 -80 56.5 q-55 56.5 -55 68.5 q0 9 27 9 ZM275 139 q3 47 -23 93 q-18 32 -18 52.5 q0 20.5 12.5 54 q12.5 33.5 12.5 41 q0 7.5 -7.5 7.5 q-7.5 0 -33 -14.5 q-25.5 -14.5 -45 -14.5 q-19.5 0 -41 10 q-21.5 10 -21.5 19 q0 9 28.5 11 q28.5 2 60.5 17 q32 15 47.5 32.5 q15.5 17.5 29.5 17.5 q14 0 55 -21 q41 -21 41 -30 q0 -9 -20 -23 q-67 -47 -67 -95 q0 -23 21 -47 q21 -24 21 -52 q0 -28 -14 -63 q28 -4 69 -19 q128 -43 203.5 -54.5 q75.5 -11.5 151.5 -11.5 q76 0 133 3 l97 4 q31 0 31 -9 q0 -6 -11 -13.5 q-11 -7.5 -77 -36 q-66 -28.5 -108 -43.5 q-42 -15 -62.5 -15 q-20.5 0 -36 4.5 q-15.5 4.5 -109.5 38.5 l-161 59 q-107 40 -149 40 q-42 0 -73.5 -11.5 q-31.5 -11.5 -51.5 -11.5 q-20 0 -45.5 17 q-25.5 17 -25.5 28 q0 11 46.5 14 q46.5 3 90.5 15 q28 7 49 7 Z" /><glyph glyph-name="" unicode="&#x53d8;" d="M459 781 q24 0 68 -9.5 q44 -9.5 54 -30.5 q10 -21 10 -38 q0 -17 -10 -26.5 q-10 -9.5 -25 -9.5 q-29 0 -73.5 45 q-44.5 45 -44.5 57 q0 12 21 12 ZM555 601 q-46 -4 -107 -11 q28 -19 28 -30.5 q0 -11.5 -5.5 -23 q-5.5 -11.5 -7 -26.5 q-1.5 -15 -1.5 -63.5 q0 -48.5 -9.5 -73.5 q-9.5 -25 -24 -25 q-14.5 0 -28 21 q-13.5 21 -13.5 37 q0 16 7 39.5 q7 23.5 7 64 q0 40.5 -10 74.5 q-74 -10 -102.5 -18 q-28.5 -8 -49 -8 q-20.5 0 -44.5 16 q-24 16 -24 23.5 q0 7.5 11.5 9.5 q11.5 2 53 2 q41.5 0 234 24.5 q192.5 24.5 249.5 39 q57 14.5 83.5 14.5 q26.5 0 55 -23.5 q28.5 -23.5 28.5 -37.5 q0 -19 -46 -19 q-18 0 -38 2.5 q-20 2.5 -56 2.5 q-36 0 -139 -7 q33 -19 33 -29.5 q0 -10.5 -5.5 -22 q-5.5 -11.5 -8.5 -44.5 q-3 -33 -1.5 -50.5 q1.5 -17.5 1.5 -40.5 q0 -23 -8 -44.5 q-8 -21.5 -22.5 -21.5 q-14.5 0 -32.5 22 q-18 22 -18 35 q0 13 9.5 32 q9.5 19 9.5 65.5 q0 46.5 -9 94.5 ZM309 524 q8 0 15 -18 q7 -18 7 -42.5 q0 -24.5 -16.5 -60.5 q-16.5 -36 -40 -55 q-23.5 -19 -40.5 -19 q-30 0 -30 51 q0 26 24 44 q31 23 59 76 q13 24 22 24 ZM689 522 q29 0 79 -9.5 q50 -9.5 64 -31 q14 -21.5 14 -57.5 q0 -36 -26 -36 q-26 0 -89 56.5 q-63 56.5 -63 69.5 q0 8 21 8 ZM534 82 q-129 -107 -341 -107 q-40 0 -40 10 q0 10 33 17 q112 22 176.5 50 q64.5 28 115.5 73 q-61 45 -93.5 61.5 q-32.5 16.5 -66 23 q-33.5 6.5 -33.5 18.5 q0 7 14.5 12.5 q14.5 5.5 38.5 5.5 q24 0 61 -18 q37 -18 117 -67 q31 30 51 69 q20 39 20 47.5 q0 8.5 -8.5 8.5 q-8.5 0 -36 -5.5 q-27.5 -5.5 -65.5 -17 q-38 -11.5 -61.5 -11.5 q-23.5 0 -50.5 16.5 q-27 16.5 -27 23.5 q0 7 53 8.5 q53 1.5 113 14.5 q60 13 85 26 q21 10 38 10 q17 0 53 -26 q36 -26 36 -37.5 q0 -11.5 -20 -21.5 q-30 -15 -56.5 -59.5 q-26.5 -44.5 -61.5 -83.5 q105 -63 171 -86 q66 -23 203 -44 q35 -6 35 -17 q0 -7 -15 -13 q-15 -6 -93 -22 q-78 -16 -113.5 -16 q-35.5 0 -64.5 24 l-167 133 Z" /><glyph glyph-name="" unicode="&#x4e0d;" d="M567 597 q-140 -13 -229 -40 q-45 -13 -64 -13 q-19 0 -55 21 q-36 21 -36 30.5 q0 9.5 8.5 12 q8.5 2.5 36.5 2.5 q75 0 256.5 24 q181.5 24 241.5 40 q60 16 89 16 q29 0 63.5 -24 q34.5 -24 34.5 -41 q0 -22 -50 -22 q-10 0 -33.5 2.5 q-23.5 2.5 -80 2.5 q-56.5 0 -130.5 -6 q58 -42 58 -58 q0 -9 -20 -20.5 q-20 -11.5 -38.5 -34.5 q-18.5 -23 -55.5 -71 q7 -27 7 -222 q0 -195 -10.5 -229 q-10.5 -34 -28.5 -34 q-18 0 -45 34 q-27 34 -27 50 q0 16 14 51 q14 35 17 72 q3 37 3 86 q0 49 -1 107 q-104 -119 -219 -180 q-115 -61 -141 -61 q-10 0 -10 6 q0 12 29 30 q200 127 335 305 q-5 20 -21 42 q-16 22 -16 32.5 q0 10.5 13 10.5 q13 0 33.5 -7 q20.5 -7 32.5 -19 q36 59 39 105 ZM625 367 q25 0 144 -50 q119 -50 140 -87 q21 -37 21 -82 q0 -47 -27.5 -47 q-27.5 0 -66.5 40 q-18 19 -61 59 l-130 122 q-30 28 -30 36.5 q0 8.5 10 8.5 Z" /><glyph glyph-name="" unicode="&#x6b65;" d="M584 644 q61 21 94.5 31 q33.5 10 54 10 q20.5 0 44 -7.5 q23.5 -7.5 23.5 -18.5 q0 -21 -82 -38 q-82 -17 -136 -13 l-8 -118 q201 30 237 41 q20 5 37 5 q36 0 68 -21.5 q32 -21.5 32 -36.5 q0 -21 -52 -21 q-15 0 -36 2 q-21 2 -56 2 q-103 0 -272 -18 q56 -21 56 -42 q0 -6 -4 -15 q-13 -29 -13 -80 l3 -73 q0 -32 -9 -55.5 q-9 -23.5 -23.5 -23.5 q-14.5 0 -32 22 q-17.5 22 -17.5 35 q0 13 8.5 33 q8.5 20 8.5 65 q0 71 -18 129 q-83 -12 -159 -26.5 q-76 -14.5 -102.5 -24.5 q-26.5 -10 -45 -10 q-18.5 0 -48 19 q-29.5 19 -29.5 29 q0 10 51 10 q26 0 201 24 q-8 80 -18 114 q-10 34 -29.5 52 q-19.5 18 -19.5 28.5 q0 10.5 18.5 10.5 q18.5 0 68 -13 q49.5 -13 49.5 -32 q0 -8 -6 -22 q-11 -27 -10 -130 q58 8 101 15 q1 152 -4.5 200 q-5.5 48 -20.5 62 q-23 22 -23 34 q0 12 20.5 12 q20.5 0 58.5 -10.5 q38 -10.5 51.5 -18 q13.5 -7.5 13.5 -18 q0 -10.5 -10 -31 q-10 -20.5 -15 -68.5 ZM814 331 q0 -10 -18 -21 q-30 -18 -48 -46 q-98 -143 -188 -218.5 q-90 -75.5 -199.5 -111 q-109.5 -35.5 -146.5 -35.5 q-16 0 -16 6 q0 11 40 27 q83 34 145.5 69.5 q62.5 35.5 110.5 76.5 q48 41 89.5 92.5 q41.5 51.5 71.5 100 q30 48.5 40 70 q10 21.5 10 38.5 l-1 19 q0 29 16.5 29 q16.5 0 55 -40 q38.5 -40 38.5 -56 ZM376 375 q9 0 14 -21 q5 -21 5 -46 q0 -58 -35 -100 q-35 -42 -59.5 -42 q-24.5 0 -24.5 60 q0 20 5 31.5 q5 11.5 19 21 q14 9.5 28 27.5 q14 18 20 33 q16 36 28 36 Z" /><glyph glyph-name="" unicode="&#x624d;" d="M660 537 q32 5 94 20 q62 15 92 15 q30 0 62.5 -22 q32.5 -22 32.5 -38 q0 -22 -52 -22 l-106 2 q-62 0 -123 -5 q3 -157 8 -268 l7 -169 q0 -56 -28 -105.5 q-28 -49.5 -50.5 -49.5 q-22.5 0 -34.5 29 q-24 55 -92 102 q-31 21 -31 30 q0 9 15 9 q15 0 46 -5 q31 -5 54 -5 q23 0 27.5 17.5 q4.5 17.5 8.5 102.5 q4 85 3 243 q-80 -123 -172.5 -205 q-92.5 -82 -174.5 -118 q-82 -36 -108 -36 q-7 0 -7 3 q0 9 45 36 q91 54 198 162 q107 108 167 214 q-117 -15 -199 -39 q-31 -9 -56.5 -9 q-25.5 0 -58 14.5 q-32.5 14.5 -32.5 28.5 q0 14 44 14 q77 0 353 43 q-1 107 -9.5 151 q-8.5 44 -30 65.5 q-21.5 21.5 -21.5 34.5 q0 13 22.5 13 q22.5 0 78 -17 q55.5 -17 55.5 -41 q0 -11 -13.5 -36.5 q-13.5 -25.5 -13.5 -158.5 Z" /><glyph glyph-name="" unicode="&#x91c7;" d="M560 799 q16 0 73 -31 q57 -31 57 -42.5 q0 -11.5 -31.5 -20 q-31.5 -8.5 -85 -32.5 q-53.5 -24 -137 -50.5 q-83.5 -26.5 -110 -26.5 q-26.5 0 -26.5 7 q0 9 39 25 q85 34 140.5 72 q55.5 38 60.5 68 q3 19 7.5 25 q4.5 6 12.5 6 ZM812 612 q0 -10 -18 -17 q-45 -17 -80 -41 q-35 -24 -80 -46 q-45 -22 -55 -22 q-10 0 -10 4 q0 9 24 30 q95 86 86 121 q-3 11 -3 19 q0 17 18.5 17 q18.5 0 68 -23.5 q49.5 -23.5 49.5 -41.5 ZM543 532 q0 -21 -8 -31.5 q-8 -10.5 -20 -10.5 q-22 0 -48.5 43.5 q-26.5 43.5 -26.5 55 q0 11.5 11.5 11.5 q11.5 0 42.5 -13.5 q31 -13.5 40 -24 q9 -10.5 9 -30.5 ZM268 558 q13 0 47 -10 q34 -10 48 -23.5 q14 -13.5 14 -39 q0 -25.5 -9 -39.5 q-9 -14 -23 -14 q-14 0 -28 18 l-39 53 q-25 34 -25 44.5 q0 10.5 15 10.5 ZM538 394 q76 13 125.5 27 q49.5 14 84 14 q34.5 0 67 -19.5 q32.5 -19.5 32.5 -31.5 q0 -12 -18.5 -17 q-18.5 -5 -38.5 -5 l-58 0 q-69 0 -179 -11 q131 -123 213 -173.5 q82 -50.5 193 -83.5 q54 -16 54 -28.5 q0 -12.5 -86 -19 q-86 -6.5 -113 -6.5 q-27 0 -46.5 5 q-19.5 5 -37 22.5 q-17.5 17.5 -73.5 89.5 l-123 157 q1 -70 5 -165.5 q4 -95.5 4 -111.5 q0 -137 -36 -137 q-17 0 -42.5 35.5 q-25.5 35.5 -25.5 50.5 q0 15 17.5 52.5 q17.5 37.5 17.5 263.5 q-60 -111 -130.5 -176.5 q-70.5 -65.5 -141.5 -95.5 q-71 -30 -92 -30 q-6 0 -6 3 q0 8 32 29 q100 65 167 137 q67 72 115 164 q-90 -13 -125 -23.5 q-35 -10.5 -54 -10.5 q-19 0 -48.5 18 q-29.5 18 -29.5 24.5 q0 6.5 8.5 9 q8.5 2.5 43.5 2.5 q71 0 260 30 q-3 44 -19.5 62 q-16.5 18 -16.5 28.5 q0 10.5 15 10.5 q15 0 60 -13.5 q45 -13.5 45 -26.5 q0 -5 -7 -17.5 q-7 -12.5 -12 -32.5 Z" /><glyph glyph-name="" unicode="&#x5f69;" d="M554 703 q0 -11 -21.5 -18.5 q-21.5 -7.5 -79.5 -31.5 q-58 -24 -114 -37 q-56 -13 -74 -13 q-18 0 -18 7 q0 7 29 19 q64 27 101 50.5 q37 23.5 48 34 q11 10.5 14.5 35 q3.5 24.5 21 24.5 q17.5 0 55.5 -29 q38 -29 38 -41 ZM938 675 q0 -10 -24.5 -25.5 q-24.5 -15.5 -60.5 -53.5 q-80 -86 -148.5 -119.5 q-68.5 -33.5 -77.5 -33.5 q-9 0 -9 2 q0 8 29 30 q55 43 116 123 q61 80 55 115 q-2 9 -2 16 q0 20 16.5 20 q16.5 0 61 -29.5 q44.5 -29.5 44.5 -44.5 ZM558 656 q16 0 50 -27.5 q34 -27.5 34 -42.5 q0 -13 -31 -20.5 q-31 -7.5 -84 -35.5 q-53 -28 -60 -28 q-7 0 -7 4 q0 7 22.5 29 q22.5 22 37 40.5 q14.5 18.5 18.5 28.5 q4 10 4 23 q0 29 16 29 ZM355 601 q13 0 41.5 -5.5 q28.5 -5.5 42.5 -18 q14 -12.5 14 -33 q0 -20.5 -6.5 -30 q-6.5 -9.5 -20.5 -9.5 q-14 0 -50.5 38.5 q-36.5 38.5 -36.5 48 q0 9.5 16 9.5 ZM224 558 q13 0 48 -13 q35 -13 44 -27 q9 -14 9 -33 q0 -19 -9 -29.5 q-9 -10.5 -23 -10.5 q-14 0 -27 17 l-34 46 q-21 28 -21 39 q0 11 13 11 ZM457 425 q68 20 90.5 20 q22.5 0 45.5 -11 q23 -11 23 -22 q0 -20 -68 -23 q-33 -2 -99 -15 q-2 -39 -2 -84 q91 -1 110 -24 q19 -23 19 -48.5 q0 -25.5 -19.5 -25.5 q-19.5 0 -52 21 q-32.5 21 -57.5 46 q0 -166 -1 -211 q-1 -45 -9 -77 q-8 -32 -27 -32 q-19 0 -39 31 q-20 31 -20 49 q0 18 11 47 q22 63 28 208 q-42 -68 -95 -117 q-53 -49 -102.5 -74 q-49.5 -25 -69.5 -25 q-7 0 -7 4 q0 9 29 32 q144 112 220 262 q-126 -29 -165 -46 q-29 -12 -46.5 -12 q-17.5 0 -48 20.5 q-30.5 20.5 -30.5 28.5 q0 8 8.5 11.5 q8.5 3.5 36 3.5 q27.5 0 115 13.5 q87.5 13.5 153.5 29.5 q-4 38 -19 55.5 q-15 17.5 -15 28 q0 10.5 16 10.5 q11 0 54.5 -13.5 q43.5 -13.5 43.5 -26.5 q0 -3 -5.5 -17 q-5.5 -14 -5.5 -17 ZM896 421 q0 -9 -23 -23 q-23 -14 -70.5 -58 q-47.5 -44 -109 -74.5 q-61.5 -30.5 -79.5 -30.5 q-9 0 -9 8 q0 8 26 27 q69 50 117.5 109 q48.5 59 43.5 84 q-1 6 -1 11 q0 23 18 23 q18 0 52.5 -31.5 q34.5 -31.5 34.5 -44.5 ZM932 208 q0 -10 -18 -20 q-18 -10 -31.5 -23.5 q-13.5 -13.5 -47.5 -52.5 q-61 -70 -127.5 -115.5 q-66.5 -45.5 -133 -69.5 q-66.5 -24 -82.5 -24 q-16 0 -16 5 q0 9 39 31 q121 67 213.5 168 q92.5 101 92.5 147 l-1 17 q0 27 16.5 27 q16.5 0 56 -37.5 q39.5 -37.5 39.5 -52.5 Z" /><glyph glyph-name="" unicode="&#x53c2;" d="M649 613 q-84 -16 -184 -40 q51 -25 51 -39 q0 -14 -10 -23 q-10 -9 -16 -21 q112 20 169.5 33 q57.5 13 82 13 q24.5 0 58 -15.5 q33.5 -15.5 33.5 -29.5 q0 -23 -63 -23 l-41 1 q-54 0 -137 -8 q91 -84 172.5 -137 q81.5 -53 208.5 -93 q44 -14 44 -25 q0 -5 -12.5 -9.5 q-12.5 -4.5 -69 -9 q-56.5 -4.5 -84 -4.5 q-27.5 0 -44.5 4 q-17 4 -29.5 12.5 q-12.5 8.5 -48 46 q-35.5 37.5 -76 83 q-40.5 45.5 -109.5 127.5 l-76 -9 q-59 -114 -129 -183.5 q-70 -69.5 -140 -100 q-70 -30.5 -93 -30.5 q-8 0 -8 4 q0 9 37 31 q179 110 251 266 q-40 -8 -71 -16 q-31 -8 -50 -8 q-19 0 -43 13.5 q-24 13.5 -24 20.5 q0 13 56.5 16 q56.5 3 150.5 16 q17 49 17 62.5 q0 13.5 -2 22.5 q-42 -12 -63 -24.5 q-21 -12.5 -31 -12.5 q-10 0 -17.5 33.5 q-7.5 33.5 -7.5 43 q0 9.5 7 13 q7 3.5 31.5 6 q24.5 2.5 44 19.5 q19.5 17 41 55 q21.5 38 21.5 53.5 q0 15.5 -3.5 24 q-3.5 8.5 -3.5 16.5 q0 15 18.5 15 q18.5 0 59 -17.5 q40.5 -17.5 40.5 -32 q0 -14.5 -19 -26.5 q-40 -26 -115 -110 q33 2 200 25 q-12 15 -26 31 q-14 16 -14 24.5 q0 8.5 17 8.5 q17 0 66 -14.5 q49 -14.5 61.5 -35 q12.5 -20.5 12.5 -49.5 q0 -38 -28 -38 q-28 0 -63 44 ZM582 341 q0 -8 -19.5 -21 q-19.5 -13 -60 -55.5 q-40.5 -42.5 -93 -71.5 q-52.5 -29 -75.5 -29 q-7 0 -7 6 q0 6 25 25 q58 41 96.5 91 q38.5 50 38.5 75 q0 4 -2.5 9.5 q-2.5 5.5 -2.5 12.5 q0 16 17 16 q17 0 50 -23.5 q33 -23.5 33 -34.5 ZM561 278 q12 0 42 -21 q30 -21 30 -32 q0 -11 -34 -30 q-20 -14 -65 -51 q-49 -43 -106.5 -68.5 q-57.5 -25.5 -87.5 -25.5 q-9 0 -9 4 q0 7 27.5 23.5 q27.5 16.5 74 50.5 q46.5 34 75 67 q28.5 33 30.5 45 q8 38 23 38 ZM691 102 q0 -13 -28 -28 q-18 -10 -78 -63 q-72 -65 -156.5 -99 q-84.5 -34 -131.5 -34 q-15 0 -15 5 q0 10 44.5 30.5 q44.5 20.5 83.5 45 q39 24.5 74 53.5 q35 29 57 53 q22 24 32 40.5 q10 16.5 10 24.5 l-1 13 q0 28 19.5 28 q19.5 0 54.5 -27 q35 -27 35 -42 Z" /><glyph glyph-name="" unicode="&#x8349;" d="M597 672 q13 47 13 68 q0 12 -6.5 23 q-6.5 11 -6.5 22.5 q0 11.5 20 11.5 q20 0 60.5 -16.5 q40.5 -16.5 40.5 -31.5 q0 -9 -13.5 -21.5 q-13.5 -12.5 -29.5 -44.5 q37 5 76 14 q39 9 65.5 9 q26.5 0 53.5 -20.5 q27 -20.5 27 -33.5 q0 -20 -56 -20 q-18 0 -44 2.5 q-26 2.5 -71 2.5 q-45 0 -75 -1 q-15 -28 -37 -53.5 q-22 -25.5 -31.5 -31.5 q-9.5 -6 -18.5 -6 q-9 0 -9 11 q0 5 9 23.5 q9 18.5 21 51.5 q-59 -5 -150 -15 q0 -8 0.5 -27.5 q0.5 -19.5 -8.5 -34 q-9 -14.5 -18.5 -14.5 q-9.5 0 -19 17 q-9.5 17 -14.5 51 q-58 -9 -100 -19.5 q-42 -10.5 -58.5 -10.5 q-16.5 0 -43.5 18.5 q-27 18.5 -27 26 q0 7.5 44 8.5 q44 1 177 13 q-7 27 -14 44 q-7 17 -25.5 32.5 q-18.5 15.5 -18.5 29 q0 13.5 25 13.5 q11 0 58.5 -10 q47.5 -10 47.5 -25 q0 -4 -5 -18.5 q-5 -14.5 -5 -29.5 q0 -15 2 -29 q96 11 165 21 ZM347 505 q97 5 192 21.5 q95 16.5 116.5 27.5 q21.5 11 38.5 11 q17 0 63.5 -29 q46.5 -29 46.5 -39.5 q0 -10.5 -18.5 -26.5 q-18.5 -16 -29.5 -34.5 q-11 -18.5 -34 -70.5 q-33 -85 -71 -85 q-19 0 -24 18 q-2 5 -27 5 q-25 0 -87 -7 q54 -25 54 -44 q0 -7 -5 -15 q-5 -8 -6 -25 q162 15 223 27 q55 9 83 9 q28 0 62 -22 q34 -22 34 -38 q0 -22 -60 -22 q-1 0 -65 3.5 q-64 3.5 -138.5 3.5 q-74.5 0 -141.5 -4 l0 -71 q0 -108 -16 -165.5 q-16 -57.5 -28.5 -57.5 q-12.5 0 -22 40 q-9.5 40 -9.5 111 l2 138 q-106 -8 -152 -14 q-46 -6 -94.5 -15.5 q-48.5 -9.5 -68.5 -9.5 q-20 0 -50.5 19 q-30.5 19 -30.5 27.5 q0 8.5 10 11.5 q10 3 27 3 l34 0 q85 0 324 19 q3 50 -19 84 q-28 -3 -54 -4 q0 -22 -19 -22 q-30 0 -39 48 q-27 120 -58 160 q-16 22 -16 33.5 q0 11.5 19 11.5 q19 0 55 -11 ZM402 323 q166 24 185.5 24 q19.5 0 26 -3.5 q6.5 -3.5 11.5 -3.5 q5 0 11 11 q6 11 14.5 33 q8.5 22 15 55.5 q6.5 33.5 6.5 42.5 q0 9 -6 12 q-6 3 -20 3 q-72 0 -269 -28 q8 -30 12 -60 q125 31 150.5 31 q25.5 0 44 -7 q18.5 -7 18.5 -16.5 q0 -9.5 -13 -16 q-13 -6.5 -62.5 -12.5 q-49.5 -6 -81.5 -6 q-32 0 -51 1 q6 -41 8 -60 Z" /><glyph glyph-name="" unicode="&#x957f;" d="M431 374 q-4 0 -10 -2 q0 -133 -13 -294 q74 32 101 46.5 q27 14.5 40 14.5 q13 0 13 -10.5 q0 -10.5 -24 -29.5 q-114 -90 -158 -151 q-23 -32 -34 -32 q-13 0 -44 34.5 q-31 34.5 -31 49.5 q0 15 20 27 q20 12 33 34 q13 22 21.5 112.5 q8.5 90.5 11.5 189.5 q-81 -16 -119 -27 q-38 -11 -56 -11 q-18 0 -50 19 q-32 19 -32 30.5 q0 11.5 28 11.5 l25 -1 q51 0 205 22 q1 34 1 67 q0 131 -10 180 q-10 49 -29 67 q-19 18 -19 32.5 q0 14.5 22 14.5 q22 0 61 -15.5 q39 -15.5 53 -25 q14 -9.5 14 -20.5 q0 -11 -9 -35 q-19 -51 -21 -256 q118 17 280 52 q56 13 85 13 q29 0 64.5 -25.5 q35.5 -25.5 35.5 -40.5 q0 -20 -54 -20 l-103 4 q-98 0 -245 -18 q141 -133 232.5 -189 q91.5 -56 217.5 -91 q47 -13 47 -28 q0 -7 -13 -13 q-13 -6 -83 -12 q-70 -6 -97.5 -6 q-27.5 0 -43.5 4 q-16 4 -27 11 q-11 7 -44 43 l-81 91 l-161 183 ZM731 675 q0 -13 -35 -34 q-23 -14 -88 -76 q-65 -62 -110 -85 q-45 -23 -58 -23 q-6 0 -6 5 q0 5 14 19 q146 145 146 200 q0 9 -4 18 q-4 9 -4 18 q0 25 28 25 q19 0 68 -26 q49 -26 49 -41 Z" /><glyph glyph-name="" unicode="&#x8f66;" d="M398 549 q-69 -3 -103.5 9.5 q-34.5 12.5 -34.5 21.5 q0 9 53.5 10 q53.5 1 111.5 9 q50 92 50 132 q0 17 -6 30.5 q-6 13.5 -6 22.5 q0 19 21 19 q21 0 63 -27.5 q42 -27.5 42 -42.5 q0 -9 -18 -24 q-28 -25 -72 -99 q65 12 118.5 22.5 q53.5 10.5 80 10.5 q26.5 0 55 -11.5 q28.5 -11.5 28.5 -24.5 q0 -20 -57 -26 l-258 -27 q-51 -87 -111 -164 q67 1 144 11 q0 64 -12.5 84.5 q-12.5 20.5 -12.5 31 q0 10.5 16.5 10.5 q16.5 0 62 -16 q45.5 -16 45.5 -32 q0 -7 -10.5 -23 q-10.5 -16 -12.5 -45 q106 15 135 15 q29 0 54 -17 q25 -17 25 -28 q0 -19 -52 -19 l-66 1 q-35 0 -99 -3 l-3 -119 q120 14 176.5 23.5 q56.5 9.5 92 9.5 q35.5 0 69.5 -26.5 q34 -26.5 34 -44.5 q0 -18 -35 -18 q-8 0 -18 1 q-74 10 -154 10 q-80 0 -166 -5 q-1 -188 -15 -250.5 q-14 -62.5 -26.5 -62.5 q-12.5 0 -22.5 53.5 q-10 53.5 -10 142.5 l1 112 q-176 -18 -228 -31 q-52 -13 -71.5 -13 q-19.5 0 -52.5 20.5 q-33 20.5 -33 30 q0 9.5 15 12.5 q15 3 72.5 3 q57.5 0 298.5 26 l3 120 q-122 -12 -172 -38 q-27 -15 -42.5 -15 q-15.5 0 -30 32 q-14.5 32 -14.5 41.5 q0 9.5 6.5 14 q6.5 4.5 28 8.5 q21.5 4 34 13.5 q12.5 9.5 31.5 39.5 q19 30 58 99 Z" /><glyph glyph-name="" unicode="&#x5c18;" d="M610 700 q0 -8 -9 -26 q-17 -34 -17 -115 l3 -114 q0 -27 -6.5 -58.5 q-6.5 -31.5 -23 -31.5 q-16.5 0 -39.5 25.5 q-23 25.5 -23 41.5 q0 16 11 36 q11 20 11 56.5 q0 36.5 -5.5 108 q-5.5 71.5 -26.5 93.5 q-13 15 -13 28 q0 13 20.5 13 q20.5 0 69 -20 q48.5 -20 48.5 -37 ZM354 606 q12 0 17 -23.5 q5 -23.5 5 -50.5 q0 -62 -45.5 -115.5 q-45.5 -53.5 -67.5 -53.5 q-34 0 -34 75 q0 20 6.5 31.5 q6.5 11.5 22.5 20 q16 8.5 35 32.5 q19 24 33.5 54 q14.5 30 27.5 30 ZM703 596 q78 0 120.5 -18 q42.5 -18 57 -51 q14.5 -33 14.5 -58 q0 -37 -29 -37 q-19 0 -46 21 q-27 21 -70.5 53.5 q-43.5 32.5 -71.5 52 q-28 19.5 -28 28.5 q0 9 53 9 ZM502 170 q-45 -4 -83.5 -4 q-38.5 0 -75 9 q-36.5 9 -36.5 21 q0 12 30 12 q85 2 165 13 q-1 49 -4 64.5 q-3 15.5 -15 31.5 q-12 16 -12 28 q0 12 19 12 q19 0 63 -19.5 q44 -19.5 44 -33.5 q0 -6 -9.5 -21 q-9.5 -15 -10.5 -49 q35 9 59 16.5 q24 7.5 44 7.5 q20 0 45.5 -10.5 q25.5 -10.5 25.5 -25.5 q0 -15 -34.5 -24 q-34.5 -9 -140.5 -20 l-2 -126 q107 10 160 18 q53 8 91.5 8 q38.5 0 69.5 -28.5 q31 -28.5 31 -43.5 q0 -19 -46 -19 q-19 0 -50.5 3.5 q-31.5 3.5 -109.5 7.5 q-78 4 -139 4 q-61 0 -163 -11 q-102 -11 -140 -20.5 q-38 -9.5 -56 -9.5 q-18 0 -48 21.5 q-30 21.5 -30 31 q0 9.5 10 11.5 q10 2 46 2 q92 0 302 18 l0 125 Z" /><glyph glyph-name="" unicode="&#x6210;" d="M519 486 q-138 -29 -196 -28 q0 -78 -9 -144 q66 9 97 37 q14 12 30.5 12 q16.5 0 49 -16.5 q32.5 -16.5 32.5 -25 q0 -8.5 -6 -15.5 q-18 -21 -26.5 -83.5 q-8.5 -62.5 -18 -90.5 q-9.5 -28 -32.5 -57 q-23 -29 -35.5 -38 q-12.5 -9 -21.5 -9 q-15 0 -20 22 q-9 40 -37 72 q-18 21 -18 27.5 q0 6.5 8.5 6.5 q8.5 0 30 -9 q21.5 -9 32.5 -9 q11 0 17.5 7 q6.5 7 16 33 q9.5 26 11.5 58 q2 32 2 46 q0 14 -12.5 14 q-12.5 0 -37 -7.5 q-24.5 -7.5 -39.5 -7.5 q-15 0 -28 2 q-16 -102 -61.5 -169.5 q-45.5 -67.5 -97 -102.5 q-51.5 -35 -64.5 -35 q-4 0 -4 3 q0 9 28 38 q54 58 93.5 139.5 q39.5 81.5 39.5 226.5 q0 67 -15 87 q-15 20 -15 33.5 q0 13.5 24 13.5 q24 0 73 -22 q81 4 196 38 q-32 118 -47.5 156.5 q-15.5 38.5 -38 56.5 q-22.5 18 -22.5 30 q0 12 27.5 12 q27.5 0 60.5 -7.5 q33 -7.5 43 -16.5 q10 -9 10 -26 l-2 -24 q0 -27 31 -161 q83 30 101.5 30 q18.5 0 39 -9.5 q20.5 -9.5 20.5 -22 q0 -12.5 -21 -21.5 q-21 -9 -127 -32 q31 -113 83 -222 q39 79 39 117 q0 11 -4.5 22.5 q-4.5 11.5 -4.5 21.5 q0 19 18 19 q18 0 57 -29.5 q39 -29.5 39 -43.5 q0 -9 -16.5 -22.5 q-16.5 -13.5 -38.5 -60 q-22 -46.5 -51 -91.5 q50 -80 103.5 -128.5 q53.5 -48.5 71.5 -48.5 q7 0 11.5 5.5 q4.5 5.5 13.5 32 q9 26.5 17 60 q8 33.5 17.5 33.5 q9.5 0 12 -52 q2.5 -52 7 -85 q4.5 -33 15.5 -51 q11 -18 11 -31 q0 -27 -36 -27 q-44 0 -121 46.5 q-77 46.5 -165 189.5 q-57 -62 -121 -94 q-64 -32 -83 -32 q-5 0 -5 2 q0 7 32 31 q90 66 144 149 q-61 123 -108 277 ZM685 732 q50 0 76 -20.5 q26 -20.5 26 -54.5 q0 -16 -8 -25.5 q-8 -9.5 -23 -9.5 q-15 0 -34.5 14.5 q-19.5 14.5 -55.5 43.5 q-36 29 -36 40.5 q0 11.5 55 11.5 Z" /><glyph glyph-name="" unicode="&#x5c3a;" d="M412 623 q77 11 138.5 28.5 q61.5 17.5 82.5 35 q21 17.5 41 17.5 q20 0 69.5 -29.5 q49.5 -29.5 49.5 -44.5 q0 -12 -29 -33 q-37 -26 -76 -117 q39 -19 39 -35 q0 -10 -15 -17.5 q-15 -7.5 -47 -11.5 l-117 -19 q-85 -14 -113 -17 q126 -119 178 -163 q52 -44 107.5 -80 q55.5 -36 110 -57 q54.5 -21 134.5 -38 q47 -10 47 -23 q0 -13 -76 -25.5 q-76 -12.5 -127.5 -12.5 q-51.5 0 -69.5 8 q-18 8 -35 24 q-17 16 -51 54 l-108 124 q-74 85 -132 154 q-23 -141 -77.5 -216 q-54.5 -75 -122 -113 q-67.5 -38 -86.5 -38 q-6 0 -6 4 q0 12 40 42 q114 87 150.5 207.5 q36.5 120.5 36.5 247.5 q0 82 -18 112 q-13 21 -13 36 q0 15 24 15 q24 0 71 -19 ZM423 418 q64 11 121 27.5 q57 16.5 63.5 19.5 q6.5 3 13.5 20.5 q7 17.5 14.5 57.5 q7.5 40 7.5 57.5 q0 17.5 -15.5 17.5 q-15.5 0 -195.5 -34 q0 -87 -9 -166 Z" /><glyph glyph-name="" unicode="&#x866b;" d="M567 476 q114 25 135.5 39 q21.5 14 39 14 q17.5 0 70 -25 q52.5 -25 52.5 -42 q0 -14 -35.5 -34.5 q-35.5 -20.5 -72.5 -76.5 q30 -17 30 -35.5 q0 -18.5 -46 -24.5 l-179 -25 l-5 -165 l144 27 q-3 6 -15 20 q-24 29 -24 39 q0 10 11 10 q29 0 109 -49 q80 -49 80 -122 q0 -26 -9 -49 q-9 -23 -27 -23 q-18 0 -45.5 48.5 q-27.5 48.5 -56.5 91.5 q-322 -66 -396 -102 q-42 -20 -61 -20 q-19 0 -58 36.5 q-39 36.5 -39 46 q0 9.5 17.5 9.5 q17.5 0 40 -2 q22.5 -2 44.5 -2 q64 0 221 29 l-1 167 q-78 -12 -111 -16 q-3 -29 -20 -29 q-25 0 -42 63 q-12 42 -31 83 q-19 41 -38 58.5 q-19 17.5 -19 29.5 q0 12 34.5 12 q34.5 0 62.5 -13 q69 3 164 18 q-1 137 -6 176 q-5 39 -24 64 q-21 28 -21 42.5 q0 14.5 18.5 14.5 q18.5 0 61 -16 q42.5 -16 59.5 -27.5 q17 -11.5 17 -25 q0 -13.5 -14 -42.5 q-7 -15 -10 -48.5 q-3 -33.5 -5 -123.5 ZM565 433 l-3 -123 q98 21 110.5 24 q12.5 3 25.5 42.5 q13 39.5 13 63.5 q0 10 -16 10 q-42 0 -130 -17 ZM491 298 l0 122 q-73 -11 -140 -13 q17 -57 27 -126 l113 17 Z" /><glyph glyph-name="" unicode="&#x51fa;" d="M731 434 q5 32 5 57 q0 25 -15 47.5 q-15 22.5 -15 35 q0 12.5 19.5 12.5 q19.5 0 70 -27 q50.5 -27 50.5 -42 q0 -7 -16 -26.5 q-16 -19.5 -23 -50.5 q-32 -128 -58 -128 q-26 0 -26 45 q0 16 3 37 q-166 -30 -168 -30 l-8 -255 l193 29 q-3 34 -19 53 q-16 19 -16 32.5 q0 13.5 22 13.5 q15 0 33 -7 q18 -7 44.5 -22.5 q26.5 -15.5 31.5 -21 q5 -5.5 5 -13 q0 -7.5 -10 -29 q-10 -21.5 -10 -90.5 q0 -36 -12 -76.5 q-12 -40.5 -26 -40.5 q-14 0 -26.5 47 q-12.5 47 -15.5 110 q-176 -30 -259 -46.5 q-83 -16.5 -122.5 -30.5 q-39.5 -14 -75.5 -37 q-21 -14 -32 -14 q-11 0 -33.5 35 q-22.5 35 -22.5 45.5 q0 10.5 29 21.5 q15 6 25.5 28 q10.5 22 10.5 52 q0 30 -13.5 51.5 q-13.5 21.5 -13.5 35 q0 13.5 15 13.5 q15 0 52.5 -22.5 q37.5 -22.5 37.5 -47.5 q0 -23 -39 -108 q128 21 182 29 l4 252 q-93 -17 -130 -28 q-37 -11 -69 -29 q-22 -12 -34.5 -12 q-12.5 0 -31 31 q-18.5 31 -18.5 41 q0 10 19.5 18 q19.5 8 27.5 27 q8 19 8 44 q0 46 -20 66 q-20 20 -20 35.5 q0 15.5 20 15.5 q13 0 48.5 -16 q35.5 -16 48 -25 q12.5 -9 12.5 -20 q0 -17 -37 -121 q116 10 176 20 q1 60 1 137.5 q0 77.5 -6.5 121.5 q-6.5 44 -22.5 59 q-23 22 -23 37 q0 15 23 15 q15 0 60.5 -16.5 q45.5 -16.5 62 -26.5 q16.5 -10 16.5 -20 q0 -10 -12.5 -34.5 q-12.5 -24.5 -18 -69.5 q-5.5 -45 -10.5 -193 l172 26 Z" /><glyph glyph-name="" unicode="&#x5904;" d="M705 705 q0 -9 -10 -29.5 q-10 -20.5 -15.5 -96 q-5.5 -75.5 -5.5 -134 q0 -58.5 3.5 -116.5 q3.5 -58 3.5 -80 q0 -132 -36 -132 q-16 0 -37 29 q-21 29 -21 49.5 q0 20.5 15 64.5 q15 44 15 124.5 q0 80.5 -3.5 163 q-3.5 82.5 -9.5 111.5 q-6 29 -21.5 50 q-15.5 21 -15.5 34.5 q0 13.5 20 13.5 q20 0 69 -16 q49 -16 49 -36 ZM225 336 q-25 -29 -60 -57 q-35 -28 -48 -28 q-6 0 -6 7.5 q0 7.5 16 27.5 q63 79 114.5 189 q51.5 110 51.5 152 q0 6 -2 10 q-15 35 -15 51.5 q0 16.5 15.5 16.5 q15.5 0 65.5 -23 q50 -23 50 -33.5 q0 -10.5 -14.5 -27.5 q-14.5 -17 -38 -68.5 q-23.5 -51.5 -35.5 -73.5 q62 11 93 46 q18 19 30 19 q12 0 57.5 -27 q45.5 -27 45.5 -41 q0 -10 -25.5 -30.5 q-25.5 -20.5 -46.5 -67.5 q-42 -96 -59 -123 q55 -47 144.5 -104 q89.5 -57 167 -79.5 q77.5 -22.5 218.5 -46.5 q48 -8 48 -19 q0 -7 -19 -13.5 q-19 -6.5 -101.5 -24 q-82.5 -17.5 -110 -17.5 q-27.5 0 -44 5 q-16.5 5 -36 17.5 q-19.5 12.5 -110.5 84.5 q-91 72 -184 152 q-74 -112 -163 -163 q-89 -51 -119 -51 q-7 0 -7 5.5 q0 5.5 23 22.5 q92 68 132 115 q40 47 82 116 q-76 67 -110 81 ZM299 441 q-28 -46 -52 -78 q54 -13 114 -63 q19 36 34.5 87.5 q15.5 51.5 15.5 61.5 q0 10 -7.5 10 q-7.5 0 -18.5 -4 q-48 -17 -62 -17 q-14 0 -24 3 ZM695 470 q25 0 99 -15 q74 -15 90.5 -43 q16.5 -28 16.5 -50.5 q0 -22.5 -8 -33.5 q-8 -11 -22.5 -11 q-14.5 0 -30.5 14 q-56 48 -139 107 q-24 17 -24 24.5 q0 7.5 18 7.5 Z" /><glyph glyph-name="" unicode="&#x7a7f;" d="M457 782 q50 0 77.5 -6 q27.5 -6 37 -26.5 q9.5 -20.5 9.5 -36.5 q0 -16 -8.5 -25.5 q-8.5 -9.5 -22.5 -9.5 q-26 0 -73 43.5 q-47 43.5 -47 52 q0 8.5 27 8.5 ZM294 634 q112 9 232 24 q120 15 158 21.5 q38 6.5 67 15.5 q29 9 45 9 q30 0 77.5 -41.5 q47.5 -41.5 47.5 -55 q0 -13.5 -27 -15.5 q-37 -2 -58.5 -8 q-21.5 -6 -53 -22 q-31.5 -16 -39.5 -16 q-8 0 -8 8 q0 8 13.5 37 q13.5 29 13.5 36 q0 7 -4.5 9.5 q-4.5 2.5 -27 2.5 q-22.5 0 -145 -12 q-122.5 -12 -183 -22 q-60.5 -10 -78.5 -10 q-18 0 -30 2 q-17 -62 -43.5 -93 q-26.5 -31 -43.5 -31 q-17 0 -24.5 21 q-7.5 21 -7.5 38 q0 17 19 36 q31 33 48 81 q9 28 19.5 28 q10.5 0 32.5 -43 ZM571 592 q24 0 73.5 -10.5 q49.5 -10.5 64 -33 q14.5 -22.5 14.5 -38 q0 -15.5 -7.5 -23.5 q-7.5 -8 -19.5 -8 q-23 0 -81.5 48.5 q-58.5 48.5 -58.5 56.5 q0 8 15 8 ZM475 543 q0 -9 -14.5 -16 q-14.5 -7 -49 -33.5 q-34.5 -26.5 -77.5 -46 q-43 -19.5 -60 -19.5 q-8 0 -8 5.5 q0 5.5 21 21.5 q91 69 91 106 l-1 11 q0 16 17.5 16 q17.5 0 49 -16 q31.5 -16 31.5 -29 ZM519 407 q-75 -10 -106.5 -10 q-31.5 0 -53.5 10 q-22 10 -22 16.5 q0 6.5 23 8.5 q75 5 156 25 q81 20 103 20 q22 0 43 -7.5 q21 -7.5 21 -18.5 q0 -11 -16.5 -18 q-16.5 -7 -88.5 -18 q45 -18 45 -30 q0 -5 -6.5 -16.5 q-6.5 -11.5 -7.5 -34.5 q36 5 75.5 14 q39.5 9 65 9 q25.5 0 49 -21.5 q23.5 -21.5 23.5 -34.5 q0 -17 -39 -17 q-12 0 -41 3.5 q-29 3.5 -65 3.5 q-36 0 -69 -2 q-1 -61 4 -136.5 q5 -75.5 5 -114.5 q0 -39 -15 -71 q-15 -32 -32 -50.5 q-17 -18.5 -31.5 -18.5 q-14.5 0 -26.5 22 q-12 22 -28.5 39 q-16.5 17 -54.5 48 q-16 13 -16 20.5 q0 7.5 9.5 7.5 q9.5 0 36.5 -7 q27 -7 44.5 -7 q17.5 0 23.5 12.5 q6 12.5 10 61 q4 48.5 4 137.5 q-59 -68 -130.5 -118 q-71.5 -50 -146 -78 q-74.5 -28 -107.5 -28 q-14 0 -14 7.5 q0 7.5 25 19.5 q216 104 326 243 q-85 -9 -115.5 -17 q-30.5 -8 -56.5 -26 q-14 -10 -22.5 -10 q-8.5 0 -26.5 20 q-18 20 -18 28.5 q0 8.5 16 16.5 q34 16 34 47 q0 14 -7.5 25.5 q-7.5 11.5 -7.5 20.5 q0 9 13.5 9 q13.5 0 42.5 -14.5 q29 -14.5 29 -24 q0 -9.5 -8.5 -22 q-8.5 -12.5 -14.5 -29.5 q88 9 188 22 q-3 51 -21 83 Z" /><glyph glyph-name="" unicode="&#x8239;" d="M310 587 q65 105 65 142 q0 8 -4 18 q-4 10 -4 20 q0 16 19 16 q19 0 61.5 -18.5 q42.5 -18.5 42.5 -30.5 q0 -12 -23 -27 q-35 -23 -110 -111 q29 6 52.5 17.5 q23.5 11.5 37 11.5 q13.5 0 45.5 -23.5 q32 -23.5 32 -34.5 q0 -11 -12 -26.5 q-12 -15.5 -20.5 -98 q-8.5 -82.5 -8.5 -170 q0 -87.5 2.5 -134 q2.5 -46.5 2.5 -64.5 q0 -67 -25.5 -98 q-25.5 -31 -40.5 -31 q-15 0 -28 20 q-31 48 -51.5 66.5 q-20.5 18.5 -20.5 27.5 q0 9 10.5 9 q10.5 0 27.5 -5 q17 -5 29 -5 q28 0 28 37 l7 232 q-59 -11 -114 -26 q-15 -117 -49 -188.5 q-34 -71.5 -84 -110.5 q-50 -39 -63 -39 q-3 0 -3 3 q0 9 22 38 q51 67 77 133.5 q26 66.5 37 147.5 q-66 -18 -91 -28 q-24 -9 -37 -9 q-13 0 -40.5 27.5 q-27.5 27.5 -27.5 35 q0 7.5 12.5 7.5 q12.5 0 24 -1.5 q11.5 -1.5 22.5 -1.5 q47 0 143 16 q3 33 3 67 q0 116 -28 165 q-8 14 -8 23.5 q0 9.5 17.5 9.5 q17.5 0 55.5 -12 l17 3 ZM314 342 q56 11 110 24 q2 68 2 89 q0 21 -1.5 61 q-1.5 40 -6.5 46.5 q-5 6.5 -18 6.5 q-13 0 -85 -15 q4 -44 4 -98.5 q0 -54.5 -5 -113.5 ZM343 497 q10 0 35.5 -14.5 q25.5 -14.5 25.5 -34.5 q0 -20 -6.5 -30 q-6.5 -10 -16.5 -10 q-18 0 -34 35 q-16 35 -16 44.5 q0 9.5 12 9.5 ZM646 627 q31 0 63.5 6.5 q32.5 6.5 56.5 33.5 q15 17 26 17 q11 0 46.5 -21.5 q35.5 -21.5 35.5 -33.5 q0 -12 -24 -26.5 q-24 -14.5 -38 -46.5 q-14 -32 -14 -59 q0 -27 7 -43 q7 -16 23.5 -16 q16.5 0 45 7 q28.5 7 46.5 7 q18 0 41 -15 q23 -15 23 -28 q0 -19 -47 -30 q-47 -11 -95.5 -11 q-48.5 0 -75 23 q-26.5 23 -26.5 79.5 q0 56.5 11 100.5 q4 15 4 22.5 q0 7.5 -6.5 7.5 q-6.5 0 -28 -5 q-21.5 -5 -54.5 -5 q-1 -116 -26 -178.5 q-25 -62.5 -69.5 -93 q-44.5 -30.5 -59.5 -30.5 q-6 0 -6 6 q0 6 17 21 q36 34 57 90.5 q21 56.5 21 117.5 q0 61 -23 91 q-9 11 -9 21 q0 10 19 10 q19 0 59 -19 ZM592 253 q58 -3 117 7.5 q59 10.5 87 26.5 q17 9 32.5 9 q15.5 0 65 -29.5 q49.5 -29.5 49.5 -44.5 q0 -9 -21 -26 q-41 -33 -59 -105 q32 -21 32 -39 q0 -8 -7 -14 q-7 -6 -27 -8 l-87 -7 q-67 -6 -145 -10 q-5 -44 -25 -44 q-14 0 -27 18 q-13 18 -13.5 74 q-0.5 56 -11 103.5 q-10.5 47.5 -27.5 72.5 q-7 10 -7 20.5 q0 10.5 19 10.5 q19 0 55 -15 ZM631 57 q127 9 163 26 q10 32 14.5 70.5 q4.5 38.5 4.5 51.5 q0 13 -6 19 q-6 6 -19 6 q-13 0 -32 -3 q-83 -15 -140 -13 q12 -91 15 -157 ZM398 214 q0 -11 -8 -24.5 q-8 -13.5 -22 -13.5 q-14 0 -30.5 34 q-16.5 34 -16.5 45 q0 11 12 11 q12 0 38.5 -16 q26.5 -16 26.5 -36 Z" /><glyph glyph-name="" unicode="&#x4e32;" d="M299 597 q55 4 155 18 q-2 59 -6.5 83 q-4.5 24 -20.5 43.5 q-16 19.5 -16 32 q0 12.5 19.5 12.5 q19.5 0 71.5 -18.5 q52 -18.5 52 -37.5 q0 -8 -9.5 -27 q-9.5 -19 -11.5 -77 q97 16 117 27 q18 9 35 9 q17 0 60.5 -30 q43.5 -30 43.5 -41 q0 -11 -25 -25 q-37 -21 -48.5 -33.5 q-11.5 -12.5 -23.5 -31.5 q20 -16 20 -25.5 q0 -9.5 -14 -13 q-14 -3.5 -68 -6 q-54 -2.5 -102 -7.5 q0 -52 -1 -76 q93 12 122 17 q29 5 48.5 13.5 q19.5 8.5 35.5 8.5 q16 0 65.5 -35 q49.5 -35 49.5 -48 q0 -10 -27 -21 q-35 -15 -51.5 -31.5 q-16.5 -16.5 -27.5 -38.5 q26 -18 26 -30 q0 -18 -67 -22 l-175 -10 q-1 -125 -5 -169.5 q-4 -44.5 -16 -83 q-12 -38.5 -25.5 -38.5 q-13.5 0 -19.5 60.5 q-6 60.5 -6 90.5 l1 134 q-76 -8 -130 -11 q2 -46 -20 -46 q-25 0 -58 78 q-29 75 -42 97.5 q-13 22.5 -24 32.5 q-11 10 -11 16 q0 14 29 14 q21 0 51 -8 q111 8 205 20 l0 78 l-103 -12 q-2 -31 -18 -31 q-8 0 -21 12.5 q-13 12.5 -21 35.5 q-31 85 -37 97 q-6 12 -31 36 q-8 8 -8 16 q0 14 23.5 14 q23.5 0 59.5 -12 ZM529 486 q60 7 79 11 q30 19 39 44 q9 25 9 41.5 q0 16.5 -19 16.5 l-106 -11 q-2 -50 -2 -102 ZM348 465 q58 7 107 12 q0 72 -1 102 q-82 -9 -132 -17 q11 -32 26 -97 ZM527 335 q-1 -40 -1 -116 l127 19 q18 8 38.5 49.5 q20.5 41.5 20.5 51 q0 9.5 -22 9.5 q-40 0 -163 -13 ZM455 211 l0 116 q-100 -11 -176 -22 q20 -56 37 -108 l139 14 Z" /><glyph glyph-name="" unicode="&#x6625;" d="M440 587 q-30 -2 -60.5 -2 q-30.5 0 -53.5 7 q-23 7 -23 16 q0 9 40 11.5 q40 2.5 104 13.5 q4 32 4 59.5 q0 27.5 -7 37.5 q-24 34 -24 47 q0 13 16.5 13 q16.5 0 71.5 -22 q55 -22 55 -39 q0 -8 -10 -25 q-10 -17 -20 -54 q39 9 82 20.5 q43 11.5 64 11.5 q21 0 39 -11 q18 -11 18 -20 q0 -9 -16 -17 q-16 -8 -90.5 -21 q-74.5 -13 -108.5 -17 q-6 -27 -14 -59 q43 10 79 20.5 q36 10.5 58 10.5 q22 0 45 -9 q23 -9 23 -20.5 q0 -11.5 -41 -23 q-41 -11.5 -179 -27.5 q-8 -28 -22 -62 q171 26 215.5 39.5 q44.5 13.5 70.5 13.5 q26 0 56 -18.5 q30 -18.5 30 -30 q0 -11.5 -18 -17 q-18 -5.5 -61 -5.5 l-29 0 q-45 0 -145 -9 q137 -113 204 -151 q67 -38 178 -66 q46 -12 46 -23 q0 -5 -12 -9.5 q-12 -4.5 -76 -12 q-64 -7.5 -97.5 -7.5 q-33.5 0 -53 15.5 q-19.5 15.5 -106.5 108.5 q-87 93 -129 140 q-34 -3 -92 -10 q-19 -53 -75 -116 l14 -9 q128 10 162 28 q18 9 33.5 9 q15.5 0 58.5 -33 q43 -33 43 -44.5 q0 -11.5 -10.5 -25.5 q-10.5 -14 -10.5 -55 q0 -41 3 -72.5 q3 -31.5 3 -44.5 q0 -41 -23 -79 q-23 -38 -40 -38 q-17 0 -35 57 q-6 17 -19 29 q-13 12 -25 12 q-27 0 -121 -8 q-10 -66 -30 -66 q-12 0 -28 23.5 q-16 23.5 -16 40 q0 16.5 5 29.5 q13 36 13 102 q0 66 -9 110 q-77 -77 -153.5 -114.5 q-76.5 -37.5 -104.5 -37.5 q-9 0 -9 4 q0 10 38 32 q172 100 256 257 q-59 -8 -83 -15 q-24 -7 -44 -7 q-20 0 -42.5 14.5 q-22.5 14.5 -22.5 23.5 q0 9 39.5 9 q39.5 0 172.5 17 q8 17 22 63 q-14 -1 -34 -1 q-20 0 -47 7 q-27 7 -27 15.5 q0 8.5 32 10 q32 1.5 88 10.5 q9 35 15 66 ZM412 142 q71 21 92.5 21 q21.5 0 38 -9 q16.5 -9 16.5 -17 q0 -8 -6.5 -13.5 q-6.5 -5.5 -43.5 -10 q-37 -4.5 -58.5 -4.5 q-21.5 0 -38.5 2 q0 -55 -1 -80 q24 2 68 10 q44 8 60.5 8 q16.5 0 25.5 -11 q9 -11 12 -11 q7 0 10.5 32.5 q3.5 32.5 3.5 64 q0 31.5 -4.5 66 q-4.5 34.5 -12 42 q-7.5 7.5 -22 7.5 q-14.5 0 -62.5 -5.5 q-48 -5.5 -82 -10.5 q2 -24 4 -81 Z" /><glyph glyph-name="" unicode="&#x8bcd;" d="M267 731 q42 0 93.5 -17.5 q51.5 -17.5 51.5 -67.5 q0 -19 -9.5 -30.5 q-9.5 -11.5 -23 -11.5 q-13.5 0 -37 16 q-23.5 16 -43 34 q-19.5 18 -35.5 38.5 q-16 20.5 -16 29.5 q0 9 19 9 ZM900 632 q0 -8 -12.5 -27 q-12.5 -19 -18 -43.5 q-5.5 -24.5 -5.5 -79 q0 -54.5 5 -145.5 q5 -91 5 -178.5 q0 -87.5 -4.5 -121.5 q-4.5 -34 -20.5 -63.5 q-16 -29.5 -28 -39 q-12 -9.5 -23 -9.5 q-16 0 -24 16 q-30 62 -79 96 q-26 19 -26 27 q0 8 11.5 8 q11.5 0 39.5 -5 q28 -5 44.5 -5 q16.5 0 22.5 12 q6 12 10 65 q4 53 4 143 q0 90 -3 173.5 q-3 83.5 -6.5 119 q-3.5 35.5 -9 43 q-5.5 7.5 -20.5 7.5 q-15 0 -80.5 -9.5 q-65.5 -9.5 -115.5 -22.5 q-14 -4 -29 -4 q-15 0 -40.5 17.5 q-25.5 17.5 -25.5 26 q0 8.5 47.5 8.5 q47.5 0 131.5 17 q84 17 103 29.5 q19 12.5 36.5 12.5 q17.5 0 64 -27 q46.5 -27 46.5 -41 ZM320 184 q89 56 97.5 60 q8.5 4 15 4 q6.5 0 6.5 -8.5 q0 -8.5 -18 -26.5 q-70 -73 -90.5 -97 q-20.5 -24 -36.5 -51 q-16 -27 -28 -27 q-12 0 -34 32 q-22 32 -22 44.5 q0 12.5 17.5 27 q17.5 14.5 24.5 31.5 q7 17 13 83.5 q6 66.5 6 118 q0 51.5 -2 60.5 q-2 9 -10 9 q-13 0 -77 -34 q-18 -10 -30.5 -10 q-12.5 0 -38.5 17.5 q-26 17.5 -26 27.5 q0 10 33 10 q33 0 82.5 20 q49.5 20 66 39.5 q16.5 19.5 33 19.5 q16.5 0 50.5 -16 q34 -16 34 -26.5 q0 -10.5 -17.5 -29 q-17.5 -18.5 -26 -40.5 q-8.5 -22 -13 -71.5 q-4.5 -49.5 -9.5 -166.5 ZM711 498 q0 -8 -10 -14.5 q-10 -6.5 -69 -16 q-59 -9.5 -79.5 -9.5 q-20.5 0 -54.5 8.5 q-34 8.5 -34 18.5 q0 10 39 13 q39 3 87 17.5 q48 14.5 67.5 14.5 q19.5 0 36.5 -10.5 q17 -10.5 17 -21.5 ZM488 368 q100 11 135 38 q8 6 21 6 q13 0 52 -20.5 q39 -20.5 39 -30.5 q0 -10 -15 -23 q-26 -22 -45 -73 q24 -15 24 -30.5 q0 -15.5 -29 -21.5 q-29 -6 -146 -16 q-2 -23 -8.5 -35 q-6.5 -12 -15.5 -12 q-16 0 -22 31 q-16 84 -25 113 q-9 29 -22 46 q-13 17 -13 26.5 q0 9.5 19 9.5 q19 0 51 -8 ZM523 235 q14 1 44 8.5 q30 7.5 39.5 11.5 q9.5 4 15 36.5 q5.5 32.5 5.5 39.5 q0 21 -20 21 q-3 0 -98 -16 q6 -35 14 -101 Z" /><glyph glyph-name="" unicode="&#x4ece;" d="M647 332 q-28 -117 -81 -194 q-53 -77 -129.5 -126.5 q-76.5 -49.5 -97.5 -49.5 q-7 0 -7 5 q0 10 33 35 q92 71 147.5 171.5 q55.5 100.5 72.5 232 q17 131.5 17 187 q0 55.5 -18 81.5 q-18 26 -18 39 q0 13 22 13 q22 0 74 -23 q52 -23 52 -46 q0 -9 -7 -20 q-17 -32 -25 -94 q-8 -62 -23 -152 q68 -117 115 -180.5 q47 -63.5 90 -97.5 q43 -34 94 -57.5 q51 -23.5 51 -33 q0 -9.5 -14.5 -11.5 q-14.5 -2 -83.5 -2 q-69 0 -97 8 q-28 8 -42 26.5 q-14 18.5 -52.5 108.5 q-38.5 90 -72.5 180 ZM322 305 q-32 -92 -80.5 -155.5 q-48.5 -63.5 -100 -93 q-51.5 -29.5 -67.5 -29.5 q-4 0 -4 3 q0 7 23 30 q103 99 152 240.5 q49 141.5 49 234.5 q0 47 -14 67.5 q-14 20.5 -14 34.5 q0 14 17.5 14 q17.5 0 55 -17.5 q37.5 -17.5 52 -27.5 q14.5 -10 14.5 -20.5 q0 -10.5 -9 -31.5 q-15 -35 -22.5 -73 q-7.5 -38 -41.5 -144 q66 -29 99.5 -50 q33.5 -21 45 -40.5 q11.5 -19.5 11.5 -44.5 q0 -54 -24 -54 q-13 0 -30.5 17.5 q-17.5 17.5 -111.5 139.5 Z" /><glyph glyph-name="" unicode="&#x6253;" d="M366 455 q-77 -18 -111 -18 q-34 0 -57.5 11 q-23.5 11 -23.5 18 q0 7 23 10 q94 15 168 41 q-2 106 -7.5 145.5 q-5.5 39.5 -26 61.5 q-20.5 22 -20.5 34.5 q0 12.5 19.5 12.5 q19.5 0 78 -18 q58.5 -18 58.5 -38 q0 -9 -15 -35.5 q-15 -26.5 -20 -139.5 q18 5 40.5 5 q22.5 0 41.5 -6 q19 -6 19 -17.5 q0 -11.5 -16 -20.5 q-16 -9 -88 -30 l-3 -116 q61 29 73.5 29 q12.5 0 12.5 -6 q0 -17 -86 -72 q-1 -66 1 -124 l3 -108 q0 -50 -12.5 -76 q-12.5 -26 -26.5 -46 q-14 -20 -34.5 -20 q-20.5 0 -25.5 22.5 q-5 22.5 -20 42.5 q-15 20 -42 45.5 q-27 25.5 -27 32.5 q0 7 9 7 q9 0 31 -7 q22 -7 36 -7 q14 0 20 9.5 q6 9.5 11.5 58 q5.5 48.5 10.5 128.5 q-100 -62 -152 -110 q-19 -18 -33 -18 q-14 0 -55 30 q-41 30 -41 43.5 q0 13.5 60 15.5 q20 1 62.5 19.5 q42.5 18.5 161.5 78.5 q3 68 3 132 ZM677 452 q-18 -2 -52 -11 q-34 -9 -53 -9 q-19 0 -45.5 16 q-26.5 16 -26.5 23.5 q0 7.5 35 10.5 q69 6 107 13 q38 7 107 22.5 q69 15.5 93.5 24 q24.5 8.5 51 8.5 q26.5 0 57.5 -17 q31 -17 31 -32 q0 -24 -82 -25 q-76 -2 -164 -14 q33 -10 49.5 -20 q16.5 -10 16.5 -22 q0 -12 -8.5 -33.5 q-8.5 -21.5 -8.5 -71.5 l6 -257 q0 -43 -10 -63.5 q-10 -20.5 -33 -51.5 q-23 -31 -40.5 -31 q-17.5 0 -29.5 29 q-21 49 -69 86 q-23 18 -23 26.5 q0 8.5 12.5 8.5 q12.5 0 40 -6.5 q27.5 -6.5 43.5 -6.5 q16 0 21.5 15.5 q5.5 15.5 8 63.5 q2.5 48 2.5 100 q0 52 -3.5 104.5 q-3.5 52.5 -10.5 75.5 q-7 23 -23 44 Z" /><glyph glyph-name="" unicode="&#x5927;" d="M450 387 q-67 -12 -107.5 -22 q-40.5 -10 -62.5 -10 q-22 0 -48 15.5 q-26 15.5 -26 24 q0 8.5 40 12.5 q74 7 209 30 q7 86 7 139 q0 90 -24 121.5 q-24 31.5 -24 43.5 q0 12 19.5 12 q19.5 0 66 -13 q46.5 -13 61 -21 q14.5 -8 14.5 -19.5 q0 -11.5 -12 -36.5 q-12 -25 -32 -212 q98 18 142.5 33.5 q44.5 15.5 79.5 15 q35 -0.5 66.5 -21 q31.5 -20.5 31.5 -34.5 q0 -21 -71 -23 q-124 -3 -255 -23 l-6 -46 q93 -114 155 -173.5 q62 -59.5 125 -94 q63 -34.5 164 -67.5 q43 -15 43 -25 q0 -5 -12 -9.5 q-12 -4.5 -74.5 -11.5 q-62.5 -7 -106.5 -7 q-44 0 -67 6 q-23 6 -41.5 26.5 q-18.5 20.5 -69.5 95.5 q-51 75 -129 201 q-32 -126 -98.5 -194.5 q-66.5 -68.5 -149.5 -96 q-83 -27.5 -115 -27.5 q-15 0 -15 6 q0 10 36 25 q130 55 200 149 q70 94 86 232 Z" /><glyph glyph-name="" unicode="&#x5355;" d="M526 586 q103 130 93 153 q-8 20 -8 35 q0 15 18.5 15 q18.5 0 65.5 -21.5 q47 -21.5 47 -34.5 q0 -10 -30 -29 q-30 -19 -126 -108 q62 11 80.5 19 q18.5 8 30.5 8 q21 0 75.5 -31 q54.5 -31 54.5 -44 q0 -13 -18.5 -31.5 q-18.5 -18.5 -29 -39.5 q-10.5 -21 -26 -65.5 q-15.5 -44.5 -32.5 -72.5 q-17 -28 -24.5 -35.5 q-7.5 -7.5 -16.5 -7.5 q-17 0 -31 22 q-7 10 -31 10 q-24 0 -70 -5 q0 -58 1 -82 q173 18 218.5 26 q45.5 8 69.5 8 q49 0 80.5 -25 q31.5 -25 31.5 -41.5 q0 -16.5 -47 -16.5 q-25 0 -73.5 6.5 q-48.5 6.5 -106 6.5 q-57.5 0 -173.5 -8 q2 -45 2 -84 q0 -108 -13.5 -172.5 q-13.5 -64.5 -29.5 -64.5 q-35 0 -31 315 q-161 -15 -260 -38 q-37 -8 -58.5 -8 q-21.5 0 -47 20 q-25.5 20 -25.5 28.5 q0 8.5 51.5 9.5 q51.5 1 339.5 31 l0 80 q-64 -9 -103 -11 q-7 -24 -25 -24 q-11 0 -22 15 q-11 15 -17.5 53.5 q-6.5 38.5 -25 96.5 q-18.5 58 -36.5 78 q-18 20 -18 31.5 q0 11.5 21.5 11.5 q21.5 0 58.5 -8 q107 12 216 29 ZM548 363 q63 8 79 8 q6 0 10.5 -4 q4.5 -4 9.5 -4 q5 0 9.5 9 q4.5 9 15.5 43.5 q11 34.5 17 73.5 q6 39 6 50 q0 11 -10.5 15.5 q-10.5 4.5 -33.5 4.5 q-23 0 -105 -9 q2 -46 2 -75 q47 12 63.5 12 q16.5 0 31.5 -10.5 q15 -10.5 15 -21 q0 -10.5 -24 -15.5 q-24 -5 -86 -13 l0 -64 ZM470 541 q-73 -10 -130 -20 q16 -74 33 -181 l104 14 l-2 66 q-29 -2 -52 -2 q-23 0 -37.5 6.5 q-14.5 6.5 -14.5 14 q0 7.5 33 11.5 q33 4 70 11 q-2 55 -4 80 ZM461 653 q0 -24 -9 -37.5 q-9 -13.5 -24 -13.5 q-26 0 -63 55 q-37 55 -37 68 q0 8 11.5 8 q11.5 0 50.5 -13 q39 -13 55 -26.5 q16 -13.5 16 -40.5 Z" /><glyph glyph-name="" unicode="&#x5f53;" d="M485 366 q6 128 6 196 q0 68 -8 98 q-8 30 -28.5 52 q-20.5 22 -20.5 35 q0 13 23 13 q23 0 79 -18 q56 -18 56 -42 q0 -10 -9 -31 q-9 -21 -17.5 -100 q-8.5 -79 -11.5 -195 q121 14 156 33 q18 10 30 10 q19 0 73.5 -38 q54.5 -38 54.5 -54 q0 -10 -20.5 -29 q-20.5 -19 -31.5 -39.5 q-11 -20.5 -27 -75 q-16 -54.5 -33 -128.5 q34 -22 34 -40 q0 -9 -8.5 -13.5 q-8.5 -4.5 -25.5 -4.5 l-40 0 q-222 0 -387 -28 q-17 -3 -27 -3 q-24 0 -50.5 22.5 q-26.5 22.5 -26.5 32 q0 9.5 27 9.5 l58 -2 q50 0 354 25 q14 10 18.5 20 q4.5 10 13 52.5 q8.5 42.5 18 108 q9.5 65.5 9.5 83 q0 17.5 -7.5 22 q-7.5 4.5 -31.5 4.5 q-63 0 -185.5 -14.5 q-122.5 -14.5 -160 -23 q-37.5 -8.5 -45.5 -8.5 q-21 0 -51 19.5 q-30 19.5 -30 28.5 q0 9 24 9 l31 -1 q74 0 218 15 ZM851 596 q0 -11 -26 -23 q-39 -19 -68.5 -44 q-29.5 -25 -79 -51 q-49.5 -26 -63 -26 q-13.5 0 -13.5 8 q0 8 18 22 q55 47 83 87.5 q28 40.5 28 70.5 q0 30 16 30 q16 0 60.5 -30.5 q44.5 -30.5 44.5 -43.5 ZM410 492 q0 -57 -32 -57 q-32 0 -72.5 63 q-40.5 63 -40.5 76 q0 13 12.5 13 q12.5 0 52.5 -12 q40 -12 60 -29.5 q20 -17.5 20 -53.5 ZM602 227 q25 0 45 -18.5 q20 -18.5 20 -28.5 q0 -16 -45.5 -15 q-45.5 1 -99.5 1 q-54 0 -107 -9.5 q-53 -9.5 -73.5 -9.5 q-20.5 0 -42.5 16 q-22 16 -22 22 q0 6 8 9 q8 3 43 3 q35 0 92 5.5 q57 5.5 108.5 15 q51.5 9.5 73.5 9.5 Z" /><glyph glyph-name="" unicode="&#x5200;" d="M475 542 q-30 -6 -68 -16 q-38 -10 -63 -10 q-25 0 -53.5 21 q-28.5 21 -28.5 29.5 q0 8.5 11.5 10.5 q11.5 2 54.5 2 q43 0 155 14.5 q112 14.5 157 24.5 q45 10 75 24 q30 14 43 14 q22 0 74 -34.5 q52 -34.5 52 -50.5 q0 -8 -12 -22 q-27 -32 -35.5 -55.5 q-8.5 -23.5 -14.5 -69.5 q-26 -199 -51.5 -282.5 q-25.5 -83.5 -70.5 -126 q-45 -42.5 -71 -42.5 q-26 0 -30.5 29 q-4.5 29 -17.5 52 q-13 23 -35.5 54 q-22.5 31 -22.5 39 q0 8 9.5 8 q9.5 0 48 -14.5 q38.5 -14.5 55.5 -14.5 q17 0 24.5 8.5 q7.5 8.5 27.5 58 q20 49.5 32.5 106 q12.5 56.5 22 146.5 q9.5 90 9.5 104.5 q0 14.5 -9 19 q-9 4.5 -30 4.5 q-66 0 -183 -21 q57 -24 57 -43 q0 -8 -10 -19 q-18 -20 -31 -54 q-38 -99 -93 -179 q-55 -80 -120.5 -133 q-65.5 -53 -126.5 -77.5 q-61 -24.5 -83 -24.5 q-9 0 -9 4 q0 9 35 31 q81 50 156.5 132.5 q75.5 82.5 123 181 q47.5 98.5 47.5 155.5 q0 9 -1 16 Z" /><glyph glyph-name="" unicode="&#x5230;" d="M875 701 q0 -10 -9.5 -33.5 q-9.5 -23.5 -12.5 -60 q-3 -36.5 -3 -94 q0 -57.5 2 -160.5 l6 -300 q0 -60 -29 -103.5 q-29 -43.5 -47 -43.5 q-18 0 -33 29 q-23 42 -39 64 q-16 22 -37.5 41 q-21.5 19 -21.5 27.5 q0 8.5 12 8.5 q12 0 42.5 -9 q30.5 -9 42.5 -9 q12 0 16 4.5 q4 4.5 8.5 31.5 q4.5 27 7 107.5 q2.5 80.5 2.5 171 q0 90.5 -4.5 189.5 q-4.5 99 -11 118 q-6.5 19 -25 38.5 q-18.5 19.5 -18.5 31 q0 11.5 18.5 11.5 q18.5 0 60.5 -14.5 q42 -14.5 57.5 -23.5 q15.5 -9 15.5 -22 ZM331 583 q-16 -2 -40 -2 q-24 0 -49 9.5 q-25 9.5 -25 16.5 q0 7 37 12 q91 11 182 45 q37 14 56 14 q19 0 40.5 -11.5 q21.5 -11.5 21.5 -22.5 q0 -11 -25.5 -20.5 q-25.5 -9.5 -146.5 -32.5 q42 -24 42 -39 q0 -8 -13 -15.5 q-13 -7.5 -69.5 -57 q-56.5 -49.5 -56.5 -53.5 q0 -4 6 -4 q21 0 170 32 q-20 39 -20 49 q0 8 9.5 8 q9.5 0 48 -16 q38.5 -16 52 -29.5 q13.5 -13.5 13.5 -42.5 q0 -52 -28 -52 q-11 0 -23 10.5 q-12 10.5 -32 41.5 q-75 -18 -110 -28 q29 -9 43.5 -17 q14.5 -8 14.5 -17.5 q0 -9.5 -7.5 -25 q-7.5 -15.5 -10.5 -43.5 q49 18 63.5 18 q14.5 0 35 -9.5 q20.5 -9.5 20.5 -21.5 q0 -12 -24.5 -20.5 q-24.5 -8.5 -97.5 -20.5 q-3 -77 -4 -90 q141 28 161.5 28 q20.5 0 20.5 -8 q0 -8 -23 -16 l-228 -75 q-69 -23 -102 -40 q-23 -12 -39 -12 q-16 0 -50 32.5 q-34 32.5 -34 42 q0 9.5 13 9.5 q13 0 25 -2 q12 -2 20 -2 q25 0 172 30 l2 91 q-26 -7 -55.5 -7 q-29.5 0 -49.5 5.5 q-20 5.5 -20 12.5 q0 7 34 12 q34 5 91 21 q0 47 -5.5 69.5 q-5.5 22.5 -17.5 40.5 q-49 -16 -82 -35 q-20 -12 -30.5 -12 q-10.5 0 -23.5 32 q-13 32 -13 40 q0 8 5 12 q5 4 24.5 6.5 q19.5 2.5 37 14 q17.5 11.5 44 42.5 q26.5 31 38.5 56 q12 25 12 47 ZM702 546 q0 -5 -5.5 -14 q-5.5 -9 -7 -19.5 q-1.5 -10.5 -3.5 -55 q-2 -44.5 -2 -85 q0 -40.5 2.5 -77.5 q2.5 -37 2.5 -41 q0 -29 -9.5 -60.5 q-9.5 -31.5 -25 -31.5 q-15.5 0 -35.5 24.5 q-20 24.5 -20 38 q0 13.5 12 38.5 q12 25 12 101.5 q0 76.5 -6.5 127 q-6.5 50.5 -18 67 q-11.5 16.5 -11.5 25.5 q0 9 16 9 q16 0 57.5 -15.5 q41.5 -15.5 41.5 -31.5 Z" /><glyph glyph-name="" unicode="&#x5f97;" d="M431 671 q0 -11 -19.5 -27 q-19.5 -16 -63.5 -56 q-64 -62 -123 -92.5 q-59 -30.5 -70.5 -30.5 q-11.5 0 -11.5 4 q0 10 35 38 q65 51 108 107.5 q43 56.5 40 83.5 q-1 10 -1 17 q0 26 15 26 q15 0 53 -27.5 q38 -27.5 38 -42.5 ZM522 681 q170 17 230 44 q19 9 36 9 q17 0 64.5 -31.5 q47.5 -31.5 47.5 -43.5 q0 -7 -17 -22 q-17 -15 -25.5 -25.5 q-8.5 -10.5 -24 -46 q-15.5 -35.5 -39 -68 q-23.5 -32.5 -41.5 -32.5 q-10 0 -19 11 q-4 4 -22.5 4 q-18.5 0 -71.5 -8.5 q-53 -8.5 -62 -9.5 q-7 -25 -21.5 -25 q-14.5 0 -22.5 25.5 q-8 25.5 -29 120.5 q-4 17 -15.5 41 q-11.5 24 -21.5 36.5 q-10 12.5 -10 20.5 q0 8 16 8 q16 0 48 -8 ZM581 498 q8 1 54.5 11.5 q46.5 10.5 62.5 10.5 q16 0 20 -3 q4 -3 7 -3 q3 0 9 9.5 q6 9.5 13 28 q7 18.5 15.5 56 q8.5 37.5 8.5 51.5 q0 14 -20 14 q-6 0 -50.5 -4.5 q-44.5 -4.5 -80.5 -11 q-36 -6.5 -64 -6.5 q5 -21 13 -65 q21 3 60.5 16.5 q39.5 13.5 55.5 13.5 q16 0 30.5 -7 q14.5 -7 14.5 -15 q0 -8 -10.5 -13.5 q-10.5 -5.5 -62 -14.5 q-51.5 -9 -84.5 -7 l8 -61 ZM271 294 q-50 -55 -115 -92.5 q-65 -37.5 -83 -37.5 q-6 0 -6 4 q0 9 29 33 q97 81 167 178 q70 97 62 138 q-2 11 -2 20 q0 22 16 22 q16 0 51.5 -31 q35.5 -31 35.5 -47 q0 -11 -20 -28.5 q-20 -17.5 -97 -116.5 q13 -15 17 -29.5 q4 -14.5 4 -46.5 l0 -67 q0 -103 -8 -164 q-8 -61 -15 -75 q-7 -14 -21 -14 q-14 0 -34.5 29 q-20.5 29 -20.5 47 q0 18 16 46 q16 28 22 63 q6 35 6 92 q0 57 -4 77 ZM660 361 q-63 -8 -90 -8 q-27 0 -47.5 9.5 q-20.5 9.5 -20.5 15 q0 5.5 31.5 9 q31.5 3.5 79 12.5 q47.5 9 82 20 q34.5 11 63 11 q28.5 0 47.5 -11 q19 -11 19 -19 q0 -19 -112 -32 q27 -11 40.5 -19 q13.5 -8 13.5 -15 q0 -7 -6 -17.5 q-6 -10.5 -6 -13.5 q46 7 83.5 14 q37.5 7 63.5 7 q26 0 51.5 -21 q25.5 -21 25.5 -34 q0 -18 -37 -18 q-12 0 -39 4 q-27 4 -70.5 4 q-43.5 0 -79.5 -2 q0 -66 6.5 -136 q6.5 -70 6.5 -92 q0 -50 -24 -94.5 q-24 -44.5 -44.5 -44.5 q-20.5 0 -34.5 26 q-21 38 -86 80 q-22 14 -22 21.5 q0 7.5 11.5 7.5 q11.5 0 36.5 -6 q25 -6 42 -6 q17 0 28.5 6 q11.5 6 14 52 q2.5 46 2.5 81.5 q0 35.5 -5 99.5 q-130 -12 -219 -34 q-17 -4 -33.5 -4 q-16.5 0 -40.5 16 q-24 16 -24 22.5 q0 6.5 35 7.5 q46 0 279 32 q-3 43 -21 69 ZM595 143 q0 -18 -9 -37.5 q-9 -19.5 -24 -19.5 q-24 0 -43 47.5 q-19 47.5 -19 68.5 q0 13 12 13 q12 0 47.5 -22 q35.5 -22 35.5 -50 Z" /><glyph glyph-name="" unicode="&#x7684;" d="M593 464 q-27 -35 -73.5 -70.5 q-46.5 -35.5 -61.5 -35.5 q-7 0 -7 7 q0 7 12 20 q64 72 112.5 171 q48.5 99 48.5 149 q0 13 -5 24.5 q-5 11.5 -5 23 q0 11.5 20.5 11.5 q20.5 0 69.5 -16 q49 -16 49 -34 q0 -11 -23.5 -36 q-23.5 -25 -60.5 -92.5 q-37 -67.5 -53 -89.5 q20 0 68 8 q48 8 74 24 q23 13 40 13 q17 0 61 -25 q44 -25 44 -37.5 q0 -12.5 -16 -33.5 q-28 -37 -32 -165 q-3 -74 -25 -176.5 q-22 -102.5 -67 -137 q-45 -34.5 -64 -34.5 q-19 0 -27 26 q-13 43 -57 95 q-24 29 -24 39 q0 6 9 6 q9 0 43 -14 q34 -14 55.5 -14 q21.5 0 34.5 24 q13 24 30.5 124 q17.5 100 17.5 200 q0 28 -3 40 q-3 12 -18 12 q-27 0 -103 -15 q-11 -2 -26.5 -2 q-15.5 0 -37.5 11 ZM210 468 q80 144 80 187 q0 8 -5 20.5 q-5 12.5 -5 24.5 q0 12 18.5 12 q18.5 0 67.5 -12 q49 -12 49 -25 q0 -9 -23 -31 q-51 -49 -132 -167 q53 13 84 31 q16 9 29.5 9 q13.5 0 55 -21 q41.5 -21 41.5 -33 q0 -12 -10.5 -29.5 q-10.5 -17.5 -14 -46 q-3.5 -28.5 -5.5 -95.5 q-6 -152 -25.5 -196 q-19.5 -44 -39 -44 q-19.5 0 -32.5 60 q-5 23 -11.5 23 q-6.5 0 -28.5 -6.5 q-22 -6.5 -38.5 -6.5 q-16.5 0 -29.5 1 q-4 -28 -12 -41.5 q-8 -13.5 -19 -13.5 q-11 0 -22 21 q-11 21 -11 49 l2 79 q0 76 -9 134 q-9 58 -22.5 79 q-13.5 21 -13.5 34 q0 13 18.5 13 q18.5 0 49.5 -11 q2 0 7 1 q5 1 7 1 ZM237 325 q18 6 36 14 q18 8 33 8 q15 0 27 -7 q12 -7 12 -16.5 q0 -9.5 -8.5 -15.5 q-8.5 -6 -43.5 -13 q-35 -7 -55 -6 q2 -64 -1 -127 q49 14 72 14 q23 0 30.5 -5 q7.5 -5 9.5 -5 q10 0 15.5 51.5 q5.5 51.5 5.5 131.5 q0 80 -4 92.5 q-4 12.5 -19 12.5 q-15 0 -55 -7.5 q-40 -7.5 -67 -10.5 q7 -32 12 -111 ZM662 287 q0 -30 -9.5 -45.5 q-9.5 -15.5 -26 -15.5 q-16.5 0 -34 25 q-17.5 25 -42 63 q-24.5 38 -24.5 49 q0 9 14 9 q14 0 56.5 -17 q42.5 -17 54 -30 q11.5 -13 11.5 -38 Z" /><glyph glyph-name="" unicode="&#x5730;" d="M586 398 q1 56 0 143 q-1 87 -6.5 125.5 q-5.5 38.5 -21.5 60 q-16 21.5 -16 32 q0 10.5 16.5 10.5 q16.5 0 69.5 -15.5 q53 -15.5 53 -38.5 q0 -12 -13 -38 q-5 -11 -12.5 -90.5 q-7.5 -79.5 -7.5 -150.5 q77 51 87.5 70 q10.5 19 25.5 19 q15 0 63 -20.5 q48 -20.5 48 -31 q0 -10.5 -17.5 -30 q-17.5 -19.5 -27 -44 q-9.5 -24.5 -22 -87 q-12.5 -62.5 -23.5 -88.5 q-11 -26 -31 -46.5 q-20 -20.5 -35 -20.5 q-15 0 -23 30 q-8 30 -31 62 q-10 13 -10 20 q0 7 9 7 q9 0 23.5 -7 q14.5 -7 22 -7 q7.5 0 12 6 q4.5 6 11.5 31 q7 25 12 63.5 q5 38.5 5 58 q0 19.5 -12 19.5 q-3 0 -25 -12 l-63 -36 q-2 -81 -17.5 -170.5 q-15.5 -89.5 -33 -89.5 q-17.5 0 -17.5 60 q0 45 5 164 l-75 -45 q-2 -45 -2 -93.5 q0 -48.5 8.5 -80 q8.5 -31.5 26 -49.5 q17.5 -18 59 -27.5 q41.5 -9.5 94.5 -9.5 q53 0 111.5 13 q58.5 13 83.5 39 q25 26 37 98 q12 72 24 72 q12 0 14 -58 q3 -88 19.5 -111.5 q16.5 -23.5 16.5 -35.5 q0 -33 -94 -63 q-94 -30 -191.5 -30 q-97.5 0 -161.5 23 q-64 23 -86.5 82.5 q-22.5 59.5 -17.5 193.5 q-10 -6 -11 -7 q-33 -23 -48 -23 q-15 0 -34 8 q-19 8 -19 16 q0 8 26.5 15.5 q26.5 7.5 87.5 38.5 q0 52 -6.5 92.5 q-6.5 40.5 -18.5 56 q-12 15.5 -12 28 q0 12.5 20.5 12.5 q20.5 0 56 -15.5 q35.5 -15.5 35.5 -38.5 q0 -9 -6.5 -27.5 q-6.5 -18.5 -9.5 -75.5 q25 14 75 44 ZM303 344 l-2 -154 q82 41 105 41 q9 0 9 -8.5 q0 -8.5 -41 -36.5 q-84 -58 -117 -83.5 q-33 -25.5 -66 -56.5 q-17 -16 -29.5 -16 q-12.5 0 -52 30 q-39.5 30 -39.5 40 q0 10 39 15.5 q39 5.5 62.5 13.5 q23.5 8 67.5 29 l2 168 q-34 -8 -54 -8 q-20 0 -41.5 8 q-21.5 8 -21.5 16.5 q0 8.5 22 11.5 q46 7 96 28 q2 133 -4 177 q-6 44 -27.5 68 q-21.5 24 -21.5 37.5 q0 13.5 21.5 13.5 q21.5 0 74.5 -16 q53 -16 53 -38 q0 -10 -10.5 -32.5 q-10.5 -22.5 -16 -61 q-5.5 -38.5 -7.5 -121.5 q41 18 55.5 18 q14.5 0 33 -7.5 q18.5 -7.5 18.5 -17.5 q0 -23 -108 -58 Z" /><glyph glyph-name="" unicode="&#x7b2c;" d="M682 690 q27 2 67.5 14.5 q40.5 12.5 57 12.5 q16.5 0 36 -10 q19.5 -10 19.5 -22.5 q0 -12.5 -41.5 -21.5 q-41.5 -9 -105.5 -9 q-24 0 -51 10 q-42 -61 -91.5 -93 q-49.5 -32 -63.5 -32 q-6 0 -6 5 q0 5 10 14 q51 52 79 103 q28 51 28 78 q0 7 -5 15 q-5 8 -5 18 q0 10 16.5 10 q16.5 0 55 -16.5 q38.5 -16.5 38.5 -29.5 q0 -8 -15.5 -22.5 q-15.5 -14.5 -22.5 -23.5 ZM391 667 q39 1 69 13.5 q30 12.5 46 12.5 q16 0 32.5 -11 q16.5 -11 16.5 -21 q0 -15 -45.5 -21 q-45.5 -6 -76.5 -6 q-31 0 -59 7 q-41 -66 -101.5 -109 q-60.5 -43 -76.5 -43 q-6 0 -6 6 q0 6 17 22 q56 55 91 114.5 q35 59.5 35 89.5 q0 5 -3 13.5 q-3 8.5 -3 19 q0 10.5 13.5 10.5 q13.5 0 51 -18 q37.5 -18 37.5 -27.5 q0 -9.5 -12 -20 q-12 -10.5 -26 -31.5 ZM666 622 q56 0 75 -15 q19 -15 19 -39 q0 -25 -25 -25 q-15 0 -37.5 15 q-22.5 15 -36 32.5 q-13.5 17.5 -13.5 24.5 q0 7 18 7 ZM385 606 q24 0 51.5 -12 q27.5 -12 27.5 -39.5 q0 -27.5 -22 -27.5 q-22 0 -48.5 28.5 q-26.5 28.5 -26.5 39.5 q0 11 18 11 ZM465 457 q-84 -16 -98 -16 q-14 0 -34.5 15 q-20.5 15 -20.5 23 q0 8 43.5 8 q43.5 0 132.5 12.5 q89 12.5 125.5 25 q36.5 12.5 51 12.5 q14.5 0 51 -24 q36.5 -24 36.5 -33.5 q0 -9.5 -19.5 -21.5 q-19.5 -12 -36.5 -42 q20 -10 20 -21.5 q0 -11.5 -24.5 -17.5 q-24.5 -6 -145.5 -19 q-2 -45 -2 -73 l50 5 q45 4 95.5 12.5 q50.5 8.5 67 17 q16.5 8.5 31 8.5 q14.5 0 51.5 -28.5 q37 -28.5 37 -43.5 q0 -10 -18.5 -28.5 q-18.5 -18.5 -25.5 -48.5 q-18 -78 -49.5 -108 q-31.5 -30 -49 -30 q-17.5 0 -25.5 23 q-13 40 -54 76 q-13 12 -13 19 q0 7 8 7 q8 0 31 -6.5 q23 -6.5 37 -6.5 q25 0 34.5 31 q9.5 31 9.5 50 q0 19 -4 24 q-4 5 -16 5 q-60 0 -197 -16 q0 -100 2 -163 q2 -63 2 -89.5 q0 -26.5 -9 -65 q-9 -38.5 -27 -38.5 q-18 0 -39 28 q-21 28 -21 45 q0 17 15.5 54 q15.5 37 16.5 166 q-45 -56 -112 -101 q-67 -45 -135 -70 q-68 -25 -95 -25 q-11 0 -11 4 q0 8 30 22 q181 87 287 221 q-107 -16 -155 -45 q-24 -15 -34.5 -15 q-10.5 0 -27 25.5 q-16.5 25.5 -16.5 34 q0 8.5 17.5 15 q17.5 6.5 24.5 22 q7 15.5 7 36.5 q0 29 -11 44 q-11 15 -11 25.5 q0 10.5 19.5 10.5 q19.5 0 55.5 -16 l165 17 q-4 46 -17 68 ZM551 397 q53 7 61 8 q8 1 17.5 7 q9.5 6 14.5 25.5 q5 19.5 5 31 q0 11.5 -21 11.5 q-28 0 -127 -16 q30 -8 43.5 -15.5 q13.5 -7.5 13.5 -19.5 q0 -12 -7 -32 ZM484 351 q-98 -12 -158 -16 q0 -37 -14 -81 l173 24 q0 56 -1 73 Z" /><glyph glyph-name="" unicode="&#x5f1f;" d="M747 738 q0 -11 -23 -22 q-40 -20 -58 -32 q-18 -12 -71.5 -40 q-53.5 -28 -69.5 -28 q-6 0 -6 4 q0 9 30 37 q81 76 76 107 q-2 12 -2 25 q0 13 14.5 13 q14.5 0 62 -24 q47.5 -24 47.5 -40 ZM463 657 q0 -50 -30 -50 q-13 0 -27.5 11 q-14.5 11 -50 50.5 q-35.5 39.5 -35.5 48.5 q0 9 15 9 q15 0 52 -6 q37 -6 56.5 -17.5 q19.5 -11.5 19.5 -45.5 ZM446 527 q-23 -6 -52 -13.5 q-29 -7.5 -50 -7.5 q-21 0 -43 19 q-22 19 -22 25 q0 6 9 7.5 q9 1.5 40 1.5 q77 0 190 21.5 q113 21.5 137 41.5 q8 7 17 7 q16 0 65.5 -28.5 q49.5 -28.5 49.5 -39 q0 -10.5 -25.5 -23 q-25.5 -12.5 -38 -28 q-12.5 -15.5 -12.5 -23 q0 -7.5 2 -9.5 q18 -11 18 -22 q0 -17 -38 -20 q-99 -9 -161 -19 q-1 -17 -1 -78 q85 10 142 15.5 q57 5.5 83.5 17 q26.5 11.5 40.5 11.5 q14 0 36.5 -16.5 q22.5 -16.5 46 -35 q23.5 -18.5 23.5 -29.5 q0 -8 -18 -22 q-18 -14 -33 -62 q-15 -48 -32.5 -73.5 q-17.5 -25.5 -46.5 -44.5 q-29 -19 -45.5 -19 q-16.5 0 -20.5 25 q-4 25 -48 77 q-13 16 -13 24 q0 8 9 8 q9 0 36.5 -12.5 q27.5 -12.5 40.5 -12.5 q22 0 36 43 q14 43 14 58.5 q0 15.5 -8 18.5 q-8 3 -28 3 q-68 0 -215 -18 q0 -80 1 -155 l2 -131 q0 -65 -11.5 -90.5 q-11.5 -25.5 -27.5 -25.5 q-16 0 -37.5 29.5 q-21.5 29.5 -21.5 47 q0 17.5 16 54 q16 36.5 20 190.5 q-50 -68 -122 -121.5 q-72 -53.5 -133 -80 q-61 -26.5 -84 -26.5 q-10 0 -10 7 q0 7 26 22 q83 48 163 120 q80 72 129 146 q-77 -14 -109 -27.5 q-32 -13.5 -54.5 -37.5 q-22.5 -24 -35 -24 q-12.5 0 -30 28.5 q-17.5 28.5 -17.5 36.5 q0 8 5 13 q5 5 26 14 q10 4 15.5 21.5 q5.5 17.5 5.5 47.5 q0 30 -11 49 q-11 19 -11 30.5 q0 11.5 19 11.5 q19 0 62 -18 q43 0 164 21 q-5 49 -24 80 ZM535 459 q78 15 92.5 17.5 q14.5 2.5 24 32.5 q9.5 30 9.5 39.5 q0 9.5 -16 9.5 q-44 0 -150 -20 q26 -9 38.5 -16 q12.5 -7 12.5 -15.5 q0 -8.5 -5 -20.5 q-5 -12 -6 -27 ZM472 405 q-65 -11 -155 -17 q0 -27 -4 -90 q98 23 160 33 q0 57 -1 74 Z" /><glyph glyph-name="" unicode="&#x70b9;" d="M539 576 q47 6 106 38 q21 11 41 11 q20 0 46 -11 q26 -11 26 -21.5 q0 -10.5 -15 -17.5 q-15 -7 -80 -21 q-65 -14 -88.5 -14 q-23.5 0 -37.5 2 l-5 -134 q73 17 95 32 q18 12 32 12 q14 0 68.5 -25.5 q54.5 -25.5 54.5 -41.5 q0 -9 -18 -23 q-65 -53 -65 -96 q22 -15 22 -28 q0 -6 -6 -12.5 q-6 -6.5 -33 -9.5 l-116 -13 q-89 -9 -164 -14 q-3 -34 -25 -34 q-16 0 -25.5 13 q-9.5 13 -18 53 q-8.5 40 -24.5 82 q-16 42 -30 57.5 q-14 15.5 -14 26 q0 10.5 23 10.5 q23 0 67 -13 q45 1 111 12 q-1 159 -10 222.5 q-9 63.5 -32.5 90 q-23.5 26.5 -23.5 39 q0 12.5 21 12.5 q21 0 67.5 -12.5 q46.5 -12.5 62 -20.5 q15.5 -8 15.5 -19 q0 -11 -7 -28 q-17 -40 -20 -104 ZM399 229 q105 13 201 31 q19 9 27 46.5 q8 37.5 8 48.5 q0 11 -6.5 14.5 q-6.5 3.5 -25.5 3.5 q-19 0 -80.5 -6.5 q-61.5 -6.5 -144.5 -21.5 l21 -116 ZM198 152 q7 0 18 -24 q11 -24 11 -55 q0 -49 -26.5 -97.5 q-26.5 -48.5 -50.5 -48.5 q-17 0 -27.5 23 q-10.5 23 -10.5 42 q0 19 19 38 q34 34 51 94 q8 28 16 28 ZM727 149 q15 0 101.5 -30.5 q86.5 -30.5 98 -63.5 q11.5 -33 11.5 -58 q0 -38 -27 -38 q-16 0 -41.5 20 q-25.5 20 -63 57.5 q-37.5 37.5 -63 67.5 q-25.5 30 -25.5 37.5 q0 7.5 9 7.5 ZM541 126 q16 0 56.5 -13.5 q40.5 -13.5 56.5 -29 q16 -15.5 16 -45 q0 -29.5 -8 -40 q-8 -10.5 -19 -10.5 q-11 0 -22.5 8 q-11.5 8 -35 36 q-23.5 28 -40 53.5 q-16.5 25.5 -16.5 33 q0 7.5 12 7.5 ZM339 112 q15 0 58.5 -15.5 q43.5 -15.5 52 -36.5 q8.5 -21 8.5 -41.5 q0 -20.5 -8 -31 q-8 -10.5 -20 -10.5 q-28 0 -65 55.5 q-37 55.5 -37 71.5 q0 8 11 8 Z" /><glyph glyph-name="" unicode="&#x4e1c;" d="M371 514 q-67 -14 -93 -14 q-26 0 -58.5 12.5 q-32.5 12.5 -32.5 23 q0 10.5 41.5 10.5 q41.5 0 169.5 21 q45 94 45 145 q0 23 -7 37 q-7 14 -7 22 q0 18 23.5 18 q23.5 0 66.5 -26 q43 -26 43 -47 q0 -11 -15 -23.5 q-15 -12.5 -74 -111.5 q117 21 156 32 q63 18 90 18 q27 0 55 -19.5 q28 -19.5 28 -32 q0 -12.5 -10.5 -18.5 q-10.5 -6 -24.5 -7.5 q-14 -1.5 -53 -1.5 q-101 0 -270 -25 q-76 -133 -132 -209 q69 4 176 20 q-4 52 -9 74.5 q-5 22.5 -15.5 36.5 q-10.5 14 -10.5 24 q0 15 20.5 15 q20.5 0 59 -12.5 q38.5 -12.5 38.5 -33.5 q0 -9 -7 -24 q-6 -13 -7 -68 q37 8 72 18 q35 10 59.5 10 q24.5 0 53.5 -19 q29 -19 29 -34 q0 -20 -47 -20 q-79 0 -167 -7 q2 -138 12 -237 q2 -17 2 -30 q0 -48 -31.5 -89.5 q-31.5 -41.5 -53.5 -41.5 q-17 0 -26.5 27 q-9.5 27 -75.5 85 q-18 16 -18 22.5 q0 6.5 11 6.5 q11 0 36.5 -5.5 q25.5 -5.5 42 -5.5 q16.5 0 23.5 8.5 q7 8.5 10.5 51 q3.5 42.5 3.5 91 q0 48.5 -3 110.5 q-104 -12 -147.5 -21.5 q-43.5 -9.5 -67 -26 q-23.5 -16.5 -35 -16.5 q-11.5 0 -24.5 28 q-13 28 -13 43 q0 15 21 22 q34 11 69.5 60 q35.5 49 77.5 134 ZM310 234 q20 0 20 -60.5 q0 -60.5 -48 -120.5 q-48 -60 -75.5 -60 q-27.5 0 -27.5 60 q0 19 5.5 31.5 q5.5 12.5 21.5 25.5 q51 44 76 95 q14 29 28 29 ZM861 66 q0 -23 -7.5 -44.5 q-7.5 -21.5 -20 -21.5 q-12.5 0 -26.5 10 q-14 10 -34.5 32 q-20.5 22 -69 79 q-48.5 57 -57.5 69.5 q-9 12.5 -9 19.5 q0 7 16.5 7 q16.5 0 77 -19 q60.5 -19 95.5 -52.5 q35 -33.5 35 -79.5 Z" /><glyph glyph-name="" unicode="&#x51ac;" d="M392 492 q-36 -28 -70.5 -45.5 q-34.5 -17.5 -44 -17.5 q-9.5 0 -9.5 4 q0 9 24 29 q59 50 122.5 139.5 q63.5 89.5 63.5 128.5 q0 10 -3 18.5 q-3 8.5 -3 15.5 q0 18 21 18 q21 0 63.5 -25 q42.5 -25 42.5 -44 q0 -12 -15 -21.5 q-15 -9.5 -28.5 -23.5 q-13.5 -14 -47.5 -56 q67 0 116 29 q29 17 46 17 q17 0 50.5 -29 q33.5 -29 33.5 -43 q0 -14 -27 -26 q-27 -12 -63.5 -61 q-36.5 -49 -70.5 -87 q161 -108 394 -155 q42 -9 42 -23 q0 -8 -12.5 -13 q-12.5 -5 -83.5 -17.5 q-71 -12.5 -100 -12.5 q-29 0 -49.5 12 q-20.5 12 -86 61.5 q-65.5 49.5 -139.5 110.5 q-62 -64 -137.5 -107.5 q-75.5 -43.5 -166.5 -68.5 q-91 -25 -128 -25 q-16 0 -16 6 q0 10 51 29 q227 88 342 210 q-73 56 -111 73 ZM484 584 q-41 -46 -64 -67 q33 -2 115 -64 q31 35 52.5 73 q21.5 38 21.5 44.5 q0 6.5 -16 4.5 q-30 -4 -55 -4 q-25 0 -54 13 ZM479 260 q99 0 133.5 -31 q34.5 -31 34.5 -66 q0 -28 -26.5 -28 q-26.5 0 -98.5 53 q-72 53 -72 62.5 q0 9.5 29 9.5 ZM427 96 q51 0 118.5 -16.5 q67.5 -16.5 93.5 -50 q26 -33.5 26 -68 q0 -34.5 -30 -34.5 q-16 0 -34.5 11 q-18.5 11 -54.5 37 l-83 62 q-48 36 -53.5 41 q-5.5 5 -5.5 11.5 q0 6.5 23 6.5 Z" /><glyph glyph-name="" unicode="&#x6d1e;" d="M440 587 q2 -134 -4 -302 q-6 -168 -13 -211 q-7 -43 -15.5 -58 q-8.5 -15 -21.5 -15 q-13 0 -35.5 32.5 q-22.5 32.5 -22.5 55.5 q0 23 21 65 q9 18 16 121 q7 103 7 202.5 q0 99.5 -8 111.5 q-14 22 -14 35 q0 13 18.5 13 q18.5 0 51.5 -12 q117 11 203 29 q86 18 120 36 q14 7 30 7 q16 0 53.5 -19 q37.5 -19 53 -30 q15.5 -11 15.5 -22.5 q0 -11.5 -12 -34 q-12 -22.5 -12 -91 q0 -68.5 11 -227 q11 -158.5 11 -173.5 q0 -66 -30 -114 q-30 -48 -50.5 -48 q-20.5 0 -30.5 27.5 q-10 27.5 -29.5 53.5 q-19.5 26 -42 42.5 q-22.5 16.5 -22.5 24 q0 7.5 11 7.5 q11 0 38.5 -6 q27.5 -6 42 -6 q14.5 0 19.5 9.5 q5 9.5 7 38 q2 28.5 2 92.5 q0 64 -9 214.5 q-9 150.5 -21.5 171.5 q-12.5 21 -46.5 21 q-19 0 -48 -6 q-89 -20 -243 -35 ZM201 678 q18 0 51.5 -7.5 q33.5 -7.5 47.5 -15 q14 -7.5 19.5 -19 q5.5 -11.5 5.5 -34.5 q0 -50 -30 -50 q-30 0 -71.5 50.5 q-41.5 50.5 -41.5 63 q0 12.5 19 12.5 ZM664 534 q14 0 37 -8 q23 -8 23 -17.5 q0 -9.5 -14 -18.5 q-14 -9 -68.5 -23 q-54.5 -14 -88.5 -14 q-34 0 -55 6 q-21 6 -21 14.5 q0 8.5 33 12.5 q52 7 121 39 q20 9 33 9 ZM128 480 q42 0 84 -20.5 q42 -20.5 42 -64.5 q0 -19 -9.5 -30.5 q-9.5 -11.5 -24.5 -11.5 q-26 0 -69 52.5 q-43 52.5 -43 63.5 q0 11 20 11 ZM523 359 q78 10 115 33 q18 12 31 12 q13 0 50 -20.5 q37 -20.5 37 -32.5 q0 -12 -17 -28 q-33 -30 -43 -69 q20 -13 20 -27 q0 -4 -2.5 -8 q-2.5 -4 -7.5 -6.5 q-5 -2.5 -35 -6.5 l-58 -7 q-29 -3 -54 -4 q-9 -31 -29 -31 q-8 0 -14.5 10.5 q-6.5 10.5 -7.5 25.5 q-12 100 -35 130 q-13 16 -13 28 q0 12 17.5 12 q17.5 0 45.5 -11 ZM560 234 q29 4 53 9 q24 5 29 17.5 q5 12.5 8 33.5 q3 21 3 29 q0 19 -16 19 q-24 0 -93 -13 q12 -45 16 -95 ZM330 373 q0 -13 -9 -35 q-77 -192 -91.5 -231.5 q-14.5 -39.5 -25.5 -80.5 q-11 -39 -27 -39 q-16 0 -43.5 59.5 q-27.5 59.5 -27.5 72.5 q0 13 6 17 q6 4 22 4 q16 0 32.5 14 q16.5 14 46.5 60 q30 46 81 137 q18 32 30 32 q6 0 6 -10 Z" /><glyph glyph-name="" unicode="&#x77ed;" d="M251 482 q-41 -50 -75.5 -74.5 q-34.5 -24.5 -42 -24.5 q-7.5 0 -7.5 4 q0 9 32 50 q32 41 68 122 q36 81 36 115 q0 11 -5 21 q-5 10 -5 21 q0 11 17.5 11 q17.5 0 63 -19.5 q45.5 -19.5 45.5 -34 q0 -14.5 -13 -25.5 q-13 -11 -30 -35 q-17 -24 -26.5 -42.5 q-9.5 -18.5 -31.5 -53.5 q27 3 63 19 q64 29 87.5 29 q23.5 0 39.5 -7 q16 -7 16 -17.5 q0 -10.5 -8 -16 q-8 -5.5 -59 -21 q-51 -15.5 -88 -22.5 q21 -11 30.5 -20 q9.5 -9 9.5 -19 q0 -10 -8.5 -28 q-8.5 -18 -14.5 -55 q76 19 91.5 19 q15.5 0 30 -7 q14.5 -7 14.5 -15 q0 -13 -36 -22 l-107 -27 l-6 -41 q125 -60 125 -110 q0 -21 -7.5 -37 q-7.5 -16 -19.5 -16 q-12 0 -24 10 q-12 10 -37.5 47 q-25.5 37 -43.5 69 q-31 -141 -112 -207.5 q-81 -66.5 -103 -66.5 q-4 0 -4 4 q0 9 21 33 q65 73 96 134 q31 61 49 163 q-60 -17 -92 -31.5 q-32 -14.5 -48.5 -14.5 q-16.5 0 -49 24 q-32.5 24 -32.5 36 q0 17 49 13 q10 -1 22 -1 q58 0 160 26 q5 42 5 72.5 q0 30.5 -10 62.5 q-14 2 -25 6 ZM838 672 q0 -7 -7 -14 q-7 -7 -33 -17 q-26 -10 -91.5 -25.5 q-65.5 -15.5 -105.5 -15.5 q-40 0 -67 9.5 q-27 9.5 -27 17 q0 7.5 32.5 11.5 q32.5 4 88 20 q55.5 16 89 31 q33.5 15 56 15 q22.5 0 44 -9 q21.5 -9 21.5 -23 ZM557 485 q58 6 106.5 19 q48.5 13 69 27.5 q20.5 14.5 35 14.5 q14.5 0 62 -26 q47.5 -26 47.5 -40 q0 -14 -21 -27 q-41 -26 -64 -80 q18 -10 18 -23 q0 -13 -8 -20 q-8 -7 -22 -8 q-67 -3 -198 -31 q-6 -28 -24 -28 q-13 0 -23.5 20.5 q-10.5 20.5 -11.5 47.5 q-1 27 -11 65 q-10 38 -23.5 58 q-13.5 20 -13.5 31.5 q0 11.5 19 11.5 q19 0 63 -12 ZM584 334 q60 13 125 30 q17 17 23.5 51.5 q6.5 34.5 6.5 45.5 q0 11 -17 11 q-3 0 -146 -24 q2 -56 8 -114 ZM668 79 q51 113 51 157 q0 12 -6 25 q-6 13 -6 27.5 q0 14.5 17 14.5 q17 0 57.5 -26 q40.5 -26 40.5 -39.5 q0 -13.5 -18 -30.5 q-42 -40 -83 -119 q114 22 162 22 q48 0 72.5 -25 q24.5 -25 24.5 -39 q0 -19 -37 -19 q-9 0 -20 1 q-77 8 -156 8 q-167 0 -307 -36 q-15 -4 -33.5 -4 q-18.5 0 -44 19 q-25.5 19 -25.5 27 q0 8 9.5 10 q9.5 2 37 2 q27.5 0 106.5 7 q79 7 158 18 ZM633 139 q0 -40 -26 -40 q-15 0 -32.5 14.5 q-17.5 14.5 -34.5 53.5 q-17 39 -17 52 q0 10 13 10 q13 0 55 -22 q42 -22 42 -68 Z" /><glyph glyph-name="" unicode="&#x5bf9;" d="M760 513 q45 9 82 18.5 q37 9.5 63.5 9.5 q26.5 0 55.5 -23 q29 -23 29 -35 q0 -18 -59 -18 l-73 3 q-39 0 -98 -6 q3 -93 11 -215.5 q8 -122.5 8 -168.5 q0 -46 -13.5 -78 q-13.5 -32 -32.5 -57.5 q-19 -25.5 -40 -25.5 q-21 0 -28 25 q-14 48 -73 99 q-28 24 -28 32.5 q0 8.5 12 8.5 q12 0 41 -9 q29 -9 47.5 -9 q18.5 0 24 21 q5.5 21 8 87 q2.5 66 2.5 138.5 q0 72.5 -2 144.5 q-102 -12 -145 -25 q-43 -13 -61 -13 q-18 0 -40 17.5 q-22 17.5 -22 25 q0 7.5 34 9.5 q90 6 232 32 q-3 114 -11 162.5 q-8 48.5 -26.5 72 q-18.5 23.5 -18.5 36 q0 12.5 18 12.5 q18 0 74.5 -19 q56.5 -19 56.5 -39 q0 -10 -11.5 -29 q-11.5 -19 -14.5 -63 q-3 -44 -2 -121 ZM318 261 q-66 -111 -141 -158 q-75 -47 -99 -47 q-6 0 -6 4 q0 10 44.5 48.5 q44.5 38.5 83.5 89 q39 50.5 76 118.5 q-39 50 -106 125 q-19 22 -19 30.5 q0 8.5 8 8.5 q17 0 62 -31.5 q45 -31.5 85 -70.5 q12 26 26.5 81 q14.5 55 14.5 68.5 q0 13.5 -8.5 13.5 q-8.5 0 -34 -7 q-25.5 -7 -52 -18 q-26.5 -11 -42 -11 q-15.5 0 -41.5 10.5 q-26 10.5 -26 21.5 q0 11 28 14 q54 6 101 23 q47 17 73 39 q17 14 33 14 q16 0 55.5 -23.5 q39.5 -23.5 39.5 -34 q0 -10.5 -17 -26.5 q-30 -29 -48 -79 q-30 -87 -54 -134 q92 -96 92 -151 q0 -29 -8 -45.5 q-8 -16.5 -20 -16.5 q-23 0 -43.5 47 q-20.5 47 -56.5 97 ZM484 361 q22 0 75 -21.5 q53 -21.5 53 -72.5 q0 -22 -9 -34 q-9 -12 -23 -12 q-31 0 -70 56.5 q-39 56.5 -39 73.5 q0 10 13 10 Z" /><glyph glyph-name="" unicode="&#x591a;" d="M409 560 q-40 -19 -69.5 -26 q-29.5 -7 -39 -7 q-9.5 0 -9.5 3 q0 6 31 26 q98 62 146.5 115.5 q48.5 53.5 42.5 79.5 q-1 7 -1 12 q0 20 17.5 20 q17.5 0 55.5 -22.5 q38 -22.5 38 -35.5 q0 -13 -18.5 -23.5 q-18.5 -10.5 -31.5 -22.5 q31 -1 63.5 6 q32.5 7 50.5 18 q18 11 30.5 11 q12.5 0 50.5 -26.5 q38 -26.5 38 -39 q0 -12.5 -30 -26.5 q-30 -14 -52 -36 q-106 -107 -185.5 -159.5 q-79.5 -52.5 -153 -75 q-73.5 -22.5 -92.5 -22.5 q-19 0 -19 5 q0 8 38 25 q92 40 171 96.5 q79 56.5 131 116 q52 59.5 52 71.5 q0 8 -17 5 q-36 -5 -59 -5 q-23 0 -41 12 q-46 -45 -107 -79 q85 -15 85 -61 q0 -12 -9 -21 q-9 -9 -23 -9 q-32 0 -84 75 ZM430 222 q-34 -14 -71 -22.5 q-37 -8.5 -49.5 -8.5 q-12.5 0 -12.5 4 q0 8 42 29 q107 54 174 112 q67 58 75 95 q5 24 21.5 24 q16.5 0 45 -21 q28.5 -21 28.5 -31.5 q0 -10.5 -36 -34.5 q17 -2 37.5 -2 q20.5 0 48.5 12.5 q28 12.5 42.5 12.5 q14.5 0 51.5 -29 q37 -29 37 -41 q0 -12 -26 -25.5 q-26 -13.5 -55 -49.5 q-77 -96 -147.5 -154.5 q-70.5 -58.5 -148 -95 q-77.5 -36.5 -167 -58 q-89.5 -21.5 -116.5 -21.5 q-27 0 -27 6 q0 10 54 28 q154 52 260 123 q106 71 171 150.5 q65 79.5 65 91.5 q0 6 -13 6 l-24 0 q-35 0 -75 18 q-70 -68 -151 -104 q58 -17 76 -35 q18 -18 18 -39.5 q0 -21.5 -8.5 -31.5 q-8.5 -10 -22.5 -10 q-14 0 -42.5 28.5 q-28.5 28.5 -54.5 73.5 Z" /><glyph glyph-name="" unicode="&#x513f;" d="M913 274 q12 0 14.5 -44 q2.5 -44 8 -75 q5.5 -31 19.5 -54.5 q14 -23.5 14 -35.5 q0 -25 -58 -50 q-58 -25 -151 -25 q-123 0 -172 49 q-49 49 -49 162 q0 83 3 192 l5 176 q0 76 -16.5 100 q-16.5 24 -16.5 37 q0 13 19 13 q19 0 75 -23 q56 -23 56 -43 q0 -9 -13 -30 q-20 -28 -33 -164.5 q-13 -136.5 -13 -229.5 q0 -106 37.5 -127.5 q37.5 -21.5 100.5 -21.5 q37 0 69.5 10.5 q32.5 10.5 43 20.5 q10.5 10 19.5 38 q9 28 21 91 q7 34 17 34 ZM443 571 q0 -9 -8.5 -35 q-8.5 -26 -11.5 -83 q-11 -194 -53.5 -285 q-42.5 -91 -128 -140.5 q-85.5 -49.5 -112.5 -49.5 q-8 0 -8 7 q0 7 25 25 q91 64 131.5 136.5 q40.5 72.5 53.5 166.5 q13 94 13 163 q0 83 -21.5 107 q-21.5 24 -21.5 36.5 q0 12.5 19.5 12.5 q19.5 0 55.5 -14 q36 -14 51.5 -23 q15.5 -9 15.5 -24 Z" /><glyph glyph-name="" unicode="&#x8033;" d="M348 623 q-26 -4 -47 -4 q-21 0 -42.5 15 q-21.5 15 -21.5 22 q0 7 42.5 8 q42.5 1 189.5 24 q147 23 207 37 q60 14 87 14 q27 0 56 -18.5 q29 -18.5 29 -30 q0 -11.5 -12 -17.5 q-12 -6 -35.5 -6.5 q-23.5 -0.5 -48.5 -0.5 q-25 0 -92 -5 q25 -10 36.5 -19 q11.5 -9 11.5 -20 q0 -11 -6 -29 q-13 -41 -10 -292 q60 10 110.5 20 q50.5 10 80.5 10 q30 0 57 -26 q27 -26 27 -42 q0 -22 -40 -17 q-40 5 -102.5 5 q-62.5 0 -132.5 -4 q2 -190 -12.5 -275 q-14.5 -85 -32.5 -85 q-14 0 -23 54.5 q-9 54.5 -9 102.5 l1 61 q1 37 1 137 q-107 -9 -222.5 -27.5 q-115.5 -18.5 -163.5 -31 q-48 -12.5 -66.5 -12.5 q-18.5 0 -49 22.5 q-30.5 22.5 -30.5 29.5 q0 7 33 7 q60 0 245 24 q3 88 3 138.5 q0 50.5 -2.5 131.5 q-2.5 81 -15.5 99 ZM594 655 q-80 -7 -187 -23 q23 -9 34 -16 q11 -7 11 -13.5 q0 -6.5 -8.5 -20.5 q-8.5 -14 -9.5 -52 q31 3 63 15.5 q32 12.5 49 12.5 q17 0 33.5 -8 q16.5 -8 16.5 -19 q0 -17 -43 -25.5 q-43 -8.5 -69 -8.5 q-26 0 -51 6 l-3 -100 q34 5 65 15.5 q31 10.5 50 10.5 q19 0 35.5 -9.5 q16.5 -9.5 16.5 -18.5 q0 -17 -50.5 -23.5 q-50.5 -6.5 -72.5 -6.5 q-22 0 -45 4 l-4 -113 l192 27 l0 200 q0 77 -5 109 q-5 32 -18 57 Z" /><glyph glyph-name="" unicode="&#x4e8c;" d="M812 547 q0 -11 -21.5 -20.5 q-21.5 -9.5 -156 -29 q-134.5 -19.5 -185.5 -19.5 q-51 0 -87.5 18.5 q-36.5 18.5 -36.5 27.5 q0 9 33 11 q119 9 244 39 q84 21 116 21 q32 0 63 -17 q31 -17 31 -31 ZM876 229 q52 0 91 -33.5 q39 -33.5 39 -56.5 q0 -23 -42 -23 q-16 0 -36 4 q-98 17 -196 17 q-98 0 -231 -8 q-133 -8 -215 -27 q-36 -8 -60.5 -8 q-24.5 0 -42 13 q-17.5 13 -33.5 29 q-16 16 -16 25.5 q0 9.5 27 9.5 l47 -3 q77 0 301.5 20 q224.5 20 282 30.5 q57.5 10.5 84.5 10.5 Z" /><glyph glyph-name="" unicode="&#x53d1;" d="M429 459 q-63 -10 -93 -19 q-30 -9 -52 -23.5 q-22 -14.5 -33 -14.5 q-11 0 -29 27.5 q-18 27.5 -18 37.5 q0 10 25.5 18.5 q25.5 8.5 40 35 q14.5 26.5 14.5 53.5 q0 27 -9.5 45.5 q-9.5 18.5 -9.5 34 q0 15.5 18.5 15.5 q18.5 0 59 -29 q40.5 -29 40.5 -41.5 q0 -12.5 -10 -24.5 q-30 -39 -57 -88 q65 10 129 22 q38 124 38 196 q0 21 -4 30 q-13 24 -13 40 q0 16 20 16 q20 0 67 -29.5 q47 -29.5 47 -48.5 q0 -10 -13 -23.5 q-13 -13.5 -25 -44.5 q-12 -31 -40 -120 q67 13 112 26 q45 13 82 13 q37 0 61 -16.5 q24 -16.5 24 -28.5 q0 -21 -52 -23 q-135 -7 -243 -24 q-22 -66 -45 -117 q36 2 80.5 15 q44.5 13 67 27.5 q22.5 14.5 44 14.5 q21.5 0 61 -25 q39.5 -25 39.5 -37.5 q0 -12.5 -14.5 -22.5 q-14.5 -10 -29 -30 q-14.5 -20 -22.5 -41 q-26 -66 -60 -114 q61 -53 143 -88.5 q82 -35.5 216 -62.5 q32 -7 32 -18 q0 -19 -89 -30.5 q-89 -11.5 -120.5 -11.5 q-31.5 0 -52.5 12.5 q-21 12.5 -60 51.5 l-102 102 q-49 -54 -121 -84 q-72 -30 -136 -30 q-64 0 -64 10 q0 8 40 19 q91 22 143 53.5 q52 31.5 88 79.5 q-75 75 -144 102 q-60 -87 -117.5 -139 q-57.5 -52 -117 -80 q-59.5 -28 -79.5 -28 q-9 0 -9 5 q0 10 38 35 q115 77 189.5 178.5 q74.5 101.5 124.5 241.5 ZM446 324 q-10 -21 -28 -51 q27 0 53.5 -9.5 q26.5 -9.5 101.5 -75.5 q23 38 34 80 q11 42 11 54 q0 12 -18 12 q-18 0 -64 -12 q-31 -7 -49.5 -7 q-18.5 0 -40.5 9 ZM702 692 q81 0 108.5 -25.5 q27.5 -25.5 27.5 -57.5 q0 -14 -8 -22.5 q-8 -8.5 -21 -8.5 q-27 0 -82 44.5 q-55 44.5 -55 59.5 q0 10 30 10 Z" /><glyph glyph-name="" unicode="&#x6cd5;" d="M646 473 l-2 -131 q139 25 180 37 q37 10 70 10 q33 0 61 -18.5 q28 -18.5 28 -31.5 q0 -24 -89 -24 q-124 0 -290 -22 q47 -30 47 -40.5 q0 -10.5 -19 -23.5 q-38 -25 -147 -135 l231 35 q-44 70 -44 80 q0 10 9 10 q22 0 98.5 -48 q76.5 -48 76.5 -121 q0 -33 -10 -53 q-10 -20 -27.5 -20 q-17.5 0 -36 34.5 q-18.5 34.5 -49.5 86.5 q-230 -57 -299 -103 q-23 -15 -35.5 -15 q-12.5 0 -24.5 36 q-12 36 -12 55 q0 19 27 23.5 q27 4.5 44.5 16 q17.5 11.5 51 51 q33.5 39.5 49 69 q15.5 29.5 17.5 53.5 q-9 -1 -55.5 -11.5 q-46.5 -10.5 -68.5 -10.5 q-22 0 -46.5 7.5 q-24.5 7.5 -24.5 16.5 q0 12 51.5 18 q51.5 6 167.5 26 l2 132 q-45 -7 -73.5 -7 q-28.5 0 -54.5 6.5 q-26 6.5 -26 17.5 q0 11 42.5 15.5 q42.5 4.5 111.5 20.5 q2 108 -2 149 q-4 41 -14 55 q-23 31 -23 45 q0 14 21 14 q21 0 71.5 -20.5 q50.5 -20.5 50.5 -44.5 q0 -8 -6 -18 q-23 -41 -28 -162 q15 4 54 17.5 q39 13.5 63.5 13.5 q24.5 0 45.5 -9 q21 -9 21 -21 q0 -17 -42.5 -29.5 q-42.5 -12.5 -142.5 -31.5 ZM262 670 q44 0 86.5 -21.5 q42.5 -21.5 42.5 -75.5 q0 -19 -8 -29.5 q-8 -10.5 -22 -10.5 q-31 0 -74 56 q-43 56 -43 68.5 q0 12.5 18 12.5 ZM162 491 q13 0 48.5 -12 q35.5 -12 54.5 -26.5 q19 -14.5 19 -47.5 q0 -56 -28.5 -56 q-28.5 0 -67.5 56.5 q-39 56.5 -39 75.5 q0 10 13 10 ZM362 373 q0 -18 -26 -72 q-76 -162 -106 -266 q-13 -45 -28 -45 q-15 0 -42 58.5 q-27 58.5 -27 76.5 q0 16 23 19 q30 5 47 29 l104 151 q38 56 50 56 q5 0 5 -7 Z" /><glyph glyph-name="" unicode="&#x53cd;" d="M387 600 q110 39 170.5 71 q60.5 32 64.5 50 q8 36 35 36 q27 0 77 -33 q50 -33 50 -52 q0 -14 -32 -16 q-32 -2 -92 -21 q-179 -55 -266 -71 q-8 -38 -13 -76.5 q-5 -38.5 -12 -81.5 q75 13 140 34.5 q65 21.5 91.5 38.5 q26.5 17 47 17 q20.5 0 62.5 -20 q42 -20 42 -32.5 q0 -12.5 -17 -29.5 q-25 -23 -40 -68 q-35 -101 -71 -161 q102 -79 171.5 -109.5 q69.5 -30.5 188.5 -54.5 q37 -7 37 -19 q0 -7 -16 -13 q-16 -6 -82 -16 q-66 -10 -114.5 -10 q-48.5 0 -67.5 8.5 q-19 8.5 -57 54.5 q-69 83 -96 110 q-54 -65 -131 -100 q-77 -35 -165 -35 q-32 0 -32 8.5 q0 8.5 35 19.5 q98 30 149.5 67.5 q51.5 37.5 92.5 92.5 q-72 72 -96 91.5 q-24 19.5 -47.5 26 q-23.5 6.5 -23.5 19.5 q0 7 12 12.5 q12 5.5 33 5.5 q40 0 68 -27 l82 -83 q21 43 37 96 q16 53 16 71 q0 18 -10.5 18 q-10.5 0 -24.5 -4 q-136 -42 -187 -42 q-15 0 -33 2 q-14 -80 -30.5 -129.5 q-16.5 -49.5 -47.5 -102.5 q-31 -53 -70 -95.5 q-39 -42.5 -78 -64 q-39 -21.5 -47.5 -21.5 q-8.5 0 -8.5 3 q0 9 31 41 q67 68 109.5 154.5 q42.5 86.5 62 184.5 q19.5 98 19.5 151.5 q0 53.5 -12.5 82.5 q-12.5 29 -12.5 40 q0 11 18.5 11 q18.5 0 90.5 -30 Z" /><glyph glyph-name="" unicode="&#x65b9;" d="M455 738 q0 13 64 13 q74 0 104.5 -26.5 q30.5 -26.5 30.5 -73.5 q0 -43 -35 -43 q-32 0 -98 59.5 q-66 59.5 -66 70.5 ZM515 466 q-156 -26 -233 -49 q-34 -10 -52 -10 q-18 0 -51 17.5 q-33 17.5 -33 27.5 q0 10 38 13 q104 10 326.5 49.5 q222.5 39.5 280 53 q57.5 13.5 89.5 13.5 q32 0 66 -23.5 q34 -23.5 34 -41.5 q0 -24 -55 -24 q-12 0 -35 2 q-23 2 -60 2 q-98 0 -258 -22 q45 -32 45 -42 q0 -10 -11 -21 q-11 -11 -20 -24 q31 -8 56.5 -8 q25.5 0 40.5 3 q15 3 21 3 q22 0 62 -35 q40 -35 40 -48 q0 -13 -13.5 -22 q-13.5 -9 -20.5 -25.5 q-7 -16.5 -18 -53.5 q-45 -161 -95.5 -210.5 q-50.5 -49.5 -77 -49.5 q-26.5 0 -31.5 32 q-5 32 -48 93 q-16 22 -16 30.5 q0 8.5 10 8.5 q10 0 40.5 -15 q30.5 -15 48 -15 q17.5 0 28 9 q10.5 9 30 54.5 q19.5 45.5 29.5 95.5 q10 50 10 61 q0 18 -28 26.5 q-28 8.5 -88 29.5 q-74 -134 -156 -214 q-82 -80 -159 -114 q-77 -34 -105 -34 q-9 0 -9 5 q0 10 40 35 q104 64 159 120 q55 56 115 158.5 q60 102.5 64 158.5 Z" /><glyph glyph-name="" unicode="&#x653e;" d="M591 438 q-26 -27 -54 -47.5 q-28 -20.5 -34.5 -20.5 q-6.5 0 -6.5 4 q0 8 19 36 q52 75 82.5 163.5 q30.5 88.5 30.5 129.5 q0 21 -7 33.5 q-7 12.5 -7 23.5 q0 16 18 16 q18 0 62.5 -21.5 q44.5 -21.5 44.5 -35 q0 -13.5 -13 -32.5 q-8 -12 -39.5 -89 q-31.5 -77 -69.5 -128 q87 11 153 46 q49 26 71 26 q22 0 42 -7.5 q20 -7.5 20 -19.5 q0 -17 -41.5 -37 q-41.5 -20 -143.5 -41 q32 -21 48 -35 q16 -14 16 -24.5 q0 -10.5 -9 -26.5 q-15 -31 -27 -90 q-12 -59 -33 -100 q48 -55 105 -95 q57 -40 163 -78 q29 -10 29 -20 q0 -6 -10.5 -10.5 q-10.5 -4.5 -71.5 -10 q-61 -5.5 -85 -5.5 q-50 0 -65 19 q-15 19 -102 144 q-43 -47 -103 -70.5 q-60 -23.5 -112 -23.5 q-28 0 -28 8.5 q0 8.5 30 19.5 q76 26 110.5 53.5 q34.5 27.5 63.5 71.5 q-75 115 -94.5 137 q-19.5 22 -37.5 31 q-18 9 -18 19 q0 12 35.5 12 q35.5 0 48.5 -10.5 q13 -10.5 38.5 -51.5 q25.5 -41 56.5 -82 q17 49 17 108.5 q0 59.5 -16 102.5 q-36 -3 -76 8 ZM317 715 q13 0 54.5 -11 q41.5 -11 65.5 -28 q24 -17 24 -54 q0 -49 -32 -49 q-32 0 -79 59.5 q-47 59.5 -47 71 q0 11.5 14 11.5 ZM306 418 q-65 -17 -89 -24 q-24 -7 -41.5 -7 q-17.5 0 -44 14 q-26.5 14 -26.5 24 q0 10 29 13 q63 7 162 29.5 q99 22.5 128 35.5 q29 13 46.5 13 q17.5 0 38.5 -11 q21 -11 21 -24 q0 -13 -38 -20 l-141 -32 q45 -30 45 -47 q0 -7 -4 -13.5 q-4 -6.5 -13 -22.5 q35 -9 75 -28 q40 -19 40 -35.5 q0 -16.5 -16.5 -39.5 q-16.5 -23 -33.5 -99 q-20 -89 -59.5 -140.5 q-39.5 -51.5 -65.5 -51.5 q-18 0 -20 29 q-1 9 -14.5 31 q-13.5 22 -31 43 q-17.5 21 -17.5 28.5 q0 7.5 9 7.5 q9 0 31.5 -8 q22.5 -8 37 -8 q14.5 0 23.5 8.5 q9 8.5 22 38 q13 29.5 25 74.5 q12 45 12 67 q0 22 -41 43 q-67 -112 -95 -148.5 q-28 -36.5 -68 -70.5 q-40 -34 -81 -55.5 q-41 -21.5 -57 -21.5 q-8 0 -8 7.5 q0 7.5 25 28.5 q93 77 161.5 184.5 q68.5 107.5 73.5 187.5 Z" /><glyph glyph-name="" unicode="&#x98de;" d="M560 395 q70 49 107 90 q37 41 37 62.5 q0 21.5 4 29.5 q4 8 17.5 8 q13.5 0 63 -21 q49.5 -21 49.5 -36 q0 -15 -36.5 -31.5 q-36.5 -16.5 -93.5 -52.5 q-57 -36 -106 -58 q52 -12 112.5 -36 q60.5 -24 71.5 -55.5 q11 -31.5 11 -45.5 q0 -27 -26 -27 q-24 0 -58 28 q-49 42 -178 118 q2 -111 50 -182 q48 -71 120 -105.5 q72 -34.5 92 -34.5 q20 0 32.5 21 q12.5 21 28.5 70.5 q16 49.5 25 49.5 q9 0 9 -55 q0 -98 18 -138 q5 -12 5 -22 q0 -31 -48 -31 q-62 0 -177 48.5 q-115 48.5 -169 154 q-54 105.5 -54 274.5 q0 72 16 159 q1 7 1 15.5 q0 8.5 -11.5 8.5 q-11.5 0 -90 -23.5 q-78.5 -23.5 -128.5 -43.5 q-24 -10 -42.5 -10 q-18.5 0 -52.5 23.5 q-34 23.5 -34 32.5 q0 9 44.5 10.5 q44.5 1.5 124 16.5 q79.5 15 124.5 35 q45 20 60.5 38 q15.5 18 33 18 q17.5 0 63 -20.5 q45.5 -20.5 45.5 -34.5 q0 -14 -26 -36 q-53 -43 -59 -207 q17 -3 25 -5 Z" /><glyph glyph-name="" unicode="&#x98ce;" d="M307 640 q47 1 147 19 q100 18 140.5 26.5 q40.5 8.5 60.5 21 q20 12.5 36 12.5 q16 0 61 -25.5 q45 -25.5 45 -37.5 q0 -12 -18 -26 q-18 -14 -27.5 -39 q-9.5 -25 -18 -93.5 q-8.5 -68.5 -8.5 -148.5 q0 -80 21.5 -144.5 q21.5 -64.5 58.5 -100 q37 -35.5 57 -35.5 q20 0 29 17.5 q9 17.5 20 61.5 q11 44 21.5 44 q10.5 0 12 -51.5 q1.5 -51.5 5.5 -81 q4 -29.5 12 -49 q8 -19.5 8 -29.5 q0 -30 -36 -30 q-36 0 -114.5 43 q-78.5 43 -120.5 136 q-42 93 -42 261 q0 55 5.5 125.5 q5.5 70.5 9 90 q3.5 19.5 3.5 30.5 q0 11 -17.5 11 q-17.5 0 -114 -16 q-96.5 -16 -145.5 -27 q-39 -7 -74 -8 q6 -69 6 -135 q0 -177 -40 -277.5 q-40 -100.5 -108 -153.5 q-68 -53 -89 -53 q-7 0 -7 7.5 q0 7.5 23 30.5 q86 86 118 195 q32 109 32 260 q0 44 -9.5 87 q-9.5 43 -23 59.5 q-13.5 16.5 -13.5 30 q0 13.5 23.5 13.5 q23.5 0 70.5 -21 ZM506 262 q-41 -65 -87 -108 q-46 -43 -83.5 -59.5 q-37.5 -16.5 -46.5 -16.5 q-9 0 -9 3 q0 8 41.5 44.5 q41.5 36.5 75.5 80 q34 43.5 69 115.5 q-69 98 -86.5 121 q-17.5 23 -17.5 32 q0 9 7 9 q25 0 123 -104 q30 83 30 134 q0 18 -5 25 q-14 18 -14 30.5 q0 12.5 18 12.5 q18 0 58 -22.5 q40 -22.5 40 -40.5 q0 -9 -10 -20 q-17 -21 -36.5 -80.5 q-19.5 -59.5 -33.5 -91.5 q57 -66 77 -99 q20 -33 20 -61 q0 -28 -7 -48.5 q-7 -20.5 -20 -20.5 q-18 0 -33 39 q-15 39 -70 126 Z" /><glyph glyph-name="" unicode="&#x670d;" d="M533 680 q52 -1 83.5 8 q31.5 9 63.5 35 q20 16 34 16 q14 0 54 -24.5 q40 -24.5 40 -40.5 q0 -8 -10 -16 q-28 -22 -40 -67 q-19 -75 -46 -108.5 q-27 -33.5 -44.5 -33.5 q-17.5 0 -25 25.5 q-7.5 25.5 -39.5 56.5 q-16 15 -16 22 q0 7 9 7 q9 0 28.5 -5.5 q19.5 -5.5 30.5 -5.5 q11 0 16.5 9.5 q5.5 9.5 14.5 40.5 q9 31 9 49 q0 12 -12 12 q-12 0 -43.5 -9 q-31.5 -9 -84.5 -9 q2 -128 -1 -259 q40 6 80 22 q40 16 55 29.5 q15 13.5 29.5 13.5 q14.5 0 59 -26 q44.5 -26 44.5 -39 q0 -8 -14 -21.5 q-14 -13.5 -22.5 -30.5 q-8.5 -17 -21.5 -63 q-13 -46 -35 -83 q47 -47 113 -83.5 q66 -36.5 115 -48.5 q49 -12 49 -23 q0 -5 -11 -10 q-11 -5 -65 -11.5 q-54 -6.5 -78 -6.5 q-46 0 -67 23 q-21 23 -88 114 q-48 -64 -151 -97 q-6 -84 -33 -84 q-18 0 -38.5 30 q-20.5 30 -20.5 47.5 q0 17.5 14 48 q14 30.5 19.5 93 q5.5 62.5 5.5 217 q0 154.5 -4.5 201.5 q-4.5 47 -16.5 62 q-12 15 -12 24.5 q0 9.5 19 9.5 q19 0 54 -11 ZM554 351 l0 -21 q17 2 44 -10 q27 -12 88 -85 q13 27 20 72.5 q7 45.5 7 58 q0 12.5 -13.5 12.5 q-13.5 0 -61.5 -14 q-48 -14 -63 -14 q-15 0 -21 1 ZM553 304 q0 -114 -5 -231 q75 48 113 115 q-43 57 -60.5 76.5 q-17.5 19.5 -31.5 28 q-14 8.5 -16 11.5 ZM256 482 q32 11 45.5 11 q13.5 0 25.5 -7 q12 -7 12 -18 q0 -11 -24 -20 q-24 -9 -61 -7 q-3 -66 -8 -117 q33 12 53.5 12 q20.5 0 31 -7 q10.5 -7 10.5 -18.5 q0 -11.5 -19.5 -18.5 q-19.5 -7 -42 -7 q-22.5 0 -38.5 2 q-14 -102 -43 -164.5 q-29 -62.5 -74.5 -106.5 q-45.5 -44 -58.5 -44 q-4 0 -4 4 q0 10 21 40 q63 91 85.5 207 q22.5 116 22.5 245.5 q0 129.5 -24 165.5 q-9 14 -9 24 q0 10 19 10 q19 0 62 -16 q62 6 99 30 q18 12 31.5 12 q13.5 0 47.5 -20 q34 -20 34 -34 q0 -9 -13 -25 q-13 -16 -19.5 -59.5 q-6.5 -43.5 -6.5 -292.5 l1 -139 q0 -67 -22 -112 q-22 -45 -41.5 -45 q-19.5 0 -27.5 23 q-18 53 -59 83 q-16 12 -16 20.5 q0 8.5 10 8.5 q10 0 27 -5.5 q17 -5.5 31 -5.5 q14 0 20 17.5 q6 17.5 11 133 q5 115.5 5 235 q0 119.5 -4 135 q-4 15.5 -18 15.5 q-5 0 -24.5 -4 q-19.5 -4 -47.5 -6 q1 -25 1 -55 q0 -30 -1 -80 Z" /><glyph glyph-name="" unicode="&#x9ad8;" d="M444 781 q63 0 92 -16 q29 -16 29 -52 q0 -43 -33 -43 q-22 0 -43.5 18 q-21.5 18 -48 47 q-26.5 29 -26.5 37.5 q0 8.5 30 8.5 ZM726 684 q22 0 52.5 -20.5 q30.5 -20.5 30.5 -32.5 q0 -20 -65 -20 l-54 2 q-80 0 -195 -10.5 q-115 -10.5 -167.5 -21 q-52.5 -10.5 -72 -10.5 q-19.5 0 -42.5 16.5 q-23 16.5 -23 24 q0 7.5 48 9.5 q91 4 201 17.5 q110 13.5 186.5 29.5 q76.5 16 100.5 16 ZM381 524 q60 5 109 14.5 q49 9.5 68.5 20 q19.5 10.5 36.5 10.5 q17 0 53.5 -21 q36.5 -21 36.5 -32 q0 -11 -15 -19 q-45 -24 -58 -46 q15 -13 15 -24 q0 -11 -8.5 -17 q-8.5 -6 -27.5 -6 l-23 -1 q-105 -5 -156 -13 q-8 -18 -22 -18 q-18 0 -24.5 29 q-6.5 29 -18 57 q-11.5 28 -23 42 q-11.5 14 -11.5 24 q0 10 17.5 10 q17.5 0 50.5 -10 ZM416 428 q37 4 80.5 11.5 q43.5 7.5 51.5 12.5 q8 5 14.5 22.5 q6.5 17.5 6.5 26.5 q0 9 -11 9 l-152 -15 q7 -36 10 -67 ZM240 315 q170 13 323.5 33 q153.5 20 173 29.5 q19.5 9.5 33.5 9.5 q14 0 63.5 -30 q49.5 -30 49.5 -43 q0 -13 -14.5 -31.5 q-14.5 -18.5 -19 -42 q-4.5 -23.5 -7.5 -95.5 q-3 -72 -17 -121.5 q-14 -49.5 -47.5 -86.5 q-33.5 -37 -55.5 -37 q-22 0 -31 31 q-4 14 -20 36.5 q-16 22.5 -37 43 q-21 20.5 -21 28.5 q0 8 11.5 8 q11.5 0 42 -8.5 q30.5 -8.5 45.5 -8.5 q15 0 23.5 16 q8.5 16 18 74 q9.5 58 9.5 115.5 q0 57.5 -8.5 66.5 q-8.5 9 -60.5 9 q-109 0 -438 -43 q11 -99 11 -181 q0 -59 -8.5 -95 q-8.5 -36 -23.5 -36 q-15 0 -36.5 29 q-21.5 29 -21.5 51 q0 22 13 64 q4 14 4 49 q0 35 -6.5 76.5 q-6.5 41.5 -19.5 60.5 q-13 19 -13 32 q0 13 20 13 q20 0 65 -16 ZM383 226 q28 3 75.5 14.5 q47.5 11.5 68 19.5 q20.5 8 36 8 q15.5 0 53.5 -22 q38 -22 38 -31.5 q0 -9.5 -14 -16.5 q-27 -13 -46 -43 q20 -15 20 -26 q0 -11 -9.5 -16.5 q-9.5 -5.5 -24.5 -7.5 l-68 -7 q-52 -6 -97 -8 q-9 -34 -28 -34 q-20 0 -26 39 q-4 27 -16 59 q-12 32 -24 46 q-12 14 -12 25 q0 11 20.5 11 q20.5 0 53.5 -10 ZM416 127 q57 7 95 15 q15 11 21.5 31 q6.5 20 6.5 26 q0 12 -13.5 12 q-13.5 0 -122.5 -13 q10 -36 13 -71 Z" /><glyph glyph-name="" unicode="&#x54e5;" d="M627 686 l-194 -20 q-41 -5 -68 -5 q-27 0 -56 10.5 q-29 10.5 -29 19 q0 8.5 38 9 q38 0.5 152.5 17.5 q114.5 17 174.5 33 q60 16 93.5 16 q33.5 0 58 -14 q24.5 -14 24.5 -27 q0 -19 -58 -25 l-75 -8 q42 -22 42 -41 q0 -7 -6.5 -23 q-6.5 -16 -6 -32.5 q0.5 -16.5 0.5 -20.5 q0 -54 -18 -94.5 q-18 -40.5 -37 -40.5 q-13 0 -26 22.5 q-13 22.5 -13 35 q0 12.5 11.5 31.5 q11.5 19 11.5 61 q0 66 -20 96 ZM354 598 q107 5 146 31 q14 9 27.5 9 q13.5 0 45.5 -17.5 q32 -17.5 32 -26 q0 -8.5 -13 -18.5 q-32 -25 -43 -56 q14 -10 14 -17.5 q0 -7.5 -6 -13 q-6 -5.5 -61 -13 q-55 -7.5 -101 -11.5 q-4 -25 -19 -25 q-11 0 -23 21 q-12 21 -18 42.5 q-6 21.5 -17.5 42.5 q-11.5 21 -21 32 q-9.5 11 -9.5 18 q0 12 19 12 q19 0 48 -10 ZM394 498 q51 4 85 17 q12 9 16 28 q4 19 4 24 q0 11 -11 11 q-11 0 -41 -4.5 q-30 -4.5 -65 -6.5 q8 -37 12 -69 ZM620 383 q-112 -8 -218 -21.5 q-106 -13.5 -155.5 -24 q-49.5 -10.5 -72 -10.5 q-22.5 0 -52 18.5 q-29.5 18.5 -29.5 29 q0 10.5 64 10.5 q87 0 329.5 26.5 q242.5 26.5 318.5 39.5 q67 13 102 13 q35 0 62.5 -22 q27.5 -22 27.5 -35 q0 -20 -55 -20 q-13 0 -36.5 2 q-23.5 2 -81.5 2 q-58 0 -136 -4 q49 -23 49 -36 q0 -4 -4 -11 q-12 -18 -12 -95 q0 -77 9 -153 q2 -19 2 -36 q0 -69 -36 -115 q-36 -46 -63 -46 q-21 0 -32 29.5 q-11 29.5 -64 76.5 q-24 21 -24 28 q0 7 11.5 7 q11.5 0 40 -4 q28.5 -4 47.5 -4 q19 0 26.5 11.5 q7.5 11.5 11 50.5 q3.5 39 3.5 113.5 q0 74.5 -7.5 114.5 q-7.5 40 -25.5 65 ZM339 285 q42 3 85 14 q43 11 66 25 q11 6 26.5 6 q15.5 0 51 -19.5 q35.5 -19.5 35.5 -31.5 q0 -8 -16.5 -21 q-16.5 -13 -25 -23.5 q-8.5 -10.5 -14.5 -31.5 q15 -15 15 -27 q0 -19 -37 -22 q-37 -3 -138 -17 q-1 -20 -8 -30.5 q-7 -10.5 -15 -10.5 q-19 0 -36.5 60 q-17.5 60 -25 77 q-7.5 17 -18.5 29.5 q-11 12.5 -11 21 q0 8.5 18 8.5 q18 0 48 -7 ZM384 174 q41 7 62 12 q21 5 28 12.5 q7 7.5 12.5 25.5 q5.5 18 5.5 35 q0 12 -17.5 12 q-17.5 0 -106.5 -14 q11 -63 16 -83 Z" /><glyph glyph-name="" unicode="&#x6b4c;" d="M643 477 q-27 -42 -57.5 -70 q-30.5 -28 -40.5 -28 q-4 0 -4 7 q0 7 12 29 q49 86 73.5 167 q24.5 81 24.5 114 q0 33 -10 49.5 q-10 16.5 -10 28.5 q0 12 17 12 q17 0 65.5 -28.5 q48.5 -28.5 48.5 -43.5 q0 -7 -11 -20 q-22 -27 -42.5 -82.5 q-20.5 -55.5 -44.5 -98.5 q79 10 116 32 q24 15 41 15 q17 0 62.5 -29 q45.5 -29 45.5 -43 q0 -12 -38 -21.5 q-38 -9.5 -100 -57.5 q-18 -14 -26 -14 q-8 0 -8 10 q0 10 15.5 39.5 q15.5 29.5 15.5 40 q0 10.5 -8 10.5 q-8 0 -19 -4 q-46 -16 -94 -16 q-14 0 -24 2 ZM424 654 q-93 -17 -123 -23.5 q-30 -6.5 -51.5 -6.5 q-21.5 0 -41.5 11 q-20 11 -20 17.5 q0 6.5 37.5 10 q37.5 3.5 98.5 18 q61 14.5 103.5 30 q42.5 15.5 63 15.5 q20.5 0 47.5 -12 q27 -12 27 -24 q0 -7 -10 -13 q-10 -6 -81 -15 q40 -28 40 -44 q0 -6 -5 -15 q-10 -21 -21 -124 q-3 -25 -14 -44.5 q-11 -19.5 -22.5 -19.5 q-11.5 0 -21.5 16 q-10 16 -10 31 q0 15 9 37 q10 23 10 75.5 q0 52.5 -15 79.5 ZM236 557 q43 4 80 24 q18 10 31 10 q13 0 39 -15.5 q26 -15.5 26 -23.5 q0 -8 -11 -18 q-32 -25 -32 -56 q13 -9 13 -19.5 q0 -10.5 -31 -17 q-31 -6.5 -86 -9.5 q-4 -23 -21 -23 q-8 0 -15 10 q-7 10 -16 45 q-13 50 -32 73 q-9 11 -9 20.5 q0 9.5 17.5 9.5 q17.5 0 46.5 -10 ZM263 463 q30 5 54 13 q6 5 9.5 24.5 q3.5 19.5 3.5 28.5 q0 9 -10 9 q-10 0 -32.5 -4 q-22.5 -4 -37.5 -5 q7 -45 13 -66 ZM367 352 q-142 -22 -185 -36 q-43 -14 -61.5 -14 q-18.5 0 -44 21.5 q-25.5 21.5 -25.5 28.5 q0 7 11 8.5 q11 1.5 51 1.5 q40 0 141 12.5 q101 12.5 154 25 q53 12.5 75 12.5 q22 0 39.5 -10 q17.5 -10 17.5 -17.5 q0 -7.5 -15 -12.5 q-15 -5 -48.5 -7.5 q-33.5 -2.5 -54.5 -5.5 q30 -14 45.5 -25 q15.5 -11 15.5 -21 q0 -10 -7 -24 q-13 -27 -13 -132 l3 -79 q0 -72 -30.5 -116.5 q-30.5 -44.5 -51.5 -44.5 q-14 0 -24 23 q-14 32 -45.5 59 q-31.5 27 -31.5 33.5 q0 6.5 9 6.5 q9 0 31 -5 q22 -5 38.5 -5 q16.5 0 24 13.5 q7.5 13.5 11.5 52 q4 38.5 4 114 q0 75.5 -9 103 q-9 27.5 -25 40.5 ZM671 241 q-25 -88 -61.5 -141 q-36.5 -53 -82.5 -81 q-46 -28 -62 -28 q-6 0 -6 5 q0 9 26 33 q47 41 89.5 123 q42.5 82 42.5 165 q0 39 -12 54.5 q-12 15.5 -12 27.5 q0 12 18 12 q18 0 58.5 -18.5 q40.5 -18.5 40.5 -33.5 q0 -6 -6.5 -15.5 q-6.5 -9.5 -17.5 -49.5 q94 -133 143.5 -179.5 q49.5 -46.5 141.5 -90.5 q38 -18 38 -25 q0 -7 -13 -10 q-13 -3 -74.5 -3 q-61.5 0 -87.5 3 q-26 3 -41 12 q-15 9 -29 37 l-93 203 ZM213 266 q59 7 87 23 q16 10 26.5 10 q10.5 0 37 -17 q26.5 -17 26.5 -26 q0 -6 -17 -21 q-17 -15 -27 -43 q15 -11 15 -22.5 q0 -11.5 -8 -17.5 q-8 -6 -19 -7 l-109 -13 q-11 -32 -27 -32 q-8 0 -13 15 q-5 15 -8 54 q-5 62 -20 84 q-6 9 -6 17.5 q0 8.5 16 8.5 q16 0 46 -13 ZM228 167 q23 2 40 7 q17 5 22.5 10 q5.5 5 9.5 19.5 q4 14.5 4 31 q0 16.5 -14 13.5 q-45 -9 -62 -11 l0 -70 Z" /><glyph glyph-name="" unicode="&#x4e2a;" d="M513 621 q-80 -145 -161.5 -227.5 q-81.5 -82.5 -159 -123.5 q-77.5 -41 -98.5 -41 q-8 0 -8 7 q0 7 20 21 q150 104 251.5 252.5 q101.5 148.5 101.5 223.5 q0 10 -5 25 q-5 15 -5 29 q0 14 15 14 q15 0 65.5 -27 q50.5 -27 50.5 -43 q0 -7 -15.5 -23.5 q-15.5 -16.5 -30.5 -45.5 q94 -108 155 -164 q61 -56 122 -90.5 q61 -34.5 160 -71.5 q27 -10 27 -20 q0 -6 -9.5 -10 q-9.5 -4 -69 -8.5 q-59.5 -4.5 -93 -4.5 q-33.5 0 -53 8 q-19.5 8 -32.5 24 l-125 157 q-53 69 -103 139 ZM573 427 q0 -8 -10.5 -29.5 q-10.5 -21.5 -10.5 -91.5 q0 -70 2 -150 l4 -117 q0 -61 -14 -98.5 q-14 -37.5 -31 -37.5 q-17 0 -41 33.5 q-24 33.5 -24 50 q0 16.5 17 61.5 q8 20 13 82 q5 62 5 127 q0 151 -20 175 q-15 18 -15 31 q0 13 20 13 q16 0 60.5 -16.5 q44.5 -16.5 44.5 -32.5 Z" /></font>
</defs>
</svg>
