<?xml version="1.0" standalone="no"?><!DOCTYPE svg PUBLIC "-//W3C//DTD SVG 1.1//EN" "http://www.w3.org/Graphics/SVG/1.1/DTD/svg11.dtd" ><svg xmlns="http://www.w3.org/2000/svg"><metadata></metadata><defs><font id="1.000;REEJI;Reeji-CloudYuanCu-GB-Regular" horiz-adv-x="1024"><font-face font-family="Reeji-CloudYuanCu-GB" font-weight="400" font-stretch="normal" units-per-em="1024" panose-1="2 1 6 4 0 0 0 0 0 0" ascent="880" descent="-284" x-height="0" bbox="-5 -222 1011 860" underline-thickness="20" underline-position="-128" unicode-range="U+002e-9f3b" /><missing-glyph horiz-adv-x="0"  /><glyph glyph-name="period" unicode="." d="M156 140 q-29 -2 -47.5 -15.5 q-18.5 -13.5 -25.5 -32.5 q-7 -15 -5 -28 q2 -30 15 -48.5 q13 -18.5 32 -24.5 q16 -6 31 -4 q40 3 58.5 25 q18.5 22 17.5 52 q-3 39 -24.5 58 q-21.5 19 -51.5 18 Z" /><glyph glyph-name="zero" unicode="0" d="M324 -7 q79 3 132.5 44.5 q53.5 41.5 81.5 115.5 q20 52 30 107.5 q10 55.5 10 93.5 q-2 125 -32.5 205.5 q-30.5 80.5 -84.5 117.5 q-48 33 -88 41 q-40 7 -53 6 q-86 -3 -143 -48 q-57 -45 -88 -124 q-19 -53 -29 -108 q-10 -55 -10 -95 q0 -120 34 -198 q34 -78 94 -115 q47 -31 93 -37 q42 -8 53 -6 ZM316 122 q-72 1 -97 112 q-11 44 -12 80 q-2 43 -1 44 q4 166 46 203 q33 30 56 30 q6 0 8 -1 q68 -4 93 -114 q9 -42 11 -80 l2 -42 q-6 -167 -49 -203 q-43 -37 -57 -29 Z" /><glyph glyph-name="one" unicode="1" d="M136 58 q2 -36 21 -52 q19 -16 48 -16 l11 1 q29 2 46 14.5 q17 12.5 23 29.5 q5 16 3 27 l0 584 q-4 51 -30 63 q-26 11 -38 9 l-144 0 q-38 -2 -55.5 -20 q-17.5 -18 -17.5 -47 q0 -10 1 -13 q4 -61 59 -61 l13 1 l60 0 l0 -520 Z" /><glyph glyph-name="two" unicode="2" d="M338 198 q126 150 154 227 q27 75 22 89 q-6 74 -45.5 122 q-39.5 48 -95.5 68 q-52 17 -81 14 q-71 -2 -120 -31.5 q-49 -29.5 -77 -79.5 q-22 -43 -30 -78 q-7 -33 -7 -47 q0 -30 22 -48 q20 -17 42 -17 q8 0 10 1 q25 3 42.5 25 q17.5 22 23.5 47 q26 65 55 78 q24 12 47 12 q32 0 45 -23.5 q13 -23.5 13 -53.5 q0 -34 -17 -66 q-13 -26 -17 -29 q-52 -75 -117 -150 q-65 -75 -71 -80 q-45 -49 -62 -70 q-28 -48 -20 -56 q3 -35 25.5 -49.5 q22.5 -14.5 48.5 -11.5 l336 0 q38 3 54.5 21.5 q16.5 18.5 15.5 43.5 q-3 26 -17 41.5 q-14 15.5 -34 22.5 q-19 5 -27 4 l-180 0 l62 74 Z" /><glyph glyph-name="three" unicode="3" d="M268 722 q-72 -6 -118 -38 q-46 -32 -66.5 -72 q-20.5 -40 -20.5 -72 q0 -20 13 -33 q13 -13 29 -18.5 q16 -5.5 19 -2.5 q33 2 62 44 q55 55 90 55 q6 0 8 -1 q33 -3 48 -22.5 q15 -19.5 14 -43.5 q-5 -36 -31 -58 q-26 -22 -55 -26 q-37 -15 -46 -33 q-10 -17 -8 -29 q3 -35 26.5 -53 q23.5 -18 51.5 -19 q64 -22 78 -48 q11 -24 11 -46 q0 -32 -20 -55 q-15 -16 -32 -24 q-17 -8 -32 -8 q-6 0 -9 1 q-39 2 -69.5 24.5 q-30.5 22.5 -40.5 49.5 q-29 50 -54 44 q-54 -4 -65 -33 q-12 -30 -9 -37 q1 -57 32 -95.5 q31 -38.5 84 -56.5 q42 -16 81 -20 l41 -5 q76 2 128.5 28 q52.5 26 80.5 70 q26 39 33 73 q8 37 8 44 q-4 128 -122 178 q46 32 66 76 q20 44 16 80 q-6 66 -42 109 q-36 43 -89 60 q-48 15 -91 13 Z" /><glyph glyph-name="four" unicode="4" d="M336 60 q2 -36 21 -53 q19 -17 45 -17 l8 1 q50 4 66 44 q5 17 4 25 l0 88 l24 0 q64 1 62 66 q-3 36 -22 52.5 q-19 16.5 -48 15.5 l-16 0 l0 310 q-3 49 -22.5 78.5 q-19.5 29.5 -48.5 40.5 q-17 7 -44 7 q-52 0 -80 -29 q-24 -27 -25 -31 l-222 -404 q-20 -45 -16 -60 q2 -19 16 -30.5 q14 -11.5 32 -14.5 q15 -3 22 -1 l244 0 l0 -88 ZM198 282 l138 278 l0 -278 l-138 0 Z" /><glyph glyph-name="five" unicode="5" d="M450 578 q80 2 74 68 q-3 74 -74 72 l-244 0 q-42 -3 -61 -30 q-19 -27 -19 -66 l-28 -216 q-4 -23 -4 -38 q0 -30 17 -38.5 q17 -8.5 39 -8.5 q17 0 39 9 l17 8 q55 25 76 20 q36 -3 57.5 -22.5 q21.5 -19.5 29.5 -46.5 q7 -22 5 -35 q-6 -95 -50 -118 q-44 -23 -58 -18 q-25 1 -48 11.5 q-23 10.5 -52 30.5 q-43 25 -73 25 q-20 0 -33 -13.5 q-13 -13.5 -18.5 -30.5 q-5.5 -17 -3.5 -27 q1 -38 29 -65 q28 -27 77 -40 q40 -13 76 -17 l42 -5 q87 2 144.5 35 q57.5 33 88.5 90 q25 49 33 91 q6 42 6 55 q-2 67 -28 113.5 q-26 46.5 -71 71.5 q-41 21 -72 28 q-29 7 -41 7 q-51 -1 -76 -8 l16 108 l188 0 Z" /><glyph glyph-name="six" unicode="6" d="M280 444 q73 84 138 162 q22 31 18 44 q-3 33 -24.5 52 q-21.5 19 -45.5 20 q-34 -4 -36 -10 q-195 -195 -242 -335 q-46 -137 -38 -153 q1 -77 30.5 -127.5 q29.5 -50.5 80.5 -74.5 q35 -17 72 -25 q37 -8 63 -8 q93 6 153 45.5 q60 39.5 85 98.5 q19 42 19 96 q0 75 -39 135 q-31 48 -73.5 70.5 q-42.5 22.5 -83.5 22.5 q-10 0 -13 -1 q-56 -6 -64 -12 ZM300 334 q37 -4 61 -22.5 q24 -18.5 32 -44.5 q7 -22 5 -39 q-3 -52 -31 -77.5 q-28 -25.5 -63 -25.5 l-8 1 q-36 4 -57.5 23 q-21.5 19 -28.5 46 q-7 23 -4 33 q2 40 18 65 q16 25 39 35 q21 7 37 6 Z" /><glyph glyph-name="seven" unicode="7" d="M116 94 q-9 -22 -9 -41 q0 -27 16.5 -43 q16.5 -16 41.5 -16 q24 0 47.5 14.5 q23.5 14.5 41.5 41.5 l258 528 q19 39 21 47 q3 14 3 21 q-3 41 -26 58.5 q-23 17.5 -50 13.5 l-376 0 q-34 -3 -51.5 -22.5 q-17.5 -19.5 -17.5 -44.5 q0 -8 1 -9 q2 -26 16 -41 q14 -15 34 -20 q17 -5 26 -3 l270 0 l-246 -484 Z" /><glyph glyph-name="eight" unicode="8" d="M288 -11 q80 2 134 28 q54 26 82 72 q24 40 31 74 q7 29 7 45 q-5 66 -35.5 110 q-30.5 44 -74.5 68 q30 20 48.5 49 q18.5 29 25.5 59 q6 24 4 42 q-6 70 -41 113.5 q-35 43.5 -87 59.5 q-49 14 -88 11 q-149 -11 -185 -89 q-32 -70 -32 -95 q0 -7 1 -8 q4 -70 39 -106 q35 -36 39 -36 q-80 -52 -97 -113 q-17 -64 -13 -69 q1 -67 30.5 -113 q29.5 -46 82.5 -70 q43 -21 82 -26 q38 -6 47 -6 ZM296 590 q50 -4 66 -49 q5 -19 4 -29 q-3 -39 -22 -58 q-19 -19 -46 -19 q-8 0 -10 1 q-25 2 -40.5 15.5 q-15.5 13.5 -21.5 32.5 q-6 16 -4 28 q3 43 25 62 q22 19 49 16 ZM289 318 q38 0 61.5 -19 q23.5 -19 31.5 -45 q6 -21 4 -38 q-3 -50 -26.5 -74.5 q-23.5 -24.5 -54.5 -24.5 l-9 1 q-48 3 -71.5 30.5 q-23.5 27.5 -23.5 62.5 l1 9 q2 37 18.5 61 q16.5 24 39.5 32 q14 5 29 5 Z" /><glyph glyph-name="nine" unicode="9" d="M316 258 q-73 -84 -138 -162 q-22 -37 -18 -44 q2 -25 15 -39.5 q13 -14.5 31 -18.5 q17 -4 24 -3 q38 0 66 27 q170 182 213 309 q43 127 37 147 q-2 75 -30 126.5 q-28 51.5 -78 79.5 q-37 20 -77 31 q-40 11 -69 11 q-87 -6 -144.5 -43 q-57.5 -37 -82.5 -92 q-24 -52 -24 -98 l1 -15 q10 -151 94 -190 q76 -35 107 -35 q7 0 9 1 q56 6 64 12 l0 -4 ZM296 368 q-51 3 -75 31 q-24 28 -24 69 l1 14 q2 36 18 58.5 q16 22.5 40 30.5 q15 6 35 6 q39 0 66 -24 q19 -18 27.5 -41 q8.5 -23 5.5 -38 q-5 -74 -43 -91 q-37 -18 -51 -15 Z" /><glyph glyph-name="a" unicode="a" d="M492 378 q-4 108 -111 147 q-44 15 -77 18 l-34 3 q-73 -2 -120.5 -25 q-47.5 -23 -70.5 -62 q-19 -34 -24 -59 q-5 -26 -3 -28 q8 -32 62 -32 q53 0 64 32 q3 20 23 33 q20 13 45 17 q24 3 30 2 q61 -4 75 -26 q13 -21 11 -26 l0 -44 q-152 -19 -235.5 -69.5 q-83.5 -50.5 -86.5 -134.5 q4 -52 29.5 -84 q25.5 -32 63.5 -44 q35 -11 63 -9 q79 4 122 32 q42 26 44 31 l8 0 q11 -35 39 -49.5 q28 -14.5 61 -13.5 l50 0 q20 4 31.5 21.5 q11.5 17.5 11.5 40.5 q0 20 -9.5 35.5 q-9.5 15.5 -25.5 19.5 q-26 2 -32 12 q-6 10 -4 12 l0 250 ZM360 210 q-7 -73 -63 -100 q-53 -28 -63 -26 q-5 -1 -21 -1 q-34 0 -42 17 q-12 22 -9 26 q3 20 19 35.5 q16 15.5 38 24.5 q21 8 25 8 q86 26 116 30 l0 -14 Z" /><glyph glyph-name="b" unicode="b" d="M60 66 q3 -39 22 -57.5 q19 -18.5 45 -18.5 q26 0 43.5 8 q17.5 8 25.5 21 q14 23 12 27 q27 -31 62 -45 q35 -14 69 -14 q149 0 211 126 q24 49 31 91 q7 35 7 50 q-2 93 -32.5 155.5 q-30.5 62.5 -82.5 93.5 q-46 28 -83 36 q-32 7 -46 7 q-107 -11 -136 -52 l0 216 q-3 39 -25.5 55 q-22.5 16 -50.5 13 q-36 -3 -54.5 -24 q-18.5 -21 -18.5 -47 q0 -8 1 -9 l0 -632 ZM208 266 q4 95 45 121 q36 23 69 23 q38 0 70 -29 q26 -23 38 -55 q12 -32 10 -60 q-6 -104 -50 -130 q-47 -26 -62 -22 q-46 5 -74.5 33 q-28.5 28 -38.5 66 q-8 27 -8 43 l1 10 Z" /><glyph glyph-name="c" unicode="c" d="M484 454 q-5 33 -37 54.5 q-32 21.5 -76 30.5 q-42 7 -60 7 q-85 0 -142 -34 q-57 -34 -88 -95 q-20 -40 -30.5 -83 q-10.5 -43 -10.5 -72 q0 -89 32 -149 q32 -60 89 -88 q47 -25 90 -31 q35 -7 53 -7 q125 5 154 38 q30 35 26 53 q-2 22 -13.5 37 q-11.5 15 -27.5 22 q-16 6 -23 5 l-21 -6 l-15 -6 q-75 -19 -76 -16 q-46 4 -74.5 30 q-28.5 26 -38.5 63 q-8 27 -8 44 l1 11 q6 100 56 126 q49 25 68 22 q23 -1 64 -16 q50 -15 52 -12 q30 2 43.5 22 q13.5 20 12.5 50 Z" /><glyph glyph-name="d" unicode="d" d="M564 706 q-4 73 -64 73 q-32 0 -51.5 -15 q-19.5 -15 -25.5 -36 q-4 -12 -4 -22 q0 -6 1 -8 l0 -204 q-31 28 -66.5 40 q-35.5 12 -67.5 12 q-76 0 -128 -35.5 q-52 -35.5 -81 -98.5 q-24 -56 -31 -99 q-7 -46 -6 -59 q1 -86 31 -143.5 q30 -57.5 82 -85.5 q42 -25 83 -31 q32 -7 48 -7 q68 5 102 30 q34 25 34 29 q8 -30 29 -42.5 q21 -12.5 46 -12.5 q28 0 45 14 q17 14 22 35 q4 15 2 30 l0 636 ZM420 266 q-6 -104 -50 -130 q-47 -26 -62 -22 q-45 3 -73.5 30 q-28.5 27 -39.5 65 q-8 27 -8 45 l1 12 q5 98 51 123 q38 20 74 20 q31 0 53.5 -16 q22.5 -16 34.5 -48 q21 -55 19 -79 Z" /><glyph glyph-name="e" unicode="e" d="M504 214 q30 2 43 18.5 q13 16.5 13 40.5 q0 166 -113 232 q-37 21 -77 31 q-40 10 -74 10 q-79 -2 -134 -35.5 q-55 -33.5 -86 -91.5 q-22 -40 -33 -83 q-11 -43 -11 -71 q0 -95 33 -155.5 q33 -60.5 93 -87.5 q41 -20 84 -28 q43 -8 78 -7 q138 6 184 49 q46 42 46 56 q2 8 2 16 q0 23 -20 40 q-20 17 -44 18 q-26 -4 -56 -24 q-46 -26 -78 -32 q-32 -6 -42 -4 q-85 6 -110 54 q-25 46 -22 54 l324 0 ZM176 310 q8 45 29 72 q21 27 48 37 q17 7 41 7 q39 0 67 -23 q24 -19 36 -44 q12 -25 15 -49 l-236 0 Z" /><glyph glyph-name="f" unicode="f" d="M92 66 q2 -44 22 -61 q20 -17 50 -14 q44 3 61.5 24 q17.5 21 14.5 51 l0 340 l44 0 q45 1 60.5 19.5 q15.5 18.5 15.5 47.5 q0 19 -10 33 q-10 14 -28 20 q-30 10 -38 8 l-44 0 l0 60 q3 40 24 49 q23 8 24 7 q63 1 60 60 q-5 35 -35.5 52 q-30.5 17 -64.5 16 q-113 -11 -137 -81 q-24 -70 -19 -87 l0 -76 l-32 0 q-20 -2 -32.5 -14 q-12.5 -12 -15.5 -28 q-4 -14 -2 -26 q3 -44 25 -53 q19 -9 25 -7 l32 0 l0 -340 Z" /><glyph glyph-name="g" unicode="g" d="M564 566 q-3 40 -22.5 58.5 q-19.5 18.5 -48.5 18.5 q-51 0 -65 -33 q-10 -26 -8 -32 q-36 48 -83 59 q-46 10 -53 9 q-76 -2 -127.5 -36 q-51.5 -34 -78.5 -94 q-25 -51 -32 -97 q-8 -44 -6 -57 q1 -92 30 -152.5 q29 -60.5 79 -89.5 q44 -26 78 -30 q32 -6 41 -4 q74 3 111 30 q37 25 37 30 l4 0 l0 -32 q-4 -43 -27 -69.5 q-23 -26.5 -55 -35.5 q-27 -9 -46 -7 q-81 3 -140 36 q-31 16 -53 16 q-22 0 -35 -15 q-11 -12 -15 -28.5 q-4 -16.5 -1 -23.5 q1 -30 31 -52.5 q30 -22.5 82 -35.5 q36 -10 75.5 -16 q39.5 -6 59.5 -6 q90 2 148.5 34 q58.5 32 85.5 87 q24 48 30 87 q5 46 4 49 l0 432 ZM420 366 q-6 -104 -50 -130 q-47 -26 -62 -22 q-43 5 -70.5 28.5 q-27.5 23.5 -39.5 56.5 q-11 31 -11 53 q0 9 1 10 q3 76 34.5 112 q31.5 36 79.5 36 q43 0 71.5 -25.5 q28.5 -25.5 39.5 -63.5 q9 -30 7 -55 Z" /><glyph glyph-name="h" unicode="h" d="M60 66 q2 -40 20 -58 q18 -18 45 -18 q61 0 74 37 q11 32 9 39 l0 256 q3 55 26.5 80 q23.5 25 58.5 25 l11 -1 q50 -3 73.5 -29 q23.5 -26 23.5 -63 l-1 -12 l0 -256 q3 -43 25.5 -61 q22.5 -18 50.5 -14 q41 3 58 25 q17 22 14 50 l0 284 q-6 70 -36.5 115 q-30.5 45 -75.5 65 q-42 17 -77 17 q-12 0 -15 -1 q-70 -4 -101 -26 q-32 -23 -31 -26 l-4 0 l0 212 q-3 41 -24 58 q-21 17 -48 14 q-39 -3 -58 -23.5 q-19 -20.5 -19 -47.5 q0 -8 1 -9 l0 -632 Z" /><glyph glyph-name="i" unicode="i" d="M138 762 q-45 -3 -67 -27.5 q-22 -24.5 -19 -56.5 q10 -78 74 -80 q90 1 90 88 q-9 69 -78 76 ZM60 66 q2 -31 14 -48.5 q12 -17.5 30 -23.5 q16 -4 28 -3 q43 3 61 25 q18 22 15 50 l0 400 q-5 77 -65 77 q-33 0 -53 -16 q-20 -16 -27 -40 q-6 -22 -3 -29 l0 -392 Z" /><glyph glyph-name="j" unicode="j" d="M214 762 q-45 -3 -67 -28.5 q-22 -25.5 -19 -57.5 q9 -76 78 -78 q92 9 86 88 q-9 69 -78 76 ZM136 44 q-1 -55 -57 -55 q-13 0 -25 2 q-59 2 -59 -55 q0 -58 63 -73 q45 -5 71 -5 q77 0 117 31 q40 41 38 157 l0 420 q-5 78 -76 76 q-52 -6 -63 -42 q-12 -37 -9 -42 l0 -414 Z" /><glyph glyph-name="k" unicode="k" d="M60 66 q2 -31 14 -48.5 q12 -17.5 30 -23.5 q16 -4 28 -3 q54 4 66 36 q12 31 10 39 l0 180 l4 0 l180 -224 q24 -25 47 -30 q24 -6 25 -5 q37 3 52.5 23.5 q15.5 20.5 15.5 39.5 q0 14 -10 31 l-10 17 l-172 200 l132 116 q35 41 28 60 q-3 36 -22.5 52.5 q-19.5 16.5 -45.5 15.5 q-16 -2 -37.5 -14.5 q-21.5 -12.5 -22.5 -17.5 l-164 -156 l0 344 q-3 42 -22 61.5 q-19 19.5 -44 19.5 q-7 0 -10 -1 q-53 -5 -63 -40 q-12 -35 -9 -40 l0 -632 Z" /><glyph glyph-name="l" unicode="l" d="M60 66 q2 -31 14 -48.5 q12 -17.5 30 -23.5 q16 -4 28 -3 q31 2 49 15.5 q18 13.5 24 31.5 q4 16 3 28 l0 640 q-5 73 -62 73 q-62 0 -77 -41 q-12 -35 -9 -40 l0 -632 Z" /><glyph glyph-name="m" unicode="m" d="M60 66 q3 -43 25.5 -61 q22.5 -18 50.5 -14 q29 2 46 15 q17 13 23 32 q5 17 3 28 l0 256 q3 55 26 80 q23 25 59 25 l11 -1 q41 -3 61 -33.5 q20 -30.5 19 -70.5 l0 -256 q3 -39 23 -57.5 q20 -18.5 46 -18.5 q7 0 11 1 q33 3 49 22 q16 19 16 45 l-1 8 l0 256 q3 55 26 80 q23 25 59 25 l11 -1 q33 -3 51.5 -21 q18.5 -18 25.5 -44 q5 -22 3 -39 l0 -256 q4 -54 35 -65 q24 -10 46 -10 q26 0 43 16 q13 11 19 25 q6 14 6 26 q0 5 -1 8 l0 284 q-6 71 -36.5 116 q-30.5 45 -75.5 64 q-43 17 -77 17 q-12 0 -15 -1 q-67 -4 -111 -36 q-43 -31 -45 -36 q-47 51 -96 63 q-50 11 -56 9 q-61 -5 -98 -30 q-37 -26 -38 -30 q-12 40 -36 49 q-28 8 -32 7 q-55 -4 -67 -41 q-12 -36 -9 -43 l0 -392 Z" /><glyph glyph-name="n" unicode="n" d="M548 61 q0 -9 -3 -21 q-6 -19 -23 -33 q-17 -14 -46 -16 l-9 -1 q-27 0 -46 17.5 q-19 17.5 -21 54.5 l0 260 q3 6 -12 52 q-15 45 -84 52 q-16 3 -53 -13 q-39 -17 -43 -91 l0 -256 l0 -5 q0 -9 -3 -21 q-7 -22 -25 -36 q-18 -14 -50 -14 q-28 0 -47.5 18 q-19.5 18 -22.5 58 l0 392 q-3 5 9 42 q12 36 67 42 q4 1 32 -7 q24 -9 36 -49 q0 2 34 30 q34 25 106 30 l38 -5 q31 -6 70 -24 q43 -21 68.5 -63 q25.5 -42 27.5 -104 l0 -284 l0 -5 Z" /><glyph glyph-name="o" unicode="o" d="M304 546 q-163 -4 -224 -127 q-19 -41 -29.5 -83.5 q-10.5 -42.5 -10.5 -69.5 q0 -180 110 -240 q67 -38 155 -38 q40 0 76 8.5 q36 8.5 63 24.5 q90 53 115 171 q9 44 9 74 q-6 103 -47.5 169 q-41.5 66 -104.5 92 q-51 20 -96 20 l-16 -1 ZM304 410 q44 -4 71.5 -29.5 q27.5 -25.5 37.5 -61.5 q9 -32 7 -57 q-5 -107 -47 -130 q-37 -19 -57 -19 q-6 0 -8 1 q-46 4 -74.5 30 q-28.5 26 -38.5 63 q-8 26 -8 41 l1 10 q4 98 46 127 q40 28 70 25 Z" /><glyph glyph-name="p" unicode="p" d="M471 503 q50 -31 79.5 -93.5 q29.5 -62.5 31.5 -155.5 q0 -28 -10 -69 q-10 -41 -29 -80 q-58 -113 -201 -118 q-7 -1 -52 6 q-46 7 -88 37 l0 -169 q2 -5 -9 -40 q-12 -35 -63 -40 q-8 -2 -38 11 q-34 12 -38 69 l0 597 q-3 5 9 42 q12 36 67 42 q6 2 33 -8 q28 -10 39 -56 q0 3 34 34 q35 29 106 34 q16 0 48 -7 q37 -7 81 -36 ZM389 135 q45 28 45 107 q0 47 -18 101 q-11 33 -34.5 49.5 q-23.5 16.5 -55.5 16.5 q-52 0 -86.5 -28.5 q-34.5 -28.5 -37.5 -114.5 l-1 -11 q0 -17 8 -44 q11 -38 41 -65.5 q30 -27.5 76 -31.5 q22 -5 63 21 Z" /><glyph glyph-name="q" unicode="q" d="M562 458 q-5 60 -36 73 q-29 13 -36 11 q-45 -5 -59 -32 q-14 -29 -13 -32 q-36 48 -83 59 q-46 11 -57 9 q-74 -2 -124.5 -37 q-50.5 -35 -78.5 -96 q-18 -41 -27.5 -84 q-9.5 -43 -9.5 -71 q0 -88 30 -146.5 q30 -58.5 84 -86.5 q46 -25 83 -31 q32 -7 47 -7 q61 3 98 22 q37 17 38 21 l0 -169 q5 -57 36 -69 q29 -13 36 -11 q51 5 63 40 q11 35 9 40 l0 597 ZM418 256 q-6 -100 -50 -123 q-37 -20 -58 -20 l-8 1 q-44 5 -72 32 q-28 27 -38 64 q-7 30 -7 39 l1 9 q3 78 33 115.5 q30 37.5 77 37.5 q9 0 14 -1 q58 -6 84.5 -50 q26.5 -44 23.5 -104 Z" /><glyph glyph-name="r" unicode="r" d="M70 66 q3 -54 33 -65 q23 -10 44 -10 q26 0 46 16 q26 22 26 50 q0 6 -1 9 l0 228 q3 36 30 58.5 q27 22.5 86 49.5 q71 44 60 60 q-5 53 -32 67 q-32 14 -40 13 q-50 -5 -76 -32 q-28 -28 -28 -32 q-2 33 -20.5 49 q-18.5 16 -42.5 16 l-9 -1 q-55 -4 -67 -37 q-12 -31 -9 -39 l0 -400 Z" /><glyph glyph-name="s" unicode="s" d="M430 442 q-6 36 -39 60 q-33 24 -79 35 q-41 11 -64 9 q-144 -10 -175 -83 q-32 -75 -25 -89 q3 -45 32.5 -81 q29.5 -36 70.5 -59 q42 -22 65 -28 q64 -28 77 -43 q13 -16 11 -21 q-4 -37 -44 -37 q-10 0 -12 1 q-32 2 -59 12 q-28 11 -29 12 l-51 25 q-16 7 -17 3 q-25 -2 -40 -14.5 q-15 -12.5 -18 -29.5 q-4 -13 -2 -24 q6 -37 45 -61.5 q39 -24.5 92 -34.5 q45 -9 67 -7 q139 9 176 76 q37 63 32 87 q-6 42 -38 79 q-32 37 -77 64 q-43 24 -61 29 q-90 43 -80 56 q8 41 49 41 q36 0 83 -29 q36 -18 54 -18 q8 0 10 2 q24 2 35 21.5 q11 19.5 11 46.5 Z" /><glyph glyph-name="t" unicode="t" d="M102 80 q9 -130 73 -149 q63 -20 73 -14 q46 9 71 30 q25 21 25 46 q0 19 -15 31.5 q-15 12.5 -39 12.5 q-9 0 -12 -1 q-15 -3 -22.5 6.5 q-7.5 9.5 -7.5 26.5 q0 5 2 19 l0 318 l44 0 q36 2 52.5 17 q16.5 15 16.5 38 q0 51 -35 65 q-28 10 -30 8 l-48 0 l0 100 q-3 42 -23.5 58.5 q-20.5 16.5 -48.5 13.5 q-55 -4 -67 -41 q-12 -36 -9 -43 l0 -88 l-32 0 q-20 -2 -32.5 -14 q-12.5 -12 -15.5 -29 q-4 -13 -2 -21 q3 -46 25 -56 q19 -10 25 -8 l32 0 l0 -326 Z" /><glyph glyph-name="u" unicode="u" d="M60 194 q1 -70 29.5 -115 q28.5 -45 79.5 -66 q63 -26 131 -26 q163 4 217 100 q22 40 27 71 q4 25 4 36 l0 264 q-4 60 -34 73 q-27 13 -42 11 q-52 -6 -63 -42 q-12 -37 -9 -42 l0 -260 q-3 -50 -27.5 -73.5 q-24.5 -23.5 -57.5 -23.5 l-11 1 q-69 5 -84 46 q-15 40 -12 46 l0 268 q-3 42 -22 61.5 q-19 19.5 -44 19.5 q-7 0 -10 -1 q-52 -6 -63 -42 q-12 -37 -9 -42 l0 -264 Z" /><glyph glyph-name="v" unicode="v" d="M186 46 q18 -40 44 -48 q31 -8 36 -7 q47 4 64 28 q17 23 16 27 l148 380 q15 43 12 44 q-3 37 -22.5 55 q-19.5 18 -48.5 18 q-42 0 -59 -27 q-15 -23 -14 -26 l-96 -292 l-96 292 q-9 26 -28 39 q-19 13 -42 13 q-20 0 -37.5 -10 q-17.5 -10 -23.5 -26 q-12 -31 -9 -36 q4 -38 8 -44 l148 -380 Z" /><glyph glyph-name="w" unicode="w" d="M162 58 q14 -36 34.5 -52 q20.5 -16 43.5 -16 l10 1 q27 2 47 15 q20 13 31 31 q8 15 10 25 l72 228 l4 0 l76 -236 q21 -63 82 -63 q37 0 59 18.5 q22 18.5 31 48.5 l132 364 q11 35 11 59 q0 35 -23 48 q-23 13 -54 13 q-33 0 -47.5 -19.5 q-14.5 -19.5 -18.5 -40.5 l-88 -280 l-88 276 q-17 46 -41 56 q-21 10 -31 8 q-27 -3 -44 -15.5 q-17 -12.5 -24.5 -26 q-7.5 -13.5 -7.5 -22.5 l-88 -276 l-84 280 q-16 43 -41 52 q-28 9 -31 8 q-52 -4 -63 -30 q-12 -27 -9 -30 q0 -39 16 -72 l124 -352 Z" /><glyph glyph-name="x" unicode="x" d="M38 104 q-25 -40 -20 -50 q2 -25 16 -40.5 q14 -15.5 33 -19.5 q17 -5 27 -3 q43 4 60 31 l120 144 l120 -148 q44 -33 64 -27 q49 4 61 29 q8 19 8 36 q0 17 -5 31.5 q-5 14.5 -12 18.5 l-148 168 l124 140 q24 32 24 64 q0 19 -9 33.5 q-9 14.5 -27 21.5 q-27 9 -45 9 q-20 0 -37 -14 l-14 -14 l-104 -132 l-104 132 q-39 35 -52 28 q-55 -4 -67 -36 q-12 -31 -9 -36 q10 -52 20 -56 l124 -140 l-148 -170 Z" /><glyph glyph-name="y" unicode="y" d="M122 -117 q-14 -33 -14 -54 q0 -51 90 -48 q21 3 37 21 q16 18 23 39 l248 597 q7 24 7 42 q0 32 -24 47 q-24 15 -51 15 q-40 -4 -54 -26 q-15 -23 -14 -26 l-108 -280 l-104 280 q-13 31 -30 42 q-17 11 -42 10 q-49 -4 -60 -31 q-11 -29 -8 -33 q1 -35 4 -40 l164 -404 l-64 -151 Z" /><glyph glyph-name="z" unicode="z" d="M34 82 q-12 -21 -12 -44 q0 -16 7 -27.5 q7 -11.5 21 -14.5 q27 -6 32 -5 l344 0 q35 2 49.5 16 q14.5 14 14.5 40 q0 40 -17 56 q-17 16 -51 15 l-192 0 l232 328 q15 26 15 50 q0 18 -9.5 28.5 q-9.5 10.5 -27.5 10.5 q-7 0 -10 -1 l-340 0 q-61 -4 -61 -62 l1 -14 q2 -27 17.5 -40 q15.5 -13 37.5 -13 l9 1 l172 0 l-232 -324 Z" /><glyph glyph-name="udieresis" unicode="ü" d="M106 682 q2 -28 15.5 -45.5 q13.5 -17.5 31.5 -23.5 q16 -4 25 -3 q41 1 58.5 19.5 q17.5 18.5 17.5 54.5 q0 33 -21 51.5 q-21 18.5 -51 18.5 q-42 -3 -60.5 -24.5 q-18.5 -21.5 -15.5 -47.5 ZM330 682 q2 -28 15.5 -45.5 q13.5 -17.5 31.5 -23.5 q16 -4 25 -3 q41 1 58.5 19.5 q17.5 18.5 17.5 54.5 q0 33 -21 51.5 q-21 18.5 -51 18.5 q-42 -3 -60.5 -24.5 q-18.5 -21.5 -15.5 -47.5 ZM50 190 q1 -69 29.5 -113 q28.5 -44 78.5 -64 q60 -25 136 -25 q82 0 137 29 q47 25 72.5 66 q25.5 41 30.5 77 q4 24 4 34 l0 272 q-3 39 -22.5 58 q-19.5 19 -44.5 19 q-41 0 -61.5 -23.5 q-20.5 -23.5 -20.5 -53.5 q0 -7 1 -8 l0 -264 q-3 -48 -26.5 -70.5 q-23.5 -22.5 -57.5 -22.5 q-9 0 -12 1 q-69 4 -84 41 q-15 38 -12 51 l0 264 q-5 60 -33 73 q-27 13 -39 11 q-55 -6 -67 -42 q-12 -37 -9 -42 l0 -268 Z" /><glyph glyph-name="uni4F53" unicode="&#x4f53;" d="M976 166 q-167 177 -240 418 l198 0 q43 7 43 60 q0 53 -43 60 l-246 0 l0 100 q-7 43 -56 43 q-49 0 -56 -43 l0 -100 l-228 0 q-44 -8 -44 -60 q0 -52 44 -60 l166 0 q-60 -258 -224 -422 q-25 -25 -25 -54 q0 -21 14 -34 q14 -13 36 -13 q17 0 35 9 q28 18 70 72 q-4 -46 44 -54 l112 0 l0 -171 q3 -19 18.5 -30 q15.5 -11 36.5 -11 q22 0 37.5 11.5 q15.5 11.5 19.5 31.5 l0 169 l94 0 q45 6 45 64 l-1 14 q48 -66 74 -88 q26 -18 48 -18 q22 0 36 14.5 q14 14.5 14 36.5 q0 27 -22 55 ZM106 386 q18 15 40 42 l0 -507 q3 -18 17.5 -29 q14.5 -11 33.5 -11 q20 0 35.5 11.5 q15.5 11.5 19.5 30.5 l0 691 q28 72 48 150 l1 12 q0 29 -14.5 47.5 q-14.5 18.5 -36.5 18.5 q-18 0 -32.5 -13 q-14.5 -13 -23.5 -37 q-43 -178 -158 -320 q-15 -25 -15 -47 q0 -22 13 -36 q13 -14 34 -14 q18 0 38 11 ZM688 446 q30 -91 56.5 -150 q26.5 -59 55.5 -100 l-18 2 l-94 0 l0 248 ZM456 198 q69 92 120 246 l0 -246 l-120 0 Z" /><glyph glyph-name="uni5206" unicode="&#x5206;" d="M732 222 q3 -107 -17.5 -159 q-20.5 -52 -74.5 -52 q-11 0 -14 1 q-55 10 -110 28 l-15 2 q-21 0 -35.5 -15.5 q-14.5 -15.5 -14.5 -37.5 q0 -18 10.5 -34.5 q10.5 -16.5 30.5 -27.5 q90 -32 179 -32 q120 0 157 109 q23 95 22 182 l0 206 q36 -34 72 -60 q14 -6 27 -6 q25 0 43.5 19 q18.5 19 18.5 45 q0 24 -19 46 q-192 164 -302 392 q-17 26 -44 26 q-24 0 -42.5 -18 q-18.5 -18 -18.5 -45 q0 -8 3 -19 q63 -160 168 -280 l-480 0 q85 109 128 248 q1 3 1 12 q0 27 -17.5 45 q-17.5 18 -41.5 18 q-34 0 -54 -35 q-75 -213 -246 -360 q-17 -20 -17 -46 q0 -25 17 -44 q17 -19 41 -19 q8 0 23 5 q36 25 74 66 l194 0 q-63 -283 -288 -395 q-30 -21 -30 -54 q0 -25 17.5 -42 q17.5 -17 44.5 -17 q10 0 28 5 q138 70 229.5 201 q91.5 131 120.5 302 l198 0 q17 1 26 -8 q9 -9 8 -26 l0 -126 Z" /><glyph glyph-name="uni5355" unicode="&#x5355;" d="M750 712 q18 35 26 66 q0 29 -19 48.5 q-19 19.5 -45 19.5 q-34 0 -52 -34 q-21 -51 -48 -100 l-172 0 q-40 72 -78 118 q-21 18 -47 18 q-25 0 -44 -16 q-19 -16 -19 -40 q0 -14 8 -30 q14 -14 36 -50 l-112 0 q-61 2 -60 -60 l0 -352 q-1 -63 60 -60 l268 0 l0 -66 l-372 0 q-42 -7 -42 -56 q0 -48 42 -56 l372 0 l0 -145 q8 -42 60 -42 q53 0 60 42 l0 145 l372 0 q43 7 43 56 q0 49 -43 56 l-372 0 l0 66 l274 0 q60 -3 60 60 l0 352 q0 62 -60 60 l-96 0 ZM236 528 l0 42 q-3 31 28 30 l188 0 l0 -72 l-216 0 ZM572 528 l0 72 l184 0 q32 2 30 -30 l0 -42 l-214 0 ZM452 420 l0 -68 l-188 0 q-31 -3 -28 30 l0 38 l216 0 ZM786 420 l0 -38 q2 -33 -30 -30 l-184 0 l0 68 l214 0 Z" /><glyph glyph-name="uni58F0" unicode="&#x58f0;" d="M904 512 q43 6 43 52 q0 45 -43 52 l-332 0 l0 64 l364 0 q43 6 43 55 q0 48 -43 55 l-364 0 l0 22 q-7 43 -57 43 q-50 0 -57 -43 l0 -22 l-364 0 q-42 -7 -42 -55 q0 -49 42 -55 l364 0 l0 -64 l-322 0 q-44 -8 -44 -52 q0 -46 44 -52 l768 0 ZM158 -95 q56 110 72 239 l656 0 q63 -3 60 58 l0 210 q3 62 -60 60 l-702 0 q-61 1 -60 -60 l0 -184 q-2 -145 -70 -267 q-7 -15 -7 -33 q0 -26 16 -42 q16 -16 38 -16 q31 0 57 35 ZM458 256 l-222 0 l0 70 q-3 35 34 34 l188 0 l0 -104 ZM580 360 l214 0 q35 2 34 -34 l0 -36 q1 -37 -34 -34 l-214 0 l0 104 Z" /><glyph glyph-name="uni590D" unicode="&#x590d;" d="M378 272 q9 11 9 21 q0 9 -7 19 l458 0 q62 -1 60 60 l0 232 q2 60 -60 60 l-608 0 q32 24 46 40 l650 0 q43 6 43 52 q0 45 -43 52 l-588 0 q-1 23 -17.5 37.5 q-16.5 14.5 -38.5 14.5 q-24 0 -44 -20 q-75 -97 -158 -150 q-36 -28 -36 -63 q0 -21 14 -34.5 q14 -13.5 37 -13.5 q16 0 34.5 8.5 q18.5 8.5 34.5 20.5 l0 -236 q-3 -61 60 -60 l46 0 q-89 -89 -190 -138 q-20 -14 -30.5 -30.5 q-10.5 -16.5 -10.5 -32.5 q0 -20 14 -33 q14 -13 38 -13 q18 0 35 7 q58 30 102 60 q57 -48 152 -104 q-48 -12 -100.5 -19 q-52.5 -7 -127.5 -14 q-33 -4 -38 -4 q-28 -4 -44.5 -19.5 q-16.5 -15.5 -16.5 -35.5 q0 -21 17 -35.5 q17 -14.5 46 -17.5 q189 8 412 70 q188 -59 394 -70 q32 2 50 17.5 q18 15.5 18 37.5 q0 21 -16.5 37.5 q-16.5 16.5 -45.5 21.5 q-90 3 -236 23 q93 46 150.5 97.5 q57.5 51.5 61.5 98.5 l0 18 q-5 38 -46 38 l-480 0 ZM278 528 l0 10 q-1 32 30 30 l444 0 q30 2 30 -30 l0 -10 l-504 0 ZM782 448 l0 -10 q0 -33 -30 -30 l-444 0 q-31 -3 -30 30 l0 10 l504 0 ZM686 176 q35 -2 28 -12 q-62 -53 -178 -92 q-112 49 -194 104 l344 0 Z" /><glyph glyph-name="uni5929" unicode="&#x5929;" d="M956 16 q-262 112 -376 366 l354 0 q43 7 43 58 q0 51 -43 58 l-356 0 l2 86 l0 106 l314 0 q43 7 43 56 q0 49 -43 56 l-760 0 q-44 -8 -44 -56 q0 -48 44 -56 l324 0 l0 -130 q0 -12 -2 -62 l-354 0 q-44 -8 -44 -58 q0 -50 44 -58 l334 0 q-64 -266 -348 -370 q-20 -9 -31 -27 q-11 -18 -11 -37 q0 -25 16 -41.5 q16 -16.5 42 -17.5 q49 6 113 39 q64 33 126 85 q61 50 102 106.5 q41 56.5 71 128.5 q152 -257 398 -347 l20 -2 q30 0 48.5 15.5 q18.5 15.5 18.5 39.5 q0 17 -11.5 33.5 q-11.5 16.5 -33.5 28.5 Z" /><glyph glyph-name="uni6574" unicode="&#x6574;" d="M562 52 l318 0 q42 5 42 39 q0 35 -42 39 l-318 0 l0 48 l318 0 q42 6 42 48 q0 42 -42 48 l-546 0 q20 11 22 34 l0 58 q43 -32 78 -56 q18 -6 31 -6 q32 0 47 32 q10 -43 59 -43 l13 1 q104 18 176 64 q68 -53 166 -78 q3 -1 12 -1 q24 0 40.5 15.5 q16.5 15.5 16.5 36.5 q0 16 -10.5 30 q-10.5 14 -30.5 23 q-54 17 -108 48 q71 87 90 226 l8 0 q42 6 42 52 q0 45 -42 52 l-234 0 q4 16 10 34 q1 27 -16.5 44.5 q-17.5 17.5 -41.5 17.5 q-16 0 -30 -9 q-14 -9 -22 -27 q-31 -119 -92 -210 q-12 28 -56 30 l-106 0 l0 40 l164 0 q42 6 42 52 q0 45 -42 52 l-164 0 l0 22 q-7 42 -53 42 q-47 0 -53 -42 l0 -22 l-166 0 q-41 -8 -41 -52 q0 -46 41 -52 l166 0 l0 -40 l-116 0 q-61 0 -60 -60 l0 -88 q-1 -62 60 -60 l28 0 q-52 -47 -112 -80 q-19 -18 -19 -42 q0 -22 14 -36.5 q14 -14.5 37 -14.5 q17 0 32 7 q79 45 136 110 l0 -70 q2 -20 20 -34 l-122 0 q-42 -6 -42 -48 q0 -42 42 -48 l302 0 l0 -178 l-126 0 l0 106 q-7 43 -53 43 q-47 0 -53 -43 l0 -106 l-124 0 q-44 -6 -44 -49 q0 -42 44 -50 l858 0 q43 7 43 50 q0 43 -43 49 l-390 0 l0 52 ZM760 504 q-59 59 -90 154 l156 0 q-15 -94 -66 -154 ZM250 506 l-48 0 q-27 -1 -24 24 l0 8 q-3 26 24 24 l48 0 l0 -56 ZM356 562 l40 0 q24 2 24 -24 l0 -8 q0 -25 -24 -24 l-40 0 l0 56 ZM606 538 q32 -60 68 -102 q-48 -25 -116 -38 q-34 -7 -44 -34 l-8 16 q-37 31 -80 54 l36 0 q60 -1 60 60 l0 8 q14 -8 26 -8 q28 0 52 38 l6 6 Z" /><glyph glyph-name="uni6B8A" unicode="&#x6b8a;" d="M972 46 q12 -16 12 -38 q0 -24 -16.5 -41.5 q-16.5 -17.5 -39.5 -17.5 q-19 0 -34 12 q-93 90 -148 211 l0 -255 q-7 -42 -56 -42 q-48 0 -56 42 l0 299 q-86 -166 -238 -285 q-22 -13 -41 -13 q-23 0 -37.5 14.5 q-14.5 14.5 -14.5 35.5 q0 25 21 46 q159 132 244 322 l-132 0 q-44 8 -44 56 q0 48 44 56 l198 0 l0 128 l-98 0 q-10 -29 -30 -68 q-19 -31 -49 -31 q-19 0 -34 14 q-15 14 -19 37 l-2 -24 q-31 -354 -244 -555 q-27 -18 -49 -18 q-22 0 -35.5 14 q-13.5 14 -13.5 35 q0 30 26 56 q84 73 128 178 q-32 45 -70 80 q-22 -33 -54 -33 q-21 0 -36 16 q-15 16 -15 42 q0 18 7 35 q80 141 98 334 l-58 0 q-42 8 -42 56 q0 49 42 56 l306 0 q43 -7 43 -56 q0 -49 -43 -56 l-136 0 l-6 -80 l84 0 q71 -2 71 -58 l0 -2 q2 10 5 16 q40 93 50 200 q6 26 21 41 q15 15 34 15 q22 0 37.5 -17 q15.5 -17 17.5 -45 l-6 -70 l70 0 l0 116 q7 43 56 43 q49 0 56 -43 l0 -116 l134 0 q43 -7 43 -56 q0 -49 -43 -56 l-134 0 l0 -128 l188 0 q43 -7 43 -56 q0 -49 -43 -56 l-142 0 q73 -174 180 -290 ZM292 472 q1 2 1 8 q0 14 -15 16 l-52 0 q-21 -58 -32 -96 q37 -30 66 -66 q22 64 32 138 Z" /><glyph glyph-name="uni6BCD" unicode="&#x6bcd;" d="M124 90 q-1 -3 -1 -15 q0 -50 61 -57 l586 0 q-6 -31 -58 -31 q-11 0 -61 5 q-31 3 -45 3 q-24 -3 -38 -17 q-14 -14 -14 -35 q0 -19 14 -35.5 q14 -16.5 38 -22.5 q72 -8 101 -8 q181 0 187 141 l50 0 q43 7 43 57 q0 50 -43 57 l-44 0 l6 246 l46 0 q43 7 43 57 q0 50 -43 57 l-42 0 q0 14 1 23 l3 189 l0 32 q4 80 -88 82 l-612 0 q-56 -3 -58 -48 l-12 -278 l-58 0 q-42 -7 -42 -57 q0 -49 42 -57 l52 0 q-12 -155 -14 -288 ZM572 492 q34 16 34 47 q0 13 -4 21 q-29 84 -66 146 l226 0 q35 2 34 -34 l0 -26 l-3 -126 l-1 -28 l-220 0 ZM440 658 q38 -89 66 -148 q3 -12 24 -18 l-272 0 q3 114 10 190 q3 23 24 24 l154 0 q-9 -15 -9 -30 q0 -9 3 -18 ZM448 310 q13 -34 33 -69 q18 -34 27 -57 q9 -18 23 -27 q14 -9 29 -9 q24 0 39.5 17 q15.5 17 15.5 44 q0 11 -3 23 q-32 74 -64 130 q-7 12 -12 16 l252 0 q0 -124 -6 -246 l-510 0 q-27 0 -28 22 l0 32 l6 192 l228 0 q-32 -15 -32 -49 l2 -19 Z" /><glyph glyph-name="uni6D4B" unicode="&#x6d4b;" d="M294 720 q-6 5 -8 8 q-72 59 -128 96 q-13 7 -29 7 q-26 0 -43.5 -18.5 q-17.5 -18.5 -17.5 -43.5 q0 -26 22 -45 l36 -26 q52 -38 90 -66 q16 -9 32 -9 q27 0 46 31 l0 -500 q6 -42 51 -42 q44 0 51 42 l0 492 q-3 35 34 34 l108 0 q17 1 26 -8 q9 -9 8 -26 l0 -482 q6 -44 53 -44 q45 0 53 44 l0 568 q2 61 -60 60 l-264 0 q-63 2 -60 -60 l0 -12 ZM764 -91 q44 -9 83 -9 q23 0 29 1 q72 -8 80 109 l0 756 q-7 43 -52 43 q-46 0 -52 -43 l0 -724 q-1 -28 -18 -28 q-30 0 -50 4 q-24 -1 -40.5 -18.5 q-16.5 -17.5 -16.5 -41.5 q0 -17 9.5 -30 q9.5 -13 27.5 -19 ZM812 694 q-6 43 -48 43 q-42 0 -48 -43 l0 -546 q6 -44 48 -44 q42 0 48 44 l0 546 ZM304 -111 q234 125 228 387 l0 314 q-6 42 -48 42 q-42 0 -48 -42 l0 -334 q-9 -191 -182 -271 q-31 -18 -31 -48 q0 -21 16.5 -36.5 q16.5 -15.5 40.5 -15.5 q13 0 24 4 ZM258 462 q-61 61 -136 102 q-17 5 -26 5 q-24 0 -41.5 -17.5 q-17.5 -17.5 -17.5 -39.5 q0 -21 15 -36 l138 -104 q16 -10 33 -10 q22 0 36.5 15.5 q14.5 15.5 14.5 38.5 q0 24 -16 46 ZM162 -77 q66 126 106 339 q0 26 -16.5 42.5 q-16.5 16.5 -40.5 16.5 q-18 0 -32.5 -12 q-14.5 -12 -20.5 -33 q-32 -167 -96 -305 q-4 -11 -4 -25 q0 -24 14.5 -39 q14.5 -15 35.5 -15 q32 0 54 31 ZM700 -13 q-43 43 -128 87 q-10 3 -21 3 q-24 0 -41.5 -17 q-17.5 -17 -17.5 -38 q0 -23 22 -41 q64 -39 120 -84 q17 -9 32 -9 q22 0 37 15.5 q15 15.5 15 37.5 q0 25 -18 46 Z" /><glyph glyph-name="uni7279" unicode="&#x7279;" d="M624 -85 q34 -10 76.5 -15.5 q42.5 -5.5 67.5 -4.5 q101 17 98 113 l0 250 l86 0 q43 6 43 55 q0 48 -43 55 l-86 0 l0 72 l86 0 q43 7 43 57 q0 50 -43 57 l-238 0 l0 70 l198 0 q42 8 42 56 q0 49 -42 56 l-198 0 l0 68 q-7 43 -60 43 q-53 0 -60 -43 l0 -68 l-164 0 q-44 -8 -44 -56 q0 -48 44 -56 l164 0 l0 -70 l-174 0 q4 53 -44 64 l-46 0 l0 186 q-7 43 -55 43 q-49 0 -55 -43 l0 -186 l-44 0 l2 50 l0 66 q-7 43 -55 43 q-49 0 -55 -43 l0 -80 q-1 -120 -32 -228 l-1 -10 q0 -25 14.5 -40.5 q14.5 -15.5 34.5 -15.5 q13 0 27 8.5 q14 8.5 23 23.5 q23 42 30 112 l56 0 l0 -200 q-70 -37 -128 -60 q-25 -14 -38 -31.5 q-13 -17.5 -13 -36.5 q0 -21 14.5 -35 q14.5 -14 37.5 -14 q11 0 21 3 q57 24 106 48 l0 -251 q6 -42 55 -42 q48 0 55 42 l0 307 l64 38 q8 -15 36 -14 l54 0 q-16 -13 -16 -30 q0 -17 16 -42 l26 -41 l44 -71 q21 -31 51 -31 q21 0 36 16 q15 16 15 40 q0 9 -2 17 q-31 69 -84 142 l184 0 l0 -212 q0 -36 -25 -36 q-29 0 -81 16 l-12 1 q-28 0 -45.5 -14 q-17.5 -14 -17.5 -35 q0 -18 13.5 -34.5 q13.5 -16.5 37.5 -28.5 ZM754 368 l-324 0 q-11 0 -22 -6 q-10 18 -31 18 q-19 0 -47 -16 l0 140 l40 0 q-4 -55 42 -64 l342 0 l0 -72 Z" /><glyph glyph-name="uni7EC3" unicode="&#x7ec3;" d="M412 362 q-12 -30 -12 -56 q0 -26 14 -41.5 q14 -15.5 42 -16.5 l220 0 l0 -236 q-3 -26 -37 -26 q-16 0 -55 11 q-30 4 -49 -13 q-19 -17 -19 -43 q0 -16 9 -30 q9 -14 27 -22 q48 -16 102 -16 q121 0 132 94 l0 281 l126 0 q43 7 43 56 q0 49 -43 56 l-126 0 l0 156 q-2 53 -60 50 l-122 0 q11 30 11 32 l15 42 l290 0 q43 6 43 55 q0 48 -43 55 l-240 0 q13 29 13 49 q0 24 -15.5 40 q-15.5 16 -37.5 16 q-17 0 -33 -11 q-16 -11 -27 -32 q-16 -41 -26 -62 l-106 0 q-23 -4 -37 -19.5 q-14 -15.5 -14 -37.5 q0 -21 13 -35.5 q13 -14.5 34 -17.5 l68 0 q-23 -55 -28 -74 l-32 0 q-23 -3 -35.5 -17.5 q-12.5 -14.5 -12.5 -35.5 q0 -19 11 -35 q11 -16 31 -22 q-24 -58 -34 -94 ZM124 178 q131 17 224 38 q18 6 29 20 q11 14 11 32 q0 24 -17.5 39.5 q-17.5 15.5 -46.5 14.5 l-100 -14 q-7 4 -4 12 l174 250 q13 22 13 44 q0 24 -15.5 40 q-15.5 16 -37.5 16 q-30 0 -56 -30 q-31 -40 -37 -51 q-12 -19 -27 -37 l-34 0 q-16 1 -16 7 q0 3 4 7 l112 190 q8 18 8 35 q0 24 -15 39 q-15 15 -37 15 q-30 0 -56 -29 q-70 -116 -160 -272 q-13 -25 -13 -48 q0 -37 47 -48 l43 -1 l51 1 q-52 -73 -112 -178 q-12 -22 -12 -41 q0 -24 17 -38 q17 -14 49 -14 l14 1 ZM556 360 q-2 -1 -9 -1 q-18 0 -17 15 l30 82 l82 0 q35 2 34 -34 l0 -62 l-120 0 ZM816 144 q40 -92 74 -191 q8 -16 21 -24 q13 -8 28 -8 q21 0 36.5 15.5 q15.5 15.5 15.5 39.5 l-1 9 q-28 109 -76 213 q-19 30 -49 30 q-21 0 -37 -17 q-16 -17 -16 -41 q0 -15 4 -26 ZM476 -71 q90 137 114 209 q2 10 2 21 q0 27 -15 44.5 q-15 17.5 -37 17.5 q-15 0 -29.5 -9.5 q-14.5 -9.5 -24.5 -27.5 q-46 -111 -106 -195 q-11 -20 -11 -37 q0 -21 15 -35 q15 -14 37 -14 q31 0 55 26 ZM322 132 q-111 -52 -238 -92 q-22 -9 -34 -26 q-12 -17 -12 -36 q0 -24 15.5 -39 q15.5 -15 41.5 -15 q10 0 13 1 q127 36 262 103 q30 20 30 53 q0 24 -15.5 39.5 q-15.5 15.5 -39.5 15.5 q-14 0 -23 -4 Z" /><glyph glyph-name="uni8BA4" unicode="&#x8ba4;" d="M342 734 q-70 58 -164 110 q-12 4 -20 4 q-24 0 -40.5 -18 q-16.5 -18 -16.5 -42 q0 -24 19 -40 l104 -71 l50 -35 q21 -12 39 -12 q22 0 37 15 q15 15 15 37 q0 26 -23 52 ZM980 -27 q-133 128 -206 284 q-73 156 -74 321 l0 214 q-7 43 -59 43 q-52 0 -59 -43 l0 -158 q7 -396 -280 -661 q-18 -20 -18 -42 q0 -22 17 -37.5 q17 -15.5 42 -15.5 q16 0 29 5 q179 155 274 395 q78 -221 246 -383 q22 -16 45 -16 q24 0 40.5 16 q16.5 16 16.5 39 q0 20 -14 39 ZM284 542 q2 59 -54 64 l-152 0 q-41 -8 -41 -57 q0 -49 41 -57 l74 0 q10 -1 12 -8 q2 -44 -3 -179 q-8 -210 -13 -322 q0 -36 14 -56.5 q14 -20.5 36 -20.5 q24 0 46 21 q104 101 170 209 q8 21 8 39 q0 26 -14.5 43.5 q-14.5 17.5 -35.5 17.5 q-26 0 -46 -30 q-25 -47 -50 -80 l-6 0 q4 106 6 218 q2 119 8 198 Z" /><glyph glyph-name="uni8BFB" unicode="&#x8bfb;" d="M962 398 q12 46 16 102 l0 32 q2 60 -60 58 l-210 0 l0 64 l204 0 q43 7 43 57 q0 50 -43 57 l-204 0 l0 36 q-7 43 -57 43 q-50 0 -57 -43 l0 -36 l-196 0 q-44 -8 -44 -57 q0 -49 44 -57 l196 0 l0 -64 l-254 0 q-42 -7 -42 -51 q0 -45 42 -51 l506 0 q13 -3 13 -17 q0 -7 -1 -9 q-5 -41 -4 -42 q-2 -27 13 -42.5 q15 -15.5 39 -15.5 q19 0 34.5 9.5 q15.5 9.5 21.5 26.5 ZM316 738 q-67 60 -150 104 q-11 4 -25 4 q-26 0 -44.5 -17.5 q-18.5 -17.5 -18.5 -40.5 q0 -28 26 -48 q71 -44 130 -94 q19 -13 39 -13 q25 0 41.5 18 q16.5 18 16.5 44 q0 24 -15 43 ZM370 -119 q242 42 346 207 l228 0 q43 6 43 52 q0 45 -43 52 l-186 0 q31 93 36 216 q-4 24 -19 39 q-15 15 -36 15 q-21 0 -37 -16 q-16 -16 -20 -44 q-7 -125 -46 -210 l-266 0 q-15 21 -32 21 q-16 0 -36 -21 q-24 -44 -42 -80 q-2 -2 -3 -2 q-3 0 -5 14 l0 386 q2 62 -60 60 l-122 0 q-42 -7 -42 -51 q0 -45 42 -51 l34 0 q36 1 34 -34 l0 -483 q1 -25 15 -39 q14 -14 37 -14 q29 0 58 23 q50 50 116 167 l210 0 q-49 -40 -101.5 -61.5 q-52.5 -21.5 -134.5 -37.5 q-17 -7 -26.5 -20.5 q-9.5 -13.5 -9.5 -29.5 q0 -25 19 -42 q19 -17 49 -16 ZM404 384 q52 -17 134 -54 q17 -5 26 -5 q21 0 34.5 12.5 q13.5 12.5 13.5 30.5 q0 13 -8.5 27 q-8.5 14 -23.5 23 q-69 33 -132 54 q-4 1 -16 1 q-26 0 -42 -13.5 q-16 -13.5 -16 -33.5 q0 -13 8 -24 q8 -11 22 -18 ZM544 304 q-73 29 -142 48 q-3 1 -13 1 q-23 0 -37.5 -14 q-14.5 -14 -14.5 -33 q0 -26 27 -40 q86 -26 152 -54 q15 -4 21 -4 q19 0 30.5 12 q11.5 12 11.5 30 q0 15 -9 30 q-9 15 -26 24 ZM720 -31 q94 -39 186 -94 q15 -5 23 -5 q22 0 36.5 15.5 q14.5 15.5 14.5 37.5 q0 30 -28 54 q-72 42 -190 87 l-15 2 q-24 0 -40.5 -15 q-16.5 -15 -16.5 -36 q0 -27 30 -46 Z" /><glyph glyph-name="uni97F5" unicode="&#x97f5;" d="M607 383 l9 -21 q7 -12 18.5 -19 q11.5 -7 24.5 -7 q22 0 38 16.5 q16 16.5 16 42.5 q0 8 -1 11 q-27 76 -50 116 q-15 23 -35 23 q-7 0 -15 -3 l36 74 l154 0 q36 1 34 -34 l0 -296 q-1 -100 -8 -208 q-6 -72 -48 -66 q-87 6 -134 22 q-27 1 -44 -16.5 q-17 -17.5 -17 -42.5 q0 -19 11.5 -35 q11.5 -16 31.5 -25 q86 -24 188 -24 q57 3 88 32.5 q31 29.5 39 76.5 q7 44 9 117 q1 5 1 23 q3 90 3 152 l0 376 q3 63 -60 60 l-206 0 q3 26 10 40 q4 30 -12.5 50 q-16.5 20 -41.5 20 q-16 0 -30.5 -10 q-14.5 -10 -23.5 -28 q-43 -142 -120 -262 q-5 -22 -5 -30 q0 -9 1 -12 l-38 0 q25 48 38 104 q3 12 3 21 q0 25 -19 35 l38 0 q43 6 43 52 q0 45 -43 52 l-128 0 q-15 38 -30 64 q-11 15 -26.5 22.5 q-15.5 7.5 -31.5 7.5 q-22 0 -38.5 -12.5 q-16.5 -12.5 -16.5 -32.5 q0 -8 3 -17 l16 -32 l-150 0 q-42 -7 -42 -52 q0 -46 42 -52 l34 0 q-15 -12 -15 -31 q0 -8 3 -17 q16 -59 44 -112 l-82 0 q-42 -7 -42 -51 q0 -45 42 -51 l426 0 q18 1 30 15 q12 14 12 33 q0 10 -2 16 q16 2 28 14 l41 -89 ZM238 496 q12 26 12 44 q-16 59 -44 116 l190 0 q-21 -10 -32 -38 q-20 -65 -48 -122 l-78 0 ZM582 74 q103 57 182 134 q16 19 16 44 q0 23 -15.5 40 q-15.5 17 -37.5 17 q-18 0 -35 -11 q-83 -70 -170 -124 q-23 -15 -30 -36 l0 164 q0 60 -60 60 l-296 0 q-61 0 -60 -60 l0 -335 q-1 -62 60 -60 l296 0 q60 -2 60 60 l0 133 q12 -36 47 -36 q17 0 43 10 ZM188 190 l0 34 q-3 30 30 30 l132 0 q30 0 30 -30 l0 -34 l-192 0 ZM380 90 l0 -50 q0 -33 -30 -30 l-132 0 q-33 -3 -30 30 l0 50 l192 0 Z" /><glyph glyph-name="uni9F3B" unicode="&#x9f3b;" d="M576 804 l2 10 q0 19 -19 32 q-19 13 -44 13 q-36 0 -57 -27 l-24 -42 l-246 0 q-61 1 -58 -60 l0 -214 q-3 -61 58 -60 l674 0 q60 -1 60 60 l0 214 q0 62 -60 60 l-292 0 l6 14 ZM242 682 l0 2 q-3 34 30 32 l498 0 q32 2 30 -32 l0 -2 l-558 0 ZM242 636 l558 0 l0 -32 l-558 0 l0 32 ZM800 556 l0 -2 q2 -33 -30 -30 l-498 0 q-33 -3 -30 30 l0 2 l558 0 ZM166 426 q-63 2 -60 -60 l0 -168 q-3 -61 60 -60 l710 0 q62 -1 60 60 l0 168 q2 61 -60 60 l-710 0 ZM458 312 l-240 0 l0 6 q-3 30 30 30 l210 0 l0 -36 ZM570 348 l226 0 q32 0 30 -30 l0 -6 l-256 0 l0 36 ZM458 216 l-210 0 q-33 -3 -30 30 l0 6 l240 0 l0 -36 ZM570 252 l256 0 l0 -6 q2 -33 -30 -30 l-226 0 l0 36 ZM118 -133 q199 1 296 137 l244 0 l0 -101 q6 -40 55 -40 q48 0 55 40 l0 101 l174 0 q43 6 43 51 q0 44 -43 51 l-850 0 q-42 -7 -42 -51 q0 -45 42 -51 l186 0 q-69 -43 -170 -45 q-20 -4 -31.5 -16 q-11.5 -12 -11.5 -28 q0 -19 14 -32 q14 -13 39 -16 Z" /></font>
</defs>
</svg>
